<?xml version="1.0" standalone="no"?>
<!DOCTYPE svg PUBLIC "-//W3C//DTD SVG 1.1//EN" "http://www.w3.org/Graphics/SVG/1.1/DTD/svg11.dtd" >
<svg xmlns="http://www.w3.org/2000/svg">
<metadata></metadata>
<defs>
<font id="baskerville_mtitalic" horiz-adv-x="491" >
<font-face units-per-em="2048" ascent="1638" descent="-410" />
<missing-glyph horiz-adv-x="512" />
<glyph horiz-adv-x="2048" />
<glyph horiz-adv-x="2048" />
<glyph unicode="&#xd;" horiz-adv-x="681" />
<glyph unicode=" "  horiz-adv-x="512" />
<glyph unicode="&#x09;" horiz-adv-x="512" />
<glyph unicode="&#xa0;" horiz-adv-x="512" />
<glyph unicode="!" d="M70 78q0 45 30.5 75.5t75.5 30.5t76 -30.5t31 -75.5t-32 -76t-75 -31t-74.5 32t-31.5 75zM248 395l188 754q10 31 15 49q0 2 2 8q0 4 2 6q12 49 21 75t34 54.5t59 28.5q29 0 48.5 -20.5t19.5 -53.5q0 -39 -39 -137l-305 -764h-45z" />
<glyph unicode="&#x22;" horiz-adv-x="854" d="M319 797l31 295q6 70 13.5 108.5t22.5 86.5t46 70.5t76 22.5q78 0 78 -71q0 -37 -84 -217l-140 -295h-43zM731 797l31 295q6 70 13 108.5t22.5 86.5t46 70.5t76.5 22.5q78 0 77 -71q0 -37 -84 -217l-139 -295h-43z" />
<glyph unicode="#" horiz-adv-x="1366" d="M188 362v107h228l82 385h-310v107h328l90 409h103l-91 -409h443l88 409h102l-88 -409h207v-107h-225l-82 -385h307v-107h-328l-86 -409h-102l86 409h-442l-84 -409h-103l84 409h-207zM518 469h443l81 385h-442z" />
<glyph unicode="$" horiz-adv-x="1024" d="M131 164q0 23 14.5 39t36.5 16q25 0 47.5 -17.5t32.5 -31.5t31 -49q31 -49 41 -60l186 627q-141 133 -141 285q0 135 95 234.5t237 115.5l16 57h55l-16 -53q76 0 149 -27l25 80h57l-32 -102q70 -37 104.5 -82t34.5 -82q0 -49 -53 -49q-45 0 -103 94l-10 15q-2 4 -2 6h-4 l-158 -541q45 -45 71.5 -76t59.5 -99.5t33 -137.5q0 -121 -90 -224.5t-273 -134.5l-55 -184h-55l53 178q-84 -4 -153 16l-60 -194h-53l61 209q-86 33 -134 83t-48 89zM379 29q16 -10 35.5 -16.5t38 -8.5t31 -3t27.5 0t19 1l158 530q-41 43 -123 117zM485 1028q0 -92 80 -188 l133 444q-66 -14 -111.5 -48t-66 -77t-28 -74.5t-7.5 -56.5zM588 8q109 23 176 89.5t67 166.5q0 108 -102 223zM608 799q2 -2 5 -6.5t12 -12.5q55 -47 102 -94q4 -4 6 -4l162 551q-63 55 -139 55z" />
<glyph unicode="%" horiz-adv-x="1792" d="M291 899q0 203 111.5 341t224.5 138q76 0 126 -65.5t50 -177.5q0 -162 -102.5 -314.5t-227.5 -152.5q-86 0 -134 65.5t-48 165.5zM391 809q0 -102 72 -102q66 0 124 110.5t86.5 231t28.5 188.5q0 55 -20 78.5t-49 23.5q-84 0 -163 -198.5t-79 -331.5zM414 0l1132 1356h72 l-1131 -1356h-73zM1221 205q0 203 111.5 341t223.5 138q76 0 126.5 -65.5t50.5 -178.5q0 -162 -102.5 -314.5t-227.5 -152.5q-86 0 -134 66t-48 166zM1321 115q0 -102 72 -103q66 0 124 110.5t86.5 231.5t28.5 189q0 55 -20.5 78.5t-48.5 23.5q-84 0 -163 -198.5t-79 -331.5 z" />
<glyph unicode="&#x26;" horiz-adv-x="1748" d="M201 494q0 166 110 264q74 66 203 84q-47 100 -47 178q0 145 120 252.5t261 107.5q102 0 172 -57t70 -137q0 -59 -33 -111.5t-72 -52.5q-18 0 -18 20q0 8 10 31q16 37 16 78q0 66 -52 100.5t-118 34.5q-109 0 -205 -90t-96 -211q0 -25 4 -53.5t21.5 -61t46.5 -32.5 q137 0 137 -80q0 -18 -13 -37t-42 -19q-33 0 -70 33q-8 4 -20 17q-37 37 -90 36q-63 0 -120 -63t-57 -150q0 -72 39 -150.5t110 -149t185.5 -116.5t249.5 -46q233 0 398 117.5t165 277.5q0 109 -81.5 187.5t-221.5 78.5q-115 0 -203 -61.5t-88 -155.5q0 -59 33 -93t66 -34 q39 0 39 41q0 59 4 70q2 8 8 20t24.5 26.5t45.5 14.5q35 0 61.5 -24.5t26.5 -69.5q0 -61 -43 -103.5t-113 -42.5q-80 0 -139.5 56.5t-59.5 142.5q0 74 41 145.5t111 112.5t142.5 53.5t183.5 14.5q55 0 84.5 2t95 9t105.5 23.5t86 44t68.5 74.5t22.5 111q0 84 -49 135 t-122.5 51t-73.5 -43q0 -16 16 -39q23 -31 23 -65q0 -37 -28 -64.5t-71 -27.5q-55 0 -77.5 33.5t-22.5 72.5q0 72 69.5 124t165.5 52q109 0 177.5 -77.5t68.5 -186.5q0 -100 -56 -183t-138 -118q-98 -43 -277 -45v-4q158 -111 158 -289q0 -113 -72 -221.5t-186 -179.5 q-160 -100 -416 -101q-315 0 -500 172q-154 145 -153 347z" />
<glyph unicode="'" horiz-adv-x="448" d="M334 797l31 295q6 70 13 108.5t22.5 86.5t46 70.5t75.5 22.5q78 0 78 -71q0 -37 -84 -217l-139 -295h-43z" />
<glyph unicode="(" horiz-adv-x="618" d="M219 125q0 221 54.5 419.5t149.5 351.5t207.5 269.5t243.5 202.5l21 -25q-147 -121 -260 -275.5t-174.5 -293.5t-99 -291.5t-49 -257t-11.5 -200.5q0 -133 25.5 -274.5t56.5 -221.5l-27 -18q-137 266 -137 614z" />
<glyph unicode=")" horiz-adv-x="618" d="M-152 -463q147 121 260 275.5t174.5 294t99.5 291t49 256t11 200.5q0 133 -25.5 275.5t-56.5 222.5l27 16q25 -47 51.5 -115.5t56 -211t29.5 -285.5q0 -221 -54 -420t-149.5 -352.5t-207 -269t-244.5 -203.5z" />
<glyph unicode="*" horiz-adv-x="937" d="M252 877q0 39 32.5 65.5t92.5 26.5q29 0 59 -6q59 -8 109 -9q45 0 71 7q-78 72 -151 106q-33 18 -50.5 28.5t-40 39t-22.5 59.5q0 33 22.5 52.5t51.5 19.5q39 0 67.5 -32t41.5 -63q12 -18 22 -49q14 -31 25 -47q2 -4 12 -22.5t12 -22.5q0 -2 3 -6t5 -8q8 -16 21 -35 q12 98 12 141q0 125 4 144q23 78 84 77q29 0 52.5 -25.5t23.5 -57.5q0 -43 -51 -111q-2 -2 -13.5 -18.5t-13.5 -18.5q-41 -61 -71 -139q68 20 155 76q92 57 137 57q37 0 60.5 -21.5t23.5 -50.5q0 -35 -29.5 -63.5t-86.5 -28.5q-6 0 -29 3t-33 3q-31 4 -90 4q-53 0 -102 -8 q18 -18 42.5 -34.5t39 -24.5t16.5 -8l51 -29q121 -61 121 -135q0 -37 -22.5 -54.5t-47.5 -17.5q-76 0 -135 133q-61 125 -82 152h-4q0 -8 -4 -17q-12 -70 -12 -123q0 -29 4 -79q4 -68 -24.5 -102t-65.5 -34q-31 0 -52.5 22.5t-21.5 59.5q0 45 39 95q0 2 9 14t11 14 q59 82 91 158q-80 -23 -179 -90q-63 -41 -100 -41q-33 0 -61.5 19.5t-28.5 54.5z" />
<glyph unicode="+" horiz-adv-x="1366" d="M238 602v107h487v487h106v-487h488v-107h-488v-487h-106v487h-487z" />
<glyph unicode="," d="M0 -326q143 23 221 93q43 39 68.5 88t25.5 79q0 45 -39 46q-4 0 -22 -2.5t-21 -2.5q-14 0 -32.5 5.5t-40 30t-21.5 63.5q0 57 33 83.5t74 26.5q68 0 101.5 -54t33.5 -128q0 -131 -101.5 -243t-279.5 -124v39z" />
<glyph unicode="-" horiz-adv-x="681" d="M135 475l45 82h492l-47 -82h-490z" />
<glyph unicode="." d="M139 78q0 45 31 75.5t76 30.5t75.5 -30.5t30.5 -75.5t-31.5 -76t-74.5 -31t-75 32t-32 75z" />
<glyph unicode="/" horiz-adv-x="1067" d="M219 -33l699 1413h120l-698 -1413h-121z" />
<glyph unicode="0" horiz-adv-x="1024" d="M213 369q0 231 88 460.5t229.5 374t284.5 144.5q109 0 171.5 -115t62.5 -279q0 -55 -6.5 -130.5t-56.5 -249t-138 -310.5q-78 -121 -192.5 -207t-200.5 -86q-117 0 -179.5 118t-62.5 280zM332 211q0 -201 117 -201q100 0 215.5 190.5t190.5 451.5t75 464 q0 193 -112.5 193t-230.5 -205t-186.5 -461t-68.5 -432z" />
<glyph unicode="1" horiz-adv-x="1024" d="M182 0l15 45h55q63 0 78.5 2t29.5 14q23 25 50 121l254 838q27 96 26 108q0 72 -127 72h-59l12 43q238 0 330 105h55l-354 -1174q-23 -72 -23 -88q0 -29 22.5 -35t76.5 -6h69l-14 -45h-496z" />
<glyph unicode="2" horiz-adv-x="1024" d="M96 0q2 53 14.5 74.5t75.5 79.5q90 84 256 245q90 88 129 128t112 123t106.5 140.5t62.5 135.5t29 151q0 86 -57.5 153.5t-159.5 67.5q-92 0 -158 -55t-66 -135q0 -86 58 -133q10 -6 10 -14q0 -14 -42 -46t-63 -32q-31 0 -52 49t-21 106q0 115 98 212.5t270 97.5t250 -87 t78 -198q0 -59 -12.5 -110.5t-50 -110t-68.5 -99.5t-112 -116.5t-132 -120.5t-174 -150q-70 -57 -172 -153q-14 -14 -51 -47t-43 -39h602l-57 -189h-31q2 51 -20.5 61.5t-104.5 10.5h-504z" />
<glyph unicode="3" horiz-adv-x="1024" d="M55 127q0 33 18.5 51.5t45.5 18.5q47 0 90 -80q55 -102 149 -103q96 0 172 61.5t117 150.5t62.5 170t21.5 134q0 74 -36 126.5t-105 52.5q-63 0 -152 -72q-41 -31 -57 -31q-29 0 -29 27q0 14 14.5 26.5t69.5 42.5q8 4 41 22.5t62.5 35t38.5 20.5q297 150 296 353 q0 170 -208 170q-102 0 -155.5 -59.5t-53.5 -129.5q0 -37 24 -80q6 -6 6 -16q0 -14 -31.5 -39t-47.5 -25q-20 0 -41 37t-21 88q0 115 97.5 192t258.5 77q147 0 228.5 -61.5t81.5 -151.5q0 -61 -30 -115.5t-88 -100t-100 -70t-108 -58.5q-49 -25 -78 -41v-5 q115 0 187.5 -73.5t72.5 -198.5q0 -190 -153.5 -347t-366.5 -157q-106 0 -199.5 44t-93.5 114z" />
<glyph unicode="4" horiz-adv-x="1024" d="M193 455l18 65l768 828h65l-251 -828h65q47 0 62.5 9.5t44.5 56.5l6 8h41l-43 -139h-197l-84 -281q-23 -72 -22 -88q0 -29 23.5 -35t76.5 -6h39l-14 -45h-431l13 45q82 0 98 2t31 14q18 17 49 119l82 275h-440zM274 520h379l187 606l-4 4z" />
<glyph unicode="5" horiz-adv-x="1024" d="M106 150q0 25 16.5 44t47.5 19q29 0 51.5 -19.5t31.5 -39t23 -54.5q18 -49 48 -67.5t82 -18.5q106 0 201 107.5t146.5 249t51.5 262.5q0 41 -9.5 83t-50 88t-110.5 46q-139 0 -246 -168h-45l223 633h529q-37 -88 -60.5 -106.5t-77.5 -18.5h-389l-133 -381l4 -4 q84 90 211 90q115 0 201 -93t86 -251q0 -225 -161 -403.5t-394 -178.5q-135 0 -206 60.5t-71 120.5z" />
<glyph unicode="6" horiz-adv-x="1024" d="M219 406q0 207 97.5 425t267.5 367.5t354 149.5q72 0 126 -19.5t79.5 -47.5t38 -49.5t12.5 -35.5q0 -20 -16.5 -40.5t-44.5 -20.5q-49 0 -70 47l-14 26q-51 94 -134 95q-88 0 -175 -76t-148.5 -182.5t-98.5 -183.5t-49 -118l5 -4q98 113 233 113q137 0 226 -106.5 t89 -268.5q0 -211 -138 -359.5t-310 -148.5q-129 0 -229.5 107.5t-100.5 329.5zM326 262q0 -123 64.5 -185.5t146.5 -62.5q86 0 155.5 75t106.5 180.5t55 196.5t18 144q0 61 -21.5 103.5t-54 61t-61 25.5t-55.5 7q-176 0 -279 -215q-75 -160 -75 -330z" />
<glyph unicode="7" horiz-adv-x="1024" d="M252 25q0 27 39 86q4 4 37 53l669 1026h-383q-119 0 -153.5 -16.5t-65.5 -98.5q0 -2 -2 -7t-4 -7h-45l111 317h43q-4 -16 -4 -26q-1 -27 26 -33q16 -4 111 -4h471v-25l-592 -1083q-88 -162 -121 -200t-72 -38q-66 0 -65 56z" />
<glyph unicode="8" horiz-adv-x="1024" d="M156 291q0 23 4 52.5t27.5 90t63.5 108.5t124.5 94t199.5 62v4q-168 76 -167 263q0 145 113.5 264t281.5 119q127 0 201.5 -84t74.5 -193q0 -49 -16 -105.5t-53 -117t-111 -106.5t-172 -58v-4q100 -31 154.5 -112t54.5 -181q0 -162 -126 -290t-314 -128 q-145 0 -242.5 93.5t-97.5 228.5zM289 207q0 -193 196 -193q61 0 112.5 28t83.5 69t56.5 95t36.5 103t19.5 96.5t9.5 70t2 28.5q0 20 -7 43.5t-24.5 52.5t-58.5 46.5t-99 17.5q-141 0 -221 -127q-41 -66 -73.5 -170.5t-32.5 -159.5zM537 877q0 -55 16 -93q37 -76 125 -75 q70 0 126 57t86 137t45 146.5t15 103.5q0 49 -17.5 82t-44 46t-45 17.5t-34.5 4.5q-72 0 -128 -57.5t-86 -136.5t-44 -141t-14 -91z" />
<glyph unicode="9" horiz-adv-x="1024" d="M156 115q0 35 21.5 54t47.5 19q25 0 44.5 -18t25.5 -32.5t16 -41.5q27 -82 99 -82q33 0 60.5 10.5t72.5 54.5t94 124q98 166 172 377l-4 4q-100 -113 -230 -113q-135 0 -217 109.5t-82 265.5q0 211 134.5 356.5t300.5 145.5q53 0 105 -19.5t102.5 -63.5t81 -129 t30.5 -202q0 -127 -46 -289t-127 -314.5t-210 -257t-272 -104.5q-113 0 -166 48.5t-53 97.5zM401 692q0 -84 50.5 -130t130.5 -46q109 0 189.5 93t116.5 212t36 232q0 117 -55.5 183.5t-139.5 66.5t-151.5 -72t-103.5 -175.5t-54.5 -199.5t-18.5 -164z" />
<glyph unicode=":" d="M139 78q0 45 31 75.5t76 30.5t75.5 -30.5t30.5 -75.5t-31.5 -76t-74.5 -31t-75 32t-32 75zM301 741q0 45 30.5 76t76 31t76 -31t30.5 -76t-31.5 -75.5t-74.5 -30.5t-75 31.5t-32 74.5z" />
<glyph unicode=";" d="M0 -326q143 23 221 93q43 39 68.5 88t25.5 79q0 45 -39 46q-4 0 -22 -2.5t-21 -2.5q-14 0 -32.5 5.5t-40 30t-21.5 63.5q0 57 33 83.5t74 26.5q68 0 101.5 -54t33.5 -128q0 -131 -101.5 -243t-279.5 -124v39zM301 741q0 45 30.5 76t76 31t76 -31t30.5 -76t-31.5 -75.5 t-74.5 -30.5t-75 31.5t-32 74.5z" />
<glyph unicode="&#x3c;" horiz-adv-x="1366" d="M240 612v97l1079 454v-116l-936 -388l936 -387v-116z" />
<glyph unicode="=" horiz-adv-x="1366" d="M238 369v106h1081v-106h-1081zM238 836v106h1081v-106h-1081z" />
<glyph unicode="&#x3e;" horiz-adv-x="1366" d="M240 156v116l934 385l-934 387v119l1079 -456v-97z" />
<glyph unicode="?" horiz-adv-x="704" d="M111 78q0 45 30.5 75.5t75.5 30.5t76 -30.5t31 -75.5t-32 -76t-75 -31t-74.5 32t-31.5 75zM272 391l111 369h31q10 -80 63 -80q82 0 143.5 158.5t61.5 308.5q0 55 -17.5 94t-43 54.5t-43 20.5t-31.5 5q-43 0 -72 -35q0 -2 -8 -13t-10 -13q-33 -43 -68 -43q-49 0 -49 47 q0 41 55.5 73.5t124.5 32.5q113 0 197 -97t84 -241q0 -164 -91.5 -280.5t-215.5 -116.5q-52 0 -97 20l-80 -264h-45z" />
<glyph unicode="@" horiz-adv-x="1878" d="M96 401q0 418 278.5 698.5t667.5 280.5q176 0 316.5 -58t225.5 -155.5t130 -218.5t45 -254q0 -119 -36.5 -240.5t-103.5 -227t-175.5 -172t-237.5 -66.5q-154 0 -153 139q0 57 18 141l-4 4q-227 -285 -389 -284q-88 0 -135 73.5t-47 159.5q0 150 89 317t219 275.5 t243 108.5q139 0 170 -140h4l30 111l158 22l-117 -399q-2 -6 -5 -17.5t-8 -30.5t-9 -34q-6 -20 -15.5 -53t-15.5 -52.5t-8 -27.5q-33 -109 -33 -164q0 -25 17.5 -50.5t58.5 -25.5q147 0 285.5 194t138.5 456q0 266 -180.5 441t-468.5 175q-193 0 -357 -83t-271.5 -218 t-167.5 -305t-60 -346q0 -356 220 -577.5t562 -221.5q156 0 297 48t281.5 177t224.5 328h57q-63 -199 -203.5 -341t-310.5 -207.5t-352 -65.5q-373 0 -623 249.5t-250 636.5zM653 252q0 -57 33 -100t84 -43q139 0 303 247q43 66 76 182.5t33 188.5q0 66 -34 108t-91 42 q-90 0 -187.5 -122t-157 -268.5t-59.5 -234.5z" />
<glyph unicode="A" horiz-adv-x="1173" d="M-92 0l14 45q57 4 100.5 21.5t87.5 65.5t71.5 85t88.5 131l691 1032h69l-45 -1099q-2 -8 -6 -84v-20q1 -68 25 -95q28 -31 139 -37l-15 -45h-532l14 45q72 4 109 12.5t57.5 44t24.5 68.5t8 125l10 219h-387l-123 -190q-2 -2 -5 -6.5t-6 -11.5t-7 -11q-70 -102 -70 -145 q0 -27 10.5 -46.5t22.5 -30t40 -16.5t46 -8t57 -4l-14 -45h-475zM463 559h358l27 576l-4 4z" />
<glyph unicode="B" horiz-adv-x="1216" d="M-8 0l14 45h37q147 0 184 127q2 6 12.5 40t12.5 38l262 862q29 94 29 127q0 72 -129 72h-27l12 45h437q78 0 125 -3t120.5 -28t124.5 -74q82 -76 82 -188q0 -147 -119.5 -233.5t-298.5 -112.5v-4q154 -31 233 -116t79 -196q0 -102 -62.5 -196t-177.5 -146 q-82 -37 -176 -48t-309 -11h-465zM401 135q0 -90 199 -90q244 0 344 197q53 104 53 223q0 150 -114 201q-64 28 -201 28h-10h-107l-145 -475q-18 -57 -19 -84zM580 739h102q197 0 293 74q135 102 135 285q0 90 -57 151q-39 41 -85.5 51.5t-140.5 10.5h-73z" />
<glyph unicode="C" horiz-adv-x="1236" d="M203 491.5q0 204.5 101.5 409.5t278.5 342t373 137q240 0 334 -213q49 84 68 156h43l-88 -393h-43q3 33 3 64q0 144 -70 236q-85 110 -224 111q-129 0 -235.5 -79.5t-170 -194.5t-107.5 -250t-61.5 -236.5t-17.5 -160.5q0 -172 81 -286t226 -114q147 0 262 110t193 280 q0 12 6 12h45l-137 -438h-43q0 53 -8 135q-147 -143 -336 -144q-215 0 -344 156t-129 360.5z" />
<glyph unicode="D" horiz-adv-x="1386" d="M-37 0l12 45h58q152 0 186 127q2 6 12.5 40t12.5 38l260 862q31 100 31 127q0 72 -129 72h-52l15 45h96q18 0 207 4q41 0 91 3t73 3q274 0 432 -145q84 -78 126 -202t42 -243q0 -51 -11.5 -115.5t-43 -167t-113.5 -205.5t-201 -177q-84 -51 -181.5 -77t-170 -30 t-207.5 -4h-545zM395 139q0 -94 207 -94q342 0 518 313q68 117 99.5 248t31.5 228q0 240 -131 383q-96 104 -295 104q-54 0 -77 -2l-324 -1063q-29 -100 -29 -117z" />
<glyph unicode="E" horiz-adv-x="1259" d="M16 0l15 45h28q55 0 90 11.5t57.5 44t33 59t28.5 90.5l262 862q31 100 31 127q0 72 -129 72h-39l13 45h968l4 -305h-43q-37 152 -114 217q-35 31 -86.5 37t-188.5 6h-174l-176 -582h98q68 0 102.5 4t84 23.5t87.5 66.5t72 127h47l-161 -530h-47q12 57 12 100 q0 113 -40 138.5t-157 25.5h-112l-127 -420q-31 -98 -31 -123q0 -33 16.5 -53t49 -28.5t63.5 -11.5t80 -3h82q211 0 319.5 74t177.5 225h45l-104 -344h-1137z" />
<glyph unicode="F" horiz-adv-x="1110" d="M16 0l15 45q53 0 88 8t56.5 19.5t38.5 43t25.5 54.5t24.5 80l248 862q27 92 27 125q0 74 -129 74h-29l12 45h950l7 -305h-43q-25 131 -97 204q-37 39 -78.5 47.5t-164.5 8.5h-219l-168 -586h106q137 0 222 44t132 179h47l-155 -547h-49q18 68 18 119q0 45 -12 77 t-29.5 48.5t-52.5 24.5t-61.5 9t-77.5 1h-103l-119 -420q-27 -92 -26 -119q0 -41 32.5 -64.5t59.5 -27.5t49 -4h33l-14 -45h-564z" />
<glyph unicode="G" horiz-adv-x="1300" d="M180 504q0 145 56.5 298.5t153.5 282.5t244.5 212t313.5 83q238 0 352 -176l66 125h41l-82 -407h-41q0 6 1 33.5t1 43.5q0 135 -47 205q-86 131 -268 131q-115 0 -213.5 -56t-163 -148.5t-114.5 -198t-76.5 -214t-40 -188t-13.5 -129.5q0 -190 82 -282q90 -98 236 -99 q248 0 333 279l15 45q23 72 22 102q0 72 -129 72h-37l13 45h495l-14 -43h-11q-73 0 -95 -24q-25 -27 -56 -131l-92 -304q-63 63 -90 64q-8 0 -25 -10q-168 -139 -358 -140q-197 0 -328 139.5t-131 389.5z" />
<glyph unicode="H" horiz-adv-x="1536" d="M20 0l15 45q160 0 196 127q2 4 12.5 38t10.5 40l262 862q31 104 31 127q0 72 -148 72l15 45h512l-15 -45q-109 0 -143.5 -40t-79.5 -186l-106 -350h647l114 377q31 98 31 127q0 72 -139 72l14 45h488l-13 -45q-100 0 -132.5 -40t-75.5 -179l-252 -832q-29 -92 -29 -119 q0 -96 154 -96l-15 -45h-532l12 45q115 0 153.5 45t75.5 168l129 422h-647l-127 -420q-31 -98 -30 -119q0 -96 147 -96l-14 -45h-521z" />
<glyph unicode="I" horiz-adv-x="704" d="M29 0l14 45h31q150 0 184 127q2 6 12.5 40t12.5 38l260 862q31 100 30 127q0 72 -129 72h-34l14 45h532l-14 -45q-61 0 -94 -6.5t-57.5 -37t-37 -62t-36.5 -113.5l-252 -832q-29 -92 -29 -119q0 -41 33 -64.5t58 -27.5t48 -4h39l-14 -45h-571z" />
<glyph unicode="J" horiz-adv-x="966" d="M-225 -264q0 45 23.5 71.5t56 26.5t56 -25.5t23.5 -68.5q0 -6 -2 -32.5t-2 -31.5q0 -49 44 -81.5t114 -32.5q78 0 138.5 40t110.5 130t86 188t83 262q10 45 41 142q8 23 53 158.5t66 193.5h-248l14 45h250q47 131 123 289.5t123 216.5l-4 4q-141 -53 -297 -53 q-49 0 -140 8q-4 2 -29.5 4t-29.5 4q-24 3 -46 3q-128 0 -177 -101h-45q23 100 99.5 188t193.5 88q74 0 182 -65q104 -63 162 -64q92 0 159 68q4 2 27 24q37 37 61 37q37 0 37 -34.5t-65 -92.5q-2 -2 -11.5 -10t-11.5 -10t-9 -8.5t-8 -8.5t-6 -7t-7 -8t-5.5 -9t-6.5 -11.5 t-5 -11.5t-6 -14q-47 -115 -98 -348q-2 -6 -10.5 -39t-8.5 -39h172l-14 -45h-168q-4 -16 -25 -111q-31 -147 -53 -243.5t-58 -218t-71 -198.5t-87 -158t-112.5 -126t-142.5 -74.5t-178 -29.5q-156 0 -233.5 70.5t-77.5 148.5z" />
<glyph unicode="K" horiz-adv-x="1193" d="M18 0l15 45q57 0 94 12.5t60.5 46t34.5 62.5t32 92l260 854q31 100 31 127q0 72 -129 72h-39l14 45h529l-15 -45q-106 0 -141 -42.5t-78 -183.5l-117 -378l4 -5q35 47 95 109q262 279 379 377q220 192 355 192h1q49 0 86 -27.5t37 -76.5q0 -37 -23.5 -57.5t-52.5 -20.5 q-51 0 -64 55q-4 18 -9 27.5t-17 18t-33 8.5q-47 0 -119 -45q-33 -20 -67.5 -47t-61 -48.5t-64.5 -57.5t-57.5 -53.5t-61.5 -60.5t-53.5 -55t-55.5 -59t-48 -52q-16 -18 -63 -68t-62 -67l4 -4q55 18 89 19q121 0 191.5 -93.5t70.5 -253.5q0 -35 -11 -143q-4 -41 -4 -55 q0 -94 80 -94q55 0 101 55h49q-18 -35 -34.5 -58.5t-67 -52t-119.5 -28.5q-63 0 -107.5 22.5t-63 57t-24.5 60.5t-6 46q0 49 29 180q18 78 18 144q0 90 -43 129t-98 39q-74 0 -109 -55.5t-74 -184.5l-49 -164q-29 -92 -28 -121q0 -94 155 -94l-14 -45h-531z" />
<glyph unicode="L" horiz-adv-x="1110" d="M2 0l14 45h31q147 0 186 127q0 4 10.5 38t12.5 40l262 862q31 104 31 127q0 72 -129 72h-29l15 45h555l-15 -45h-37q-57 0 -90 -8.5t-57.5 -42t-35.5 -64.5t-36 -111l-252 -829q0 -2 -3 -10t-5 -15q-20 -72 -20 -94q0 -16 4 -30.5t13 -23.5t18.5 -16.5t25.5 -11.5 t27.5 -6t31 -3t29.5 -1h29.5h25.5h68q205 0 315 98q100 92 148 197h43l-113 -340h-1073z" />
<glyph unicode="M" horiz-adv-x="1792" d="M-47 0l14 45q63 2 104.5 19.5t78 73t58 103.5t68.5 171l259 665q43 113 43 150q0 51 -33 67.5t-92 16.5h-17.5h-25h-15.5l13 45h317l141 -1147l785 1147h338l-13 -45q-70 0 -103.5 -5.5t-59 -33t-35 -58t-27.5 -110.5l-209 -844q-23 -90 -22 -115q0 -33 18 -54t46 -30.5 t46.5 -12.5t34.5 -3h31l-15 -45h-567l14 45q125 0 164 42t70 171l237 942l-4 4l-823 -1204h-49l-133 1104h-4l-267 -705q-70 -186 -69 -227q0 -43 15.5 -70.5t46 -39t51 -13.5t59.5 -4l-14 -45h-455z" />
<glyph unicode="N" horiz-adv-x="1314" d="M-72 51q0 53 22.5 78t55.5 25q29 0 51.5 -20.5t22.5 -55.5q0 -25 -19 -60q-10 -20 -10 -32q0 -37 55 -37q106 0 187 153q47 90 172 572l104 428q2 12 7.5 31.5t7.5 27.5q12 49 12 64q0 78 -135 84q-16 0 -28.5 1t-17.5 1h-12l13 45h313l346 -1057h4l80 344 q108 469 176 596q74 135 178 135q55 0 84 -26.5t29 -63.5q0 -35 -23.5 -55.5t-54.5 -20.5q-37 0 -67 47q-18 29 -41 29q-45 0 -94.5 -133t-145.5 -533l-151 -630h-48l-374 1147h-4l-119 -492q-33 -135 -54.5 -215t-51 -177t-57.5 -150.5t-64.5 -103.5t-79.5 -71.5t-97 -21.5 q-74 0 -123 42t-49 105z" />
<glyph unicode="O" horiz-adv-x="1343" d="M219 518q0 184 97.5 383t269.5 339t358 140t311 -146.5t125 -387.5q0 -209 -100 -412t-266 -331t-340 -128q-82 0 -158 29t-144.5 89.5t-110.5 170t-42 254.5zM397 418q0 -188 54 -275q76 -123 219 -123q129 0 237.5 111t171 268.5t97 311t34.5 260.5q0 180 -74.5 272 t-193.5 92q-125 0 -232.5 -103.5t-173 -252t-102.5 -299.5t-37 -262z" />
<glyph unicode="P" horiz-adv-x="1110" d="M29 0l12 45q152 0 188 127q0 4 10.5 38t12.5 40l262 862q31 100 31 127q0 72 -129 72h-47l14 45h377q106 0 155.5 -2t112 -16.5t113.5 -43.5q82 -47 119.5 -117.5t37.5 -142.5q0 -90 -52 -175t-144 -130q-142 -70 -447 -70h-98l-119 -399q-29 -94 -28 -119 q0 -41 32.5 -64.5t58 -27.5t48.5 -4h33l-15 -45h-538zM571 705h60q82 0 129 3t116.5 25.5t116.5 67.5q121 113 121 270q0 102 -61 174q-27 31 -70 46.5t-76.5 17.5t-103.5 2h-47z" />
<glyph unicode="Q" horiz-adv-x="1343" d="M219 508q0 197 100.5 398.5t271.5 337.5t355 136t309 -146.5t125 -387.5q0 -285 -176 -539t-411 -315l-246 -101l4 -4q13 1 26 1q162 0 398 -89q133 -49 189.5 -68.5t130 -34.5t145.5 -15q199 0 303 145h59q-131 -322 -413 -322q-170 0 -379 154q-74 55 -128.5 89 t-150.5 68.5t-188 34.5q-88 0 -183 -75q-39 -31 -61 -31q-37 0 -37 33q0 35 78 67q6 4 28.5 12.5t55.5 22.5q96 41 100 43l103 43q20 8 24 8v4q-201 10 -316.5 157t-115.5 374zM397 418q0 -184 56 -275q76 -123 219 -123q127 0 235.5 111t171 268.5t97 311t34.5 260.5 q0 180 -74.5 272t-193.5 92q-125 0 -232.5 -103.5t-173 -252t-102.5 -299.5t-37 -262z" />
<glyph unicode="R" horiz-adv-x="1280" d="M10 0l15 45q35 0 56 2t55 13.5t58.5 39t36.5 72.5q2 6 12.5 40t12.5 38l262 862q31 100 31 127q-1 72 -148 72l15 45h354q160 0 230.5 -9.5t142.5 -48.5q158 -86 157 -258q0 -213 -210 -309q-121 -53 -322 -59v-4q90 -33 147.5 -80t81 -109.5t29.5 -102.5t10 -108 q2 -51 4 -71.5t8.5 -55.5t16.5 -48t29.5 -24.5t48.5 -11.5q53 0 129 56l22 -47q-109 -82 -227 -82q-55 0 -97 14t-65.5 43t-39 56.5t-21.5 67.5t-7 60.5t-1 50.5q0 238 -33 299q-37 76 -197 76h-49l-121 -391q0 -6 -6 -18q-25 -86 -24 -101q0 -31 17 -52t43 -29.5t45 -11.5 t34 -3h28l-14 -45h-549zM569 696q21 -1 40 -1q162 0 278 44q235 86 235 326q0 176 -153 225q-62 22 -164 22q-23 0 -47 -1z" />
<glyph unicode="S" horiz-adv-x="960" d="M98 16l49 439h41q6 -166 68 -275q33 -57 102.5 -105t159.5 -48q98 0 181 68.5t83 185.5q0 63 -28.5 120.5t-54 86t-76.5 77.5q-68 63 -99.5 96t-73.5 88.5t-59.5 112t-17.5 121.5q0 154 111.5 275.5t256.5 121.5q170 0 256 -172q35 55 62 148h41l-53 -398h-46 q-2 117 -30.5 198t-73.5 117t-83 49t-77 13q-98 0 -164.5 -77.5t-66.5 -186.5q0 -47 11 -85t46 -81t61.5 -68.5t90.5 -84.5q70 -66 106.5 -107t71.5 -116.5t35 -159.5q0 -184 -129 -288t-271 -104q-184 0 -313 177q-47 -61 -68 -138h-49z" />
<glyph unicode="T" horiz-adv-x="1343" d="M254 1157q0 80 90 139q88 59 320 60q53 0 163 -6q72 -4 244 -17q53 -4 141.5 -9t90.5 -5q131 -8 155 -8q51 0 80 10t35 21.5t12 33.5q10 35 41 35q47 0 47 -53q0 -109 -231 -109q-31 0 -158 8q-39 2 -188 13l-308 -1010q-29 -92 -28 -119q0 -41 33.5 -64.5t59.5 -27.5 t48 -4h35l-14 -45h-580l14 45h31q57 0 94 12.5t60.5 46t36 62.5t30.5 92l312 1024q-94 8 -142 10q-23 2 -139 2q-252 0 -252 -82q0 -16 10.5 -44.5t10.5 -41.5q0 -27 -19.5 -46t-52.5 -19q-41 0 -61.5 30.5t-20.5 65.5z" />
<glyph unicode="U" horiz-adv-x="1449" d="M258 305q0 61 49 221l178 586q31 104 31 127q0 72 -129 72h-31l15 45h553l-15 -45h-28q-59 0 -92 -8.5t-58.5 -42t-37 -64.5t-36.5 -111l-174 -575q-55 -182 -55 -236q0 -125 96.5 -187t218.5 -62q199 0 330 131q80 80 150 311l172 567q43 141 43 168q0 47 -39 72 t-133 37l14 45h432l-14 -45q-94 -2 -148.5 -48t-83.5 -147l-198 -655q0 -2 -2 -7t-5.5 -14.5t-5.5 -15.5q-14 -51 -26 -84t-40 -93.5t-66 -101.5t-92 -84t-133 -64.5t-175 -21.5q-190 0 -307 62q-158 82 -158 268z" />
<glyph unicode="V" horiz-adv-x="1216" d="M332 1311l6 45h545l-6 -45q-70 0 -111 -11.5t-59.5 -41t-23.5 -53t-7 -75.5l-47 -915l4 -4l567 852q4 4 10 16q62 93 62 134t-31 63t-59.5 27.5t-77.5 7.5l12 45h440l-14 -45q-47 -2 -85 -20.5t-79 -62.5t-63.5 -76t-75.5 -110l-719 -1075h-80l68 1170q0 6 2 33.5t2 31.5 q0 66 -38 87.5t-142 21.5z" />
<glyph unicode="W" horiz-adv-x="1898" d="M307 1311l12 45h486l-14 -45q-111 -4 -135.5 -34t-30.5 -153l-50 -886l5 -5l741 1123h49l-29 -1123l5 -4l520 818q51 78 62 103.5t11 53.5q0 39 -25.5 63.5t-50 31t-67.5 12.5l12 45h410l-14 -45q-37 -2 -61.5 -10.5t-76 -52.5t-104.5 -128l-733 -1153h-62l27 1112l-4 4 l-737 -1116h-60l62 1168v69q0 55 -30 80t-118 27z" />
<glyph unicode="X" horiz-adv-x="1323" d="M-8 0l14 45q76 10 156 69.5t219 198.5l348 351l-135 487q0 2 -2 6t-3 10.5t-3 10.5q-25 92 -50.5 112.5t-127.5 20.5l6 45h491l-4 -45q-31 0 -49 -1t-46 -8.5t-41 -23.5t-13 -43q0 -16 24 -109l92 -327l289 286q92 92 92 142q0 72 -135 84l12 45h424l-14 -45 q-70 -4 -123.5 -44.5t-198.5 -185.5l-331 -331l147 -519l4 -14q4 -12 8.5 -27.5t6.5 -19.5q18 -70 54 -96.5t142 -28.5l-10 -45h-530l12 45q33 0 51 1t48 8t44 24.5t14 44.5q0 2 -24 108l-109 381l-319 -315q-96 -96 -96 -158q0 -84 157 -94l-14 -45h-477z" />
<glyph unicode="Y" horiz-adv-x="1130" d="M141 0l15 45h61q57 0 94 12.5t60.5 46t35 62.5t31.5 92q143 471 144 797q0 237 -69 237h-1q-53 0 -130 -126t-106 -216h-45q31 80 73 166t120 175t151 89q66 0 114 -80.5t48 -238.5q0 -203 -59 -459l4 -4q14 39 50 114.5t102.5 195.5t135 221.5t153.5 176t155 74.5 q59 0 97 -32.5t38 -83.5q0 -31 -18.5 -54.5t-46.5 -23.5q-20 0 -40 14t-20 51q0 68 -49 68q-55 0 -140 -96.5t-167 -227.5q-88 -141 -152.5 -282.5t-92.5 -223t-73 -229.5q-29 -85 -29 -115.5t17 -52.5q16 -22 43 -31.5t45.5 -12.5t34.5 -3h59l-14 -45h-629z" />
<glyph unicode="Z" horiz-adv-x="1216" d="M53 -12q0 43 86 147q127 152 389 363q190 152 302 244t245 212.5t205 206.5l-4 4q-77 -22 -138 -22h-5q-80 0 -172 18l-76 17q-109 20 -168 20q-100 0 -152.5 -42t-68.5 -89h-50q63 162 166 237.5t195 75.5q47 0 97 -18.5t83 -37.5t100 -62q90 -57 140 -58q80 0 108 88 q0 10 11 31q16 57 53 57q39 0 39 -45q0 -31 -44 -97.5t-80 -109.5t-61 -69q-109 -119 -226.5 -220.5t-465.5 -379.5q-31 -20 -158 -128t-186 -175l4 -4q86 43 170 43q70 0 128.5 -22.5t112.5 -75t86 -92.5t89 -118q37 -51 65.5 -82.5t89 -68.5t125.5 -37q49 0 84 15.5 t53.5 44t25.5 50t16 54.5h45q-27 -166 -109 -253t-198 -87q-106 0 -180 69.5t-158 229.5q-37 72 -60.5 112.5t-65.5 97t-89.5 83t-100.5 26.5q-14 0 -32.5 -3t-52.5 -13t-63.5 -39t-45.5 -72q-27 -67 -63 -67h-1q-20 0 -29.5 15t-9.5 26z" />
<glyph unicode="[" horiz-adv-x="681" d="M82 -434l493 1747h398l-12 -39h-326l-473 -1669h323l-12 -39h-391z" />
<glyph unicode="\" horiz-adv-x="1067" d="M219 1380h121l698 -1413h-120z" />
<glyph unicode="]" horiz-adv-x="681" d="M-190 -434l12 39h325l471 1669h-323l12 39h393l-493 -1747h-397z" />
<glyph unicode="^" horiz-adv-x="874" d="M98 639l428 717h39l428 -717h-114l-334 559l-332 -559h-115z" />
<glyph unicode="_" horiz-adv-x="1024" d="M-14 -154h1050v-102h-1050v102z" />
<glyph unicode="`" horiz-adv-x="681" d="M315 1272q0 27 19.5 43t42.5 16q33 0 58.5 -26.5t62.5 -87.5l143 -226l-20 -16l-224 190q-82 70 -82 107z" />
<glyph unicode="a" horiz-adv-x="854" d="M90 193q0 152 86 308t203 251.5t207 95.5q45 0 78.5 -26.5t42.5 -73.5h4l22 83h121l-178 -585q-39 -123 -39 -154q0 -41 37 -41q66 0 149 146q8 8 8 12h43q-47 -100 -117.5 -169t-127.5 -69q-53 0 -76 38t-23 83q0 39 21 105l-4 4q-39 -74 -123 -152t-164 -78 q-68 0 -119 57.5t-51 164.5zM209 162q0 -133 82 -133q49 0 119 61q88 76 155 219q43 94 78 216t35 169q0 45 -22.5 73t-61.5 28q-84 0 -177 -123t-150.5 -271.5t-57.5 -238.5z" />
<glyph unicode="b" horiz-adv-x="854" d="M123 152q0 57 43 194l244 801q29 104 28 106q0 20 -12 30.5t-25.5 12.5t-42.5 2h-32l12 41q152 2 225 33q12 4 35 4l-219 -721l4 -4q123 197 252 197q94 0 138 -76t44 -158q0 -238 -164 -440.5t-344 -202.5q-80 0 -133 48.5t-53 132.5zM229 109q0 -92 84 -93q80 0 156 80 t125 190.5t78.5 214t29.5 161.5q0 66 -25.5 99.5t-62.5 33.5q-8 0 -22 -3.5t-45 -21.5t-62.5 -49t-72.5 -96.5t-78 -151.5q-33 -78 -69 -196.5t-36 -167.5z" />
<glyph unicode="c" horiz-adv-x="655" d="M94 203q0 156 79 309.5t188.5 244.5t199.5 91q57 0 91 -36t34 -81q0 -37 -17.5 -54.5t-37.5 -17.5q-25 0 -42.5 18.5t-19.5 53.5q0 68 -45 68q-68 0 -143.5 -123t-121.5 -274.5t-46 -245.5q0 -59 30.5 -93t69.5 -34q70 0 137.5 79t102.5 177h41q-55 -158 -144.5 -236 t-177.5 -78q-76 0 -127 58.5t-51 173.5z" />
<glyph unicode="d" horiz-adv-x="854" d="M86 186q0 152 78 308.5t190.5 255t214.5 98.5q86 0 127 -84l121 401q23 72 23 88q0 23 -12.5 32t-30 11t-66.5 2l12 41q141 0 224 33q10 4 34 4l-321 -1054q-4 -20 -15.5 -54.5t-11.5 -38.5q-31 -106 -30 -137q0 -47 36 -47q27 0 68 38t74 91q0 2 2 4t2 4h49 q-49 -86 -115.5 -148.5t-124.5 -62.5q-106 0 -106 127q0 29 4 49l-4 5q-33 -49 -108.5 -115t-149.5 -66q-84 0 -124 65.5t-40 149.5zM201 139q0 -114 77 -114h1q47 0 110 55q104 92 180 280q35 86 67 199t32 141q0 35 -23.5 65t-66.5 30q-84 0 -176.5 -128t-146.5 -282 t-54 -246z" />
<glyph unicode="e" horiz-adv-x="618" d="M80 186q0 152 79 309.5t188.5 255t199.5 97.5q47 0 74.5 -26.5t34 -51.5t6.5 -49q0 -209 -420 -391q-2 0 -9 -2l-4 -4q-30 -85 -30 -161q0 -42 10 -68.5t22.5 -38t30 -18.5t24.5 -8t15 -1q138 0 240 227h49q-55 -129 -141.5 -207t-184.5 -78q-72 0 -128 53.5t-56 161.5z M244 375q123 55 229.5 157.5t106.5 186.5q0 76 -64 76q-55 0 -136 -108.5t-136 -311.5z" />
<glyph unicode="f" horiz-adv-x="512" d="M-422 -342q0 33 20.5 53.5t49.5 20.5q33 0 54.5 -22.5t21.5 -51.5q0 -4 -4.5 -22.5t-4.5 -20.5q0 -18 24.5 -33.5t57.5 -15.5q131 0 213 147.5t176 493.5l152 567h-197l15 45h196q12 41 21 76q16 76 47 150.5t81 153.5t129 128t175 49q88 0 133 -39t45 -75q0 -16 -11 -35 t-38 -19q-18 0 -35.5 11.5t-26 22.5t-24.5 36q-33 49 -78 49q-55 0 -96 -29.5t-73 -93t-51.5 -122t-45.5 -156.5l-29 -107h174l-14 -45h-174l-156 -584q-16 -66 -28.5 -107.5t-39 -119.5t-52 -130t-66.5 -116.5t-86 -103.5t-105.5 -65.5t-128.5 -26.5q-78 0 -149.5 36.5 t-71.5 100.5z" />
<glyph unicode="g" horiz-adv-x="724" d="M-117 -281q0 66 49.5 110t81.5 44q35 0 35 -27q0 -14 -31 -47q-34 -34 -34 -76q0 -12 3 -26t18 -41t41 -47.5t80 -35.5t128 -15q156 0 225.5 52t69.5 114q0 43 -41 75.5t-83 45t-120 30.5l-78 19q-190 45 -190 147q0 61 62.5 118.5t181.5 80.5q-129 72 -129 231 q0 143 103 259t237 116q80 0 139 -53q70 55 112 55q31 0 56.5 -18.5t25.5 -53.5q0 -18 -13 -33.5t-34 -15.5q-25 0 -51 35q-16 25 -31 24q-10 0 -21 -11t-13 -17q39 -66 38 -156q0 -152 -89 -260.5t-259 -130.5q-215 -29 -215 -117q0 -35 29 -50t98 -32q258 -61 293 -78 q14 -8 33 -20q74 -49 74 -145q0 -100 -101.5 -178t-300.5 -78q-168 0 -273.5 55t-105.5 151zM258 381q0 -57 33 -90t80 -33q57 0 104 53.5t70.5 127t36 135t12.5 94.5q0 139 -96 139q-94 0 -167 -153.5t-73 -272.5z" />
<glyph unicode="h" horiz-adv-x="854" d="M41 -14l350 1153q31 98 31 114q0 20 -12.5 30.5t-25.5 12.5t-42 2h-33l13 41q152 4 225 33q12 4 35 4l-226 -743l4 -4q172 219 324 219q66 0 100.5 -31t34.5 -84q0 -33 -31 -123l-118 -342q-2 -2 -6 -16q-4 -10 -12.5 -32.5t-8.5 -26.5q-25 -63 -25 -95q0 -53 39 -53 q45 0 90.5 52.5t69.5 101.5h49q-51 -102 -121.5 -165t-132.5 -63q-45 0 -78.5 33t-33.5 92.5t55 212.5l86 232q59 152 59 198q0 51 -57 52q-43 0 -99.5 -34t-99.5 -83q-106 -123 -184 -357q-18 -57 -24 -84l-76 -247h-119z" />
<glyph unicode="i" d="M84 612q66 125 135.5 180.5t122.5 55.5q49 0 78 -33t29 -84q-1 -49 -54 -194l-96 -261q-53 -135 -53 -176q0 -23 10 -36t18.5 -16t16.5 -3q31 0 77 41t91 123q4 8 6 10h49q-49 -102 -124 -175t-144 -73q-41 0 -80 30t-39 103q0 55 27 121l143 387q41 113 41 131 q0 39 -37 39q-35 0 -87 -55t-83 -115h-47zM391 1288q0 35 25.5 61.5t62.5 26.5t63.5 -26.5t26.5 -61.5q0 -37 -26.5 -62.5t-63.5 -25.5q-35 0 -61.5 25.5t-26.5 62.5z" />
<glyph unicode="j" horiz-adv-x="417" d="M-393 -346q0 29 16.5 47t42.5 18q23 0 38 -14t20.5 -26.5t13.5 -43.5q6 -20 12 -32.5t25.5 -28.5t50.5 -16q47 0 86 25.5t64.5 60t55 110.5t46 133t49.5 174l117 422q2 6 20 68q41 145 41 186q0 45 -32.5 45t-77.5 -53t-84 -147h-45q33 100 100 183t137 83q41 0 75 -36 t34 -97q0 -47 -58 -271l-108 -399q-23 -82 -38 -131t-53 -135t-79 -136.5t-110.5 -90t-151.5 -39.5q-78 0 -142.5 39.5t-64.5 101.5zM365 1288q0 35 25.5 61.5t62 26.5t63.5 -26.5t27 -61.5q0 -37 -27 -62.5t-63 -25.5q-35 0 -61.5 25.5t-26.5 62.5z" />
<glyph unicode="k" horiz-adv-x="788" d="M37 -14l354 1163q27 98 27 104q0 20 -11.5 30.5t-24.5 12.5t-42 2h-37l12 41q154 4 230 33q10 4 35 4l-275 -897l4 -4q14 20 58 64q145 158 238 233.5t173 75.5q35 0 62.5 -17.5t27.5 -48.5q0 -25 -18.5 -42t-40.5 -17q-12 0 -53 20q-23 14 -47 15q-94 0 -308 -242 q0 -2 -4 -6t-6 -2h4l-4 -4v4h4v-4q10 4 27 4q158 0 172 -324q2 -41 4 -57t7 -37.5t15.5 -29t26.5 -7.5q33 0 69 48.5t54 127.5h43q-61 -258 -223 -258q-127 0 -127 162q0 31 6 100q0 2 1 8.5t2 14.5t1 14q6 94 6 107q0 96 -76 96q-68 0 -99.5 -51t-70.5 -180l-77 -256h-119z " />
<glyph unicode="l" d="M129 100q0 51 39 191q12 33 25 76l235 772q29 94 29 114.5t-12.5 30.5t-25.5 12t-44 2h-37l12 41q160 2 234 33q9 4 34 4l-321 -1061q-4 -12 -9 -27.5t-11.5 -35t-10.5 -29.5q-27 -80 -26 -131q0 -63 47 -63q41 0 92 58t88 153h45q-41 -104 -107.5 -186.5t-154.5 -82.5 q-57 0 -89 38t-32 91z" />
<glyph unicode="m" horiz-adv-x="1300" d="M70 600q51 106 119.5 170t121.5 64q31 0 57.5 -24t26.5 -73q0 -72 -61 -243l4 -5q66 141 164 244t180 103q51 0 83 -34t32 -102q0 -90 -41 -194l4 -4q76 154 166 244t182 90q55 0 96 -38t41 -106q0 -55 -28 -137q0 -4 -5.5 -18.5t-11.5 -34t-10 -29.5l-78 -225 q0 -2 -3 -10.5t-6 -16.5t-5 -16q-6 -16 -6 -21q-29 -90 -29 -106q0 -45 37 -45q29 0 74 41t90 114h43q-43 -90 -111 -153.5t-135 -63.5q-39 0 -74 30t-35 91q0 49 21 115l28 78l93 272q45 143 45 154q0 63 -58 63q-90 0 -194 -135q-129 -168 -223 -479l-54 -174h-118 l161 536q43 145 43 189q0 59 -47 59q-92 0 -229 -207q-88 -133 -197 -479l-30 -98h-119l182 600q0 2 2 8l4 12q27 82 27 125q0 33 -19 33q-12 0 -32.5 -11.5t-55.5 -51t-67 -101.5h-45z" />
<glyph unicode="n" horiz-adv-x="874" d="M74 -14l188 612q4 12 10.5 30.5t6.5 22.5q23 76 22 82q0 33 -28.5 33t-67.5 -42t-72 -103h-47q125 227 238 227q78 0 77 -96q1 -85 -65 -263l4 -4q174 362 346 363q55 0 96 -36t41 -107q0 -45 -41 -168l-106 -320q0 -2 -3 -10t-6 -16.5t-5 -16.5q-27 -74 -27 -100 q0 -41 35 -41q14 0 32.5 9t53.5 47t69 99h52q-113 -217 -250 -217q-20 0 -42 6.5t-45.5 34t-23.5 70.5q0 39 47 178l107 303q43 125 43 162q0 61 -60 61q-84 0 -200 -176q-121 -184 -207 -465l-49 -159h-123z" />
<glyph unicode="o" horiz-adv-x="747" d="M100 262q0 215 130 400.5t290 185.5q84 0 144.5 -71.5t60.5 -213.5q0 -137 -52 -272t-150.5 -227.5t-213.5 -92.5q-59 0 -101 28t-62.5 61.5t-32 83t-12.5 71.5t-1 47zM207 147q0 -47 26.5 -89t79.5 -42q74 0 137.5 86t97.5 204t52 215t18 141q0 72 -30.5 106.5 t-73.5 34.5q-92 0 -167 -134t-107.5 -281t-32.5 -241z" />
<glyph unicode="p" horiz-adv-x="854" d="M-186 -489l12 43q104 0 131 18q4 2 6 5t4 5t5 8.5t5.5 11.5t5.5 15t6 19.5t8 25.5t9 33l209 688q4 6 10 31q55 186 142 403l-5 4q-20 -43 -49 -90q-5 -12 -30 -51l-170 -268h-45l188 303q27 35 33 55q84 131 135 299l14 47h119l-68 -225l-83 -232l4 -4q133 193 254 193 q74 0 126 -69.5t52 -172.5q0 -137 -63.5 -283.5t-173 -247t-226.5 -100.5q-111 0 -135 99h-4l-117 -387q-20 -63 -21 -88q0 -29 25 -36t76 -7h41l-13 -45h-417zM270 131q0 -43 24.5 -80t78.5 -37q82 0 153.5 86t112.5 203t64.5 217.5t23.5 147.5q0 127 -82 127 q-78 0 -166 -103q-37 -41 -66.5 -101.5t-40.5 -93t-34 -106.5l-41 -133q-27 -96 -27 -127z" />
<glyph unicode="q" horiz-adv-x="854" d="M106 219q0 102 50.5 227t124.5 213q66 78 153.5 133.5t151.5 55.5q53 0 91 -32t42 -79h4l29 99h118l-348 -1149q-23 -74 -22 -93q0 -29 26.5 -34.5t102.5 -5.5l-15 -41h-401l12 41q102 0 119 8q25 12 62 133l133 438l-4 4q-57 -84 -124 -125t-120 -41q-68 0 -126.5 59.5 t-58.5 188.5zM221 145q0 -55 23.5 -92t64.5 -37q80 0 164 97q43 47 75 108.5t46 103t39 121.5l16 54q41 137 41 182q0 49 -26.5 85t-73.5 36q-90 0 -180.5 -127t-139.5 -279.5t-49 -251.5z" />
<glyph unicode="r" horiz-adv-x="598" d="M84 578q39 102 101.5 186t129.5 84q35 0 60.5 -33t25.5 -106q0 -82 -47 -246l4 -4q35 96 97 213q27 49 45 78.5t56 63.5t73 34t56.5 -22.5t21.5 -53.5t-17.5 -49t-42.5 -18q-27 0 -55 32q-8 12 -23 13q-76 0 -282 -578q-25 -63 -39 -115l-23 -71h-119l158 528 q47 156 47 207q0 57 -30.5 57t-78.5 -65.5t-75 -134.5h-43z" />
<glyph unicode="s" horiz-adv-x="641" d="M49 115q0 68 53 68v-1q54 0 54 -57q0 -8 -4.5 -26.5t-3 -32t11.5 -23.5q31 -31 90 -31t118.5 39t59.5 123q0 61 -61 174q-25 49 -33 58q-74 133 -74 208q0 98 77 164t173 66q72 0 122 -36t50 -77q0 -23 -12.5 -39t-32.5 -16q-33 0 -47 59q-16 70 -88 70q-53 0 -97.5 -33 t-44.5 -84q0 -66 54 -158q23 -45 32 -55q89 -156 89 -254q0 -100 -75 -174t-208 -74q-106 0 -154.5 46.5t-48.5 95.5z" />
<glyph unicode="t" d="M123 98q0 53 29 144q25 88 32 108l129 424h-137l12 45h138l92 303h121l-93 -303h150l-14 -45h-150l-133 -436l-45 -160q-20 -82 -21 -90q0 -23 12.5 -37t28.5 -14q35 0 92.5 67.5t106.5 174.5h45q-47 -111 -123 -209.5t-162 -98.5q-49 0 -79.5 35t-30.5 92z" />
<glyph unicode="u" horiz-adv-x="874" d="M102 608q41 109 105.5 174.5t128.5 65.5q33 0 63.5 -22.5t30.5 -75.5q0 -33 -37 -142l-125 -370q-39 -113 -39 -140q0 -65 58 -65h2q78 0 176 149q137 207 262 594l18 58h119l-174 -574q-43 -150 -43 -170q0 -49 41 -49q74 0 146 166h40q-10 -31 -23 -59.5t-42 -74.5 t-72 -74t-92 -28q-98 0 -98 109q0 66 47 221q0 2 3 11.5t3 11.5h-4q-23 -49 -51.5 -98.5t-73.5 -113t-102.5 -102.5t-114.5 -39q-61 0 -98 37t-37 101q0 57 45 188l123 358q4 6 6 19q23 59 22 78q0 27 -26 26q-63 0 -139 -170h-48z" />
<glyph unicode="v" horiz-adv-x="724" d="M117 692q51 156 129 156q41 0 88 -74q14 -29 38.5 -29t37.5 41q20 61 49 62q23 0 23 -22.5t-31 -80.5q-2 -4 -14.5 -26.5t-14.5 -26.5q-53 -102 -81 -159.5t-64.5 -166t-36.5 -186.5q0 -76 31.5 -111.5t66.5 -35.5q82 0 163 92t128 217t47 227q0 68 -29 138 q-18 47 -18 71q0 27 14 48.5t39 21.5q27 0 47.5 -34t20.5 -97q0 -98 -30 -222t-83 -243t-143.5 -200t-196.5 -81q-76 0 -126 47.5t-50 137.5q0 41 12 87t24.5 79.5t42 89t42 77t51.5 81t43 65.5l51 80l-4 4q-33 -23 -68 -23q-31 0 -59.5 22.5t-44.5 22.5q-31 0 -53 -49h-41z " />
<glyph unicode="w" horiz-adv-x="1280" d="M100 150q0 168 215 471l62 86l-4 4q-39 -23 -76 -23t-74 37q-18 16 -30 16q-23 0 -39 -39q0 -8 -4 -8h-41q39 147 104 148q41 0 82 -49q43 -49 72 -50q23 0 41 45q12 59 44.5 59.5t32.5 -28.5q0 -12 -32 -67q-18 -27 -23 -41q-205 -350 -205 -553q0 -43 21.5 -82 t72.5 -39q76 0 169.5 73.5t123.5 114.5q-4 29 -4 54q0 117 34 247.5t95.5 226t128.5 95.5q76 0 76 -113q0 -86 -55.5 -199.5t-88 -156.5t-63.5 -80q6 -113 45 -189.5t109 -76.5q78 0 158.5 91t130 212t49.5 213q0 57 -33 127q-29 59 -29 104q0 29 16.5 48.5t37.5 19.5 q10 0 22 -5t31.5 -47t19.5 -118q0 -102 -31.5 -222t-88 -229.5t-146.5 -182.5t-190 -73q-55 0 -98.5 27t-67 67.5t-32.5 64.5t-13 40q-193 -199 -357 -199q-92 0 -130 56.5t-38 122.5zM725 360h4q168 242 168 381q0 61 -37 62q-51 1 -98 -131q-39 -108 -39 -250q0 -30 2 -62 z" />
<glyph unicode="x" horiz-adv-x="831" d="M45 35q0 61 53 164h41q-47 -104 -47 -146q0 -29 17 -28q12 0 34 22q4 4 84 103l191 251l-53 220q-4 10 -9 30q0 2 -2 6.5t-2 6.5q-16 61 -21 73.5t-18 12.5q-35 0 -94 -148h-43q31 86 84 166t107 80q27 0 46 -22.5t28.5 -50t25.5 -91.5l43 -164l160 201q39 49 57 69.5 t45 39t49 18.5q45 0 45 -55q0 -80 -39 -172h-43q35 113 35 149q0 25 -16 25q-6 0 -13.5 -4.5t-16.5 -15.5t-17 -20.5t-22.5 -26.5t-22.5 -28l-187 -231l60 -244q18 -70 30.5 -105.5t18.5 -42.5t16 -7q18 0 44 45t44 110h43q-33 -115 -80 -184.5t-98 -69.5q-29 0 -48 14.5 t-34.5 50.5t-24 60.5t-22.5 81.5l-43 170l-180 -235q-63 -82 -94 -112t-62 -30q-49 0 -49 64z" />
<glyph unicode="y" horiz-adv-x="747" d="M-406 -426q0 31 28 48.5t56 17.5q25 0 72 -15q70 -18 105 -18q57 0 122.5 38t182.5 156q80 84 110 209q51 211 52 461q0 141 -26 216t-65 75q-68 0 -92 -187h-41q6 76 24.5 130.5t39 81t46 42t38 17.5t24.5 2q59 0 107 -74q55 -86 55 -293q0 -243 -55 -436l4 -4 q96 109 188.5 270.5t92.5 282.5q0 55 -25 96q-4 4 -14 25q-25 39 -25 67q0 27 14.5 46.5t38.5 19.5q39 0 60.5 -45t21.5 -117q0 -131 -70.5 -287.5t-171 -287.5t-214 -250t-194.5 -189.5t-116 -91.5q-133 -80 -246 -80q-57 0 -92 19.5t-35 54.5z" />
<glyph unicode="z" horiz-adv-x="874" d="M57 -12q0 133 418 477q184 150 285 237l-4 5q-41 -6 -54 -7q-51 0 -124 7q-58 6 -97 6q-82 0 -107.5 -14.5t-49.5 -59.5h-37q12 39 25.5 68.5t38 65.5t63.5 55.5t88 19.5q84 0 147 -57q57 -45 101 -46q57 0 73 58q14 45 43 45q27 0 27 -27q0 -47 -111.5 -152.5 t-357.5 -310.5q-14 -14 -51 -43q-6 -4 -12.5 -10t-8.5 -8q-141 -117 -209 -213l4 -4q34 26 91 26h4q94 0 264 -126q113 -84 184 -84q117 0 125 129h35v-8q0 -117 -58 -186q-60 -71 -149 -71q-55 0 -100 26t-73 55.5t-79 97.5q-35 45 -53.5 65.5t-47 38.5t-61.5 18 q-82 0 -120 -71q0 -6 -7 -13q-10 -20 -24 -20q-20 0 -21 31z" />
<glyph unicode="{" horiz-adv-x="980" d="M305 416v39q111 20 170.5 80.5t59.5 132.5q0 45 -27 151q-23 94 -23 162q0 133 100.5 253t278.5 142v-39q-106 -18 -169.5 -80.5t-63.5 -160.5q0 -41 18 -152q23 -100 23 -170q0 -37 -11.5 -76t-39 -88t-88 -95t-146.5 -77q90 -37 152.5 -86t88 -99t35 -86t9.5 -69 q0 -57 -23 -170q-16 -88 -16 -149q0 -190 231 -248v-35q-172 23 -274.5 138.5t-102.5 252.5q0 68 23 158q25 148 25 154q0 14 -1.5 27.5t-13.5 45t-34.5 56t-68.5 50t-112 38.5z" />
<glyph unicode="|" horiz-adv-x="1044" d="M549 -504v1884h110v-1884h-110z" />
<glyph unicode="}" horiz-adv-x="980" d="M305 -467q106 18 170 80.5t64 161.5q0 41 -19 151q-20 92 -20 170q0 51 17.5 104.5t85 122t179.5 109.5q-90 37 -152.5 86t-88 99.5t-34.5 86t-9 68.5q0 57 22 170q16 88 17 150q0 190 -232 247v35q172 -23 274.5 -138.5t102.5 -252.5q0 -68 -23 -158q-24 -147 -24 -153 q0 -14 1 -27.5t13.5 -45.5t35 -56.5t68.5 -50t111 -37.5v-39q-111 -20 -169 -81t-58 -132q0 -53 25 -152q23 -94 22 -162q0 -133 -100.5 -252.5t-278.5 -142.5v39z" />
<glyph unicode="~" horiz-adv-x="1366" d="M244 518q4 80 29.5 139.5t55 87t68.5 43t55.5 17.5t30.5 2q92 0 381 -123q152 -66 219 -66q63 0 118.5 41t66.5 144h47q-2 -135 -75 -211t-175 -76q-55 0 -116.5 19.5t-256.5 101.5q-156 63 -217 63q-147 0 -184 -182h-47z" />
<glyph unicode="&#xa1;" d="M-59 -422q0 39 39 137l305 764h45l-189 -753q-10 -31 -14 -50q0 -2 -2 -8q0 -4 -2 -6q-12 -49 -21.5 -74.5t-34 -54.5t-59.5 -29q-29 0 -48 20.5t-19 53.5zM295 797q0 45 30.5 75.5t75.5 30.5t76 -30.5t31 -75.5t-32 -76t-75 -31t-74.5 32t-31.5 75z" />
<glyph unicode="&#xa2;" horiz-adv-x="917" d="M217 203q0 209 132 400.5t280 236.5l125 403h43l-121 -395q59 2 96 -34t37 -83q0 -37 -18.5 -54.5t-38.5 -17.5q-23 0 -40.5 18.5t-19.5 53.5q-2 20 -3 28.5t-8 20t-22 17.5l-231 -764q70 -6 140.5 72.5t107.5 179.5h39q-49 -139 -130 -220t-175 -92l-109 -354h-43 l109 354q-66 12 -108 68.5t-42 161.5zM336 156q0 -76 53 -111l225 746q-109 -53 -193.5 -279.5t-84.5 -355.5z" />
<glyph unicode="&#xa3;" horiz-adv-x="1622" d="M-49 -457q0 47 80 118t141 107.5t88 51.5q92 143 158 254l51 90h-322l31 45h320l8 16q4 4 4 6l121 205q215 350 358 525q322 387 621 387q86 0 153.5 -33t67.5 -88q0 -35 -22.5 -60.5t-53.5 -25.5q-25 0 -36 15t-23 56q-29 86 -140 86q-231 0 -479 -407 q-4 -8 -33.5 -57.5t-33.5 -57.5q-227 -375 -369 -563l-4 -4h373l-31 -45h-375q-106 -137 -260 -314l4 -4q43 25 117 25q133 0 221 -115q25 -37 31 -43q39 -53 74.5 -80.5t93.5 -27.5q96 0 182 71.5t86 153.5q0 33 -10 64q-6 25 -6 26q0 43 28.5 63.5t53.5 20.5q53 0 53 -70 q0 -143 -168 -283t-328 -140q-92 0 -148.5 44t-107.5 123q-29 43 -43 62.5t-48 44.5t-71 25q-51 0 -84 -39q-8 -8 -52 -63.5t-63.5 -76t-55 -57.5t-62.5 -51.5t-49 -14.5q-41 0 -41 35z" />
<glyph unicode="&#xa4;" horiz-adv-x="1366" d="M301 256l129 127q-96 147 -96 283q0 139 96 270l-129 125l76 76l127 -127q123 96 274 96q156 0 279 -96l127 127l73 -76l-127 -125q98 -133 98.5 -282.5t-98.5 -270.5l127 -127l-73 -74l-127 127q-125 -98 -280.5 -98t-272.5 98l-127 -127zM440 657.5q0 -141.5 99.5 -241 t241 -99.5t241.5 99.5t100 241t-100 241.5t-241.5 100t-241 -100t-99.5 -241.5z" />
<glyph unicode="&#xa5;" horiz-adv-x="1024" d="M51 319l17 60h360q8 35 16.5 71.5t16.5 75.5h-361l17 60h356q29 135 39 219q18 203 18 252q0 236 -67 235q-47 0 -114.5 -125t-96.5 -217h-41q16 49 43 110.5t69 139.5t95 129t104 51q59 0 102.5 -81.5t43.5 -235.5q-1 -207 -54 -463h7q57 182 221 471q178 309 311 309 q51 0 86 -32.5t35 -83.5q0 -29 -16.5 -53.5t-40.5 -24.5q-18 0 -30.5 7t-18 26.5t-6.5 25.5t-3 27q0 47 -41 47q-29 0 -66.5 -31t-62.5 -69q-92 -139 -112 -172q-57 -92 -132 -244q-59 -123 -94 -217h404l-17 -60h-407q-18 -53 -43 -147h416l-17 -60h-416q-41 -143 -41 -178 q0 -31 15.5 -52t38 -29.5t40 -11.5t31.5 -3h54l-13 -45h-565l12 45h56q117 0 161 94q16 33 54 180h-363z" />
<glyph unicode="&#xa6;" horiz-adv-x="1044" d="M549 250h110v-754h-110v754zM549 627v753h110v-753h-110z" />
<glyph unicode="&#xa7;" horiz-adv-x="854" d="M-72 -229q0 31 17.5 57.5t52.5 26.5q70 0 84 -103q18 -82 39 -110q51 -70 137 -70q96 0 162.5 67.5t66.5 167.5q0 74 -37.5 143.5t-140.5 186.5q-53 63 -79.5 98t-55.5 104t-29 134q0 109 69 183.5t179 74.5q16 0 84 -14q-106 137 -106 284q0 152 95 250.5t241 98.5 q113 0 192.5 -65.5t79.5 -139.5q0 -35 -18.5 -58.5t-49.5 -23.5q-68 0 -75 88q0 2 -2.5 17.5t-4.5 17.5q-8 68 -55 96.5t-96 28.5q-76 0 -150.5 -56.5t-74.5 -171.5q0 -66 29.5 -131t57 -97t76.5 -83q53 -53 84 -90t68 -113.5t37 -152.5q0 -111 -69.5 -190t-184.5 -79 q-37 1 -92 19l-4 -4q47 -47 85 -121t38 -156q0 -133 -92.5 -242.5t-258.5 -109.5q-137 0 -218 78t-81 160zM236 553q0 -115 102 -241t213 -126q63 0 108.5 46.5t45.5 103.5q0 119 -99.5 237.5t-210.5 118.5q-86 0 -122.5 -50t-36.5 -89z" />
<glyph unicode="&#xa8;" horiz-adv-x="681" d="M297 1149q0 35 24.5 59.5t59.5 24.5t60.5 -24.5t25.5 -59.5t-25.5 -59.5t-60.5 -24.5t-59.5 24.5t-24.5 59.5zM647 1149q0 35 24.5 59.5t59.5 24.5t60.5 -24.5t25.5 -59.5t-25.5 -59.5t-60.5 -24.5t-59.5 24.5t-24.5 59.5z" />
<glyph unicode="&#xa9;" horiz-adv-x="1556" d="M166 672q0 295 208 501.5t500.5 206.5t500.5 -206.5t208 -501.5q0 -293 -208 -501t-500.5 -208t-500.5 208t-208 501zM227 672q0 -268 189.5 -457.5t458 -189.5t458 189t189.5 458q0 270 -190.5 458.5t-457 188.5t-457 -188.5t-190.5 -458.5zM416 666q0 188 138 325 t361 137q74 0 185 -36q20 -8 37 -9q31 0 49 45h39l20 -280h-39q-10 29 -16 47t-30.5 58t-54.5 64.5t-83 45t-119 20.5q-145 0 -233 -102t-88 -287q0 -25 1 -47t8 -67t18.5 -80t36 -78t58 -71.5t88 -48t121.5 -19.5q195 0 312 161l37 -20q-139 -203 -383 -203 q-203 0 -333 132t-130 313z" />
<glyph unicode="&#xaa;" horiz-adv-x="555" d="M252 987q0 137 113.5 265t209.5 128q68 0 78 -59h4l15 51h78l-117 -352q-25 -74 -25 -92q0 -25 25 -25q27 0 53.5 30t42.5 58l6 6h27q-29 -59 -75 -99t-85 -40q-61 0 -61 70q0 24 12 61l-4 4q-25 -45 -79 -91t-108 -46q-43 0 -76.5 34t-33.5 97zM334 971q0 -80 49 -80 q33 0 84 41t94 127q29 57 51.5 130t22.5 101q0 27 -15.5 43.5t-37.5 16.5q-80 0 -164 -144.5t-84 -234.5z" />
<glyph unicode="&#xab;" horiz-adv-x="681" d="M-4 440l364 363h60l-268 -385l63 -350h-47zM412 440l364 363h60l-269 -385l64 -350h-45z" />
<glyph unicode="&#xac;" horiz-adv-x="1366" d="M238 836v106h1081v-573h-107v467h-974z" />
<glyph unicode="&#xad;" horiz-adv-x="681" d="M135 475l45 82h492l-47 -82h-490z" />
<glyph unicode="&#xae;" horiz-adv-x="1556" d="M166 672q0 295 208 501.5t500.5 206.5t500.5 -206.5t208 -501.5q0 -293 -208 -501t-500.5 -208t-500.5 208t-208 501zM227 672q0 -268 189.5 -457.5t458 -189.5t458 189t189.5 458q0 270 -190.5 458.5t-457 188.5t-457 -188.5t-190.5 -458.5zM471 242v34q39 0 60.5 6.5 t30.5 27t11 40t2 64.5v524q0 59 -4 81.5t-23.5 38t-66.5 15.5v35h387q137 0 217 -62.5t80 -160.5q0 -166 -223 -223l211 -297q29 -39 52.5 -59.5t35.5 -23.5t33 -6v-34h-184l-295 405h-76v-235q0 -70 4 -89.5t27 -31.5q23 -14 88 -15v-34h-367zM719 692h31q100 0 177 40 t77 140q0 80 -55.5 135.5t-145.5 55.5q-41 0 -84 -14v-357z" />
<glyph unicode="&#xaf;" horiz-adv-x="681" d="M346 1096l23 92h569l-23 -92h-569z" />
<glyph unicode="&#xb0;" horiz-adv-x="811" d="M215 1022q0 133 94 227t227.5 94t227.5 -94t94 -227t-94 -226.5t-227.5 -93.5t-227.5 93.5t-94 226.5zM315 1022q0 -92 64.5 -156.5t157 -64.5t157 64.5t64.5 156.5t-64.5 157.5t-157 65.5t-157 -65.5t-64.5 -157.5z" />
<glyph unicode="&#xb1;" horiz-adv-x="1366" d="M238 0v106h1081v-106h-1081zM238 768v106h487v488h106v-488h488v-106h-488v-487h-106v487h-487z" />
<glyph unicode="&#xb2;" horiz-adv-x="618" d="M174 649q-2 27 4 40t31 34q12 6 22 16l52 41q205 164 279.5 249t74.5 175q0 41 -29.5 73t-87.5 32q-49 0 -85 -24.5t-36 -63.5q0 -43 33 -66q8 -2 8 -10t-28.5 -26.5t-44.5 -18.5q-29 0 -43.5 27.5t-14.5 58.5q0 59 62.5 110.5t169.5 51.5q104 0 153 -44t49 -106 q0 -84 -70.5 -157.5t-258.5 -209.5q-61 -45 -101 -79l-39 -27v-4h347l-37 -109h-41q0 18 -4 29q-2 8 -58 8h-307z" />
<glyph unicode="&#xb3;" horiz-adv-x="618" d="M147 719q0 43 50 43q39 0 63 -41q27 -53 80 -53q96 0 151.5 93t55.5 165q0 31 -16.5 57.5t-53.5 26.5q-39 0 -86 -37q-20 -14 -39 -15q-29 0 -28 21q0 16 57 41q66 33 84 39q45 23 73.5 39t60.5 54t32 81q0 80 -111 80q-57 0 -83.5 -28t-26.5 -60q0 -16 10 -37 q8 -10 8 -14q0 -2 -14 -17q-31 -23 -45 -22q-20 0 -35 21.5t-15 49.5q0 61 62.5 101.5t161.5 40.5q92 0 143 -33t51 -82q0 -31 -15 -57.5t-52 -51t-67 -39t-89 -41.5v-4q139 -20 139 -143q0 -100 -95 -182t-226 -82q-68 0 -126.5 24.5t-58.5 61.5z" />
<glyph unicode="&#xb4;" horiz-adv-x="681" d="M444 991l142 226q27 43 42 62t36.5 35.5t42.5 16.5q23 0 42 -16.5t19 -42.5q0 -39 -80 -107l-223 -190z" />
<glyph unicode="&#xb6;" horiz-adv-x="1067" d="M94 958q0 172 120 281t347 109h537v-39h-43q-84 0 -101.5 -40t-17.5 -171v-1585h-74v1777h-194v-1777h-76v1050q-274 12 -381 109q-117 106 -117 286z" />
<glyph unicode="&#xb7;" horiz-adv-x="593" d="M315 678q0 43 31 74.5t76 31.5t75.5 -30.5t30.5 -75.5q0 -43 -31.5 -73t-74.5 -30t-75 30t-32 73z" />
<glyph unicode="&#xb8;" horiz-adv-x="681" d="M8 -485l12 41q160 -10 236 37t76 104q0 86 -137 100l135 217h53l-80 -127q82 -12 122 -57t40 -98q0 -90 -91 -155.5t-280 -65.5q-49 0 -86 4z" />
<glyph unicode="&#xb9;" horiz-adv-x="618" d="M221 649l12 37h43q49 0 56 6q6 4 26 60l150 426q14 39 14 53q0 29 -63 29h-47l10 34q147 0 199 54h53l-213 -607q-12 -43 -12 -45q0 -10 47 -10h55l-12 -37h-318z" />
<glyph unicode="&#xba;" d="M262 1030q0 129 85 239.5t188 110.5q53 0 93 -43t40 -129q0 -139 -83 -245.5t-188 -106.5q-47 0 -77.5 21.5t-41 57.5t-13.5 55.5t-3 39.5zM332 963q0 -29 16.5 -53.5t52.5 -24.5q51 0 92.5 54t61.5 127t31.5 128t11.5 74q0 84 -68 84q-59 0 -107 -80t-69.5 -167 t-21.5 -142z" />
<glyph unicode="&#xbb;" horiz-adv-x="681" d="M-61 68l268 385l-64 350h45l174 -373l-364 -362h-59zM354 68l269 385l-64 350h47l172 -373l-364 -362h-60z" />
<glyph unicode="&#xbc;" horiz-adv-x="1792" d="M348 649l14 37h44q49 0 55 6t26 60l150 426q14 39 14 53q0 29 -63 29h-49l12 34q127 0 170 31l29 23h53l-213 -607q-12 -33 -12 -41q0 -10 7 -12t40 -2h55l-14 -37h-318zM422 0l1132 1356h74l-1132 -1356h-74zM1063 231l16 41l457 428h59l-147 -424q39 0 50 4.5t28 28.5 q4 4 4 6h47l-31 -84h-114l-50 -141q-12 -35 -12 -39q0 -12 7 -14t40 -2h37l-12 -35h-279l13 35q72 0 77 8q7 6 27 59l45 129h-262zM1147 276h192l97 267l-4 4z" />
<glyph unicode="&#xbd;" horiz-adv-x="1792" d="M348 649l14 37h44q49 0 55 6t26 60l150 426q14 39 14 53q0 29 -63 29h-49l12 34q127 0 170 31l29 23h53l-213 -607q-12 -33 -12 -41q0 -10 7 -12t40 -2h55l-14 -37h-318zM422 0l1132 1356h74l-1132 -1356h-74zM1108 0q0 39 16 55q2 4 44 38t90.5 74t60.5 50 q152 131 197 193q57 76 57 147q0 39 -31 72t-88 33q-49 0 -84 -25t-35 -66q0 -43 33 -63q6 -4 6 -12.5t-28.5 -26.5t-45.5 -18q-27 0 -41 28.5t-14 57.5q0 59 61.5 111t170.5 52q102 0 152 -45t50 -106q0 -82 -71.5 -157t-257.5 -210q-6 -4 -101 -78l-39 -26v-4h346 l-38 -111h-39q0 20 -4 31q-2 6 -58 6h-309z" />
<glyph unicode="&#xbe;" horiz-adv-x="1792" d="M301 719q0 43 49 43q39 0 64 -41q27 -53 78 -53q68 0 119 53t70 109.5t19 95.5q0 33 -16 58.5t-55 25.5q-37 0 -84 -37q-20 -14 -39 -15q-31 0 -31 21q0 14 57 41l84 39q168 78 168 174q0 80 -110 80q-57 0 -84 -28t-27 -60q0 -23 10 -37q8 -10 9 -14q0 -2 -15 -17 q-33 -23 -47 -22q-20 0 -33.5 21.5t-13.5 49.5q0 61 62.5 101.5t158.5 40.5q92 0 144.5 -33t52.5 -82q0 -31 -15.5 -57.5t-52.5 -50t-67.5 -39t-89.5 -42.5v-4q141 -20 141 -143q0 -100 -96.5 -182t-225.5 -82q-70 0 -127 24.5t-57 61.5zM422 0l1132 1356h74l-1132 -1356 h-74zM1063 231l16 41l457 428h59l-147 -424q39 0 50 4.5t28 28.5q4 4 4 6h47l-31 -84h-114l-50 -141q-12 -35 -12 -39q0 -12 7 -14t40 -2h37l-12 -35h-279l13 35q72 0 77 8q7 6 27 59l45 129h-262zM1147 276h192l97 267l-4 4z" />
<glyph unicode="&#xbf;" horiz-adv-x="704" d="M-12 -158q0 164 91 282t216 118q45 0 96 -23l80 264h45l-110 -368h-31q-10 82 -64 82q-82 0 -143.5 -160t-61.5 -309q0 -55 17.5 -94.5t43.5 -54.5t43 -20t32 -5q43 0 71 34q2 2 10.5 13.5t8.5 13.5q33 43 67 43q49 0 50 -47q0 -41 -55.5 -74t-125.5 -33 q-113 0 -196.5 97.5t-83.5 240.5zM465 797q0 45 31.5 75.5t74.5 30.5t75 -31.5t32 -74.5q0 -45 -31 -76t-76 -31t-75.5 31t-30.5 76z" />
<glyph unicode="&#xc0;" horiz-adv-x="1173" d="M-92 0l14 45q57 4 100.5 21.5t87.5 65.5t71.5 85t88.5 131l691 1032h69l-45 -1099q-2 -8 -6 -84q-4 -84 24.5 -115t139.5 -37l-15 -45h-532l14 45q72 4 109 12.5t57.5 44t24.5 68.5t8 125l10 219h-387l-123 -190q-2 -2 -5 -6.5t-6 -11.5t-7 -11q-70 -102 -70 -145 q0 -27 10.5 -46.5t22.5 -30t40 -16.5t46 -8t57 -4l-14 -45h-475zM463 559h358l27 576l-4 4zM807 1755q0 27 19.5 43t42.5 16q33 0 58.5 -26.5t62.5 -87.5l143 -226l-20 -16l-224 190q-82 70 -82 107z" />
<glyph unicode="&#xc1;" horiz-adv-x="1173" d="M-92 0l14 45q57 4 100.5 21.5t87.5 65.5t71.5 85t88.5 131l691 1032h69l-45 -1099q-2 -8 -6 -84q-4 -84 24.5 -115t139.5 -37l-15 -45h-532l14 45q72 4 109 12.5t57.5 44t24.5 68.5t8 125l10 219h-387l-123 -190q-2 -2 -5 -6.5t-6 -11.5t-7 -11q-70 -102 -70 -145 q0 -27 10.5 -46.5t22.5 -30t40 -16.5t46 -8t57 -4l-14 -45h-475zM463 559h358l27 576l-4 4zM843 1474l142 226q27 43 42 62t36.5 35.5t42.5 16.5q23 0 42 -16.5t19 -42.5q0 -39 -80 -107l-223 -190z" />
<glyph unicode="&#xc2;" horiz-adv-x="1173" d="M-92 0l14 45q57 4 100.5 21.5t87.5 65.5t71.5 85t88.5 131l691 1032h69l-45 -1099q-2 -8 -6 -84q-4 -84 24.5 -115t139.5 -37l-15 -45h-532l14 45q72 4 109 12.5t57.5 44t24.5 68.5t8 125l10 219h-387l-123 -190q-2 -2 -5 -6.5t-6 -11.5t-7 -11q-70 -102 -70 -145 q0 -27 10.5 -46.5t22.5 -30t40 -16.5t46 -8t57 -4l-14 -45h-475zM463 559h358l27 576l-4 4zM690 1460l375 391h98l17 -391h-21l-117 246l-313 -246h-39z" />
<glyph unicode="&#xc3;" horiz-adv-x="1173" d="M-92 0l14 45q57 4 100.5 21.5t87.5 65.5t71.5 85t88.5 131l691 1032h69l-45 -1099q-2 -8 -6 -84q-4 -84 24.5 -115t139.5 -37l-15 -45h-532l14 45q72 4 109 12.5t57.5 44t24.5 68.5t8 125l10 219h-387l-123 -190q-2 -2 -5 -6.5t-6 -11.5t-7 -11q-70 -102 -70 -145 q0 -27 10.5 -46.5t22.5 -30t40 -16.5t46 -8t57 -4l-14 -45h-475zM463 559h358l27 576l-4 4zM645 1507q18 242 194 242q45 0 83 -20.5t102 -67.5q18 -18 30 -25q41 -33 74 -33q96 1 100 144h29q0 -76 -22.5 -128.5t-57.5 -75t-60.5 -30.5t-45.5 -8q-80 0 -170 76 q-53 45 -73.5 57t-49.5 12q-94 0 -105 -143h-28z" />
<glyph unicode="&#xc4;" horiz-adv-x="1173" d="M-92 0l14 45q57 4 100.5 21.5t87.5 65.5t71.5 85t88.5 131l691 1032h69l-45 -1099q-2 -8 -6 -84q-4 -84 24.5 -115t139.5 -37l-15 -45h-532l14 45q72 4 109 12.5t57.5 44t24.5 68.5t8 125l10 219h-387l-123 -190q-2 -2 -5 -6.5t-6 -11.5t-7 -11q-70 -102 -70 -145 q0 -27 10.5 -46.5t22.5 -30t40 -16.5t46 -8t57 -4l-14 -45h-475zM463 559h358l27 576l-4 4zM778 1632q0 35 24.5 59.5t59.5 24.5t60.5 -24.5t25.5 -59.5t-25.5 -59.5t-60.5 -24.5t-59.5 24.5t-24.5 59.5zM1128 1632q0 35 24.5 59.5t59.5 24.5t60.5 -24.5t25.5 -59.5 t-25.5 -59.5t-60.5 -24.5t-59.5 24.5t-24.5 59.5z" />
<glyph unicode="&#xc5;" horiz-adv-x="1173" d="M-92 0l14 45q57 4 100.5 21.5t87.5 65.5t71.5 85t88.5 131l691 1032h69l-45 -1099q-2 -8 -6 -84q-4 -84 24.5 -115t139.5 -37l-15 -45h-532l14 45q72 4 109 12.5t57.5 44t24.5 68.5t8 125l10 219h-387l-123 -190q-2 -2 -5 -6.5t-6 -11.5t-7 -11q-70 -102 -70 -145 q0 -27 10.5 -46.5t22.5 -30t40 -16.5t46 -8t57 -4l-14 -45h-475zM463 559h358l27 576l-4 4zM817 1685q0 78 55.5 132.5t133 54.5t133 -54.5t55.5 -132.5t-55.5 -133t-133 -55t-133 55t-55.5 133zM879 1685q0 -55 36.5 -93t92.5 -38q53 0 91 38t38 91q0 57 -39.5 96t-94.5 39 q-53 0 -88.5 -40t-35.5 -93z" />
<glyph unicode="&#xc6;" horiz-adv-x="1898" d="M4 0v45q111 27 171.5 76t152.5 168l665 854q70 88 70 114q0 35 -33 44.5t-108 9.5h-31l10 45h1010l4 -305h-47q-25 131 -115 221q-39 39 -137 39h-221l-178 -584h69q59 0 92 4t80 23.5t86 67.5t72 128h45l-162 -534h-43q10 53 10 110q0 55 -11 89t-38.5 47.5t-51.5 16.5 t-73 3h-90l-131 -426q-27 -92 -27 -111q0 -100 181 -100h75q319 0 441 293h43l-103 -338h-1054l14 45q127 0 169 42t81 171l131 424h-336l-297 -387q-6 -6 -10 -12q-47 -61 -61.5 -86t-14.5 -54q0 -90 154 -98l-13 -45h-440zM721 727h315l178 584h-34z" />
<glyph unicode="&#xc7;" horiz-adv-x="1236" d="M199 492q0 205 101 409.5t278.5 341.5t373.5 137q66 0 121 -16t88 -37.5t61.5 -56.5t39 -54.5t24.5 -48.5q43 78 68 156h43l-88 -393h-43q18 190 -67 300.5t-226 110.5q-127 0 -233.5 -79.5t-170 -194.5t-107.5 -250t-61.5 -236.5t-17.5 -160.5q0 -172 81 -286t226 -114 q147 0 262 110t193 280l4 12h45l-135 -438h-43q0 68 -10 135q-145 -143 -342 -144l-41 -96q76 -12 116.5 -55t40.5 -100q0 -231 -512 -216l13 46q375 0 374 131q0 70 -135 86l94 209q-193 23 -304 174t-111 338z" />
<glyph unicode="&#xc8;" horiz-adv-x="1259" d="M16 0l15 45h28q55 0 90 11.5t57.5 44t33 59t28.5 90.5l262 862q31 100 31 127q0 72 -129 72h-39l13 45h968l4 -305h-43q-37 152 -114 217q-35 31 -86.5 37t-188.5 6h-174l-176 -582h98q68 0 102.5 4t84 23.5t87.5 66.5t72 127h47l-161 -530h-47q12 57 12 100 q0 113 -40 138.5t-157 25.5h-112l-127 -420q-31 -98 -31 -123q0 -33 16.5 -53t49 -28.5t63.5 -11.5t80 -3h82q211 0 319.5 74t177.5 225h45l-104 -344h-1137zM788 1755q0 27 19.5 43t42.5 16q33 0 58.5 -26.5t62.5 -87.5l143 -226l-20 -16l-224 190q-82 70 -82 107z" />
<glyph unicode="&#xc9;" horiz-adv-x="1259" d="M16 0l15 45h28q55 0 90 11.5t57.5 44t33 59t28.5 90.5l262 862q31 100 31 127q0 72 -129 72h-39l13 45h968l4 -305h-43q-37 152 -114 217q-35 31 -86.5 37t-188.5 6h-174l-176 -582h98q68 0 102.5 4t84 23.5t87.5 66.5t72 127h47l-161 -530h-47q12 57 12 100 q0 113 -40 138.5t-157 25.5h-112l-127 -420q-31 -98 -31 -123q0 -33 16.5 -53t49 -28.5t63.5 -11.5t80 -3h82q211 0 319.5 74t177.5 225h45l-104 -344h-1137zM886 1474l142 226q27 43 42 62t36.5 35.5t42.5 16.5q23 0 42 -16.5t19 -42.5q0 -39 -80 -107l-223 -190z" />
<glyph unicode="&#xca;" horiz-adv-x="1259" d="M16 0l15 45h28q55 0 90 11.5t57.5 44t33 59t28.5 90.5l262 862q31 100 31 127q0 72 -129 72h-39l13 45h968l4 -305h-43q-37 152 -114 217q-35 31 -86.5 37t-188.5 6h-174l-176 -582h98q68 0 102.5 4t84 23.5t87.5 66.5t72 127h47l-161 -530h-47q12 57 12 100 q0 113 -40 138.5t-157 25.5h-112l-127 -420q-31 -98 -31 -123q0 -33 16.5 -53t49 -28.5t63.5 -11.5t80 -3h82q211 0 319.5 74t177.5 225h45l-104 -344h-1137zM713 1460l375 391h98l17 -391h-21l-117 246l-313 -246h-39z" />
<glyph unicode="&#xcb;" horiz-adv-x="1259" d="M16 0l15 45h28q55 0 90 11.5t57.5 44t33 59t28.5 90.5l262 862q31 100 31 127q0 72 -129 72h-39l13 45h968l4 -305h-43q-37 152 -114 217q-35 31 -86.5 37t-188.5 6h-174l-176 -582h98q68 0 102.5 4t84 23.5t87.5 66.5t72 127h47l-161 -530h-47q12 57 12 100 q0 113 -40 138.5t-157 25.5h-112l-127 -420q-31 -98 -31 -123q0 -33 16.5 -53t49 -28.5t63.5 -11.5t80 -3h82q211 0 319.5 74t177.5 225h45l-104 -344h-1137zM739 1632q0 35 24.5 59.5t59.5 24.5t60.5 -24.5t25.5 -59.5t-25.5 -59.5t-60.5 -24.5t-59.5 24.5t-24.5 59.5z M1089 1632q0 35 24.5 59.5t59.5 24.5t60.5 -24.5t25.5 -59.5t-25.5 -59.5t-60.5 -24.5t-59.5 24.5t-24.5 59.5z" />
<glyph unicode="&#xcc;" horiz-adv-x="704" d="M29 0l14 45h31q150 0 184 127q2 6 12.5 40t12.5 38l260 862q31 100 30 127q0 72 -129 72h-34l14 45h532l-14 -45q-61 0 -94 -6.5t-57.5 -37t-37 -62t-36.5 -113.5l-252 -832q-29 -92 -29 -119q0 -41 33 -64.5t58 -27.5t48 -4h39l-14 -45h-571zM573 1755q0 27 19.5 43 t42.5 16q33 0 58.5 -26.5t62.5 -87.5l143 -226l-20 -16l-224 190q-82 70 -82 107z" />
<glyph unicode="&#xcd;" horiz-adv-x="704" d="M29 0l14 45h31q150 0 184 127q2 6 12.5 40t12.5 38l260 862q31 100 30 127q0 72 -129 72h-34l14 45h532l-14 -45q-61 0 -94 -6.5t-57.5 -37t-37 -62t-36.5 -113.5l-252 -832q-29 -92 -29 -119q0 -41 33 -64.5t58 -27.5t48 -4h39l-14 -45h-571zM610 1474l142 226 q27 43 42 62t36.5 35.5t42.5 16.5q23 0 42 -16.5t19 -42.5q0 -39 -80 -107l-223 -190z" />
<glyph unicode="&#xce;" horiz-adv-x="704" d="M29 0l14 45h31q150 0 184 127q2 6 12.5 40t12.5 38l260 862q31 100 30 127q0 72 -129 72h-34l14 45h532l-14 -45q-61 0 -94 -6.5t-57.5 -37t-37 -62t-36.5 -113.5l-252 -832q-29 -92 -29 -119q0 -41 33 -64.5t58 -27.5t48 -4h39l-14 -45h-571zM457 1460l375 391h98 l17 -391h-21l-117 246l-313 -246h-39z" />
<glyph unicode="&#xcf;" horiz-adv-x="704" d="M29 0l14 45h31q150 0 184 127q2 6 12.5 40t12.5 38l260 862q31 100 30 127q0 72 -129 72h-34l14 45h532l-14 -45q-61 0 -94 -6.5t-57.5 -37t-37 -62t-36.5 -113.5l-252 -832q-29 -92 -29 -119q0 -41 33 -64.5t58 -27.5t48 -4h39l-14 -45h-571zM494 1632q0 35 24.5 59.5 t59.5 24.5t60.5 -24.5t25.5 -59.5t-25.5 -59.5t-60.5 -24.5t-59.5 24.5t-24.5 59.5zM844 1632q0 35 24.5 59.5t59.5 24.5t60.5 -24.5t25.5 -59.5t-25.5 -59.5t-60.5 -24.5t-59.5 24.5t-24.5 59.5z" />
<glyph unicode="&#xd0;" horiz-adv-x="1386" d="M-37 0l12 45h58q152 0 186 127q2 6 12.5 40t12.5 38l123 405h-207l10 45h209l125 412q31 104 31 127q0 72 -129 72h-52l15 45h96q18 0 207 4q41 0 91 3t73 3q274 0 432 -145q84 -78 126 -202t42 -243q0 -51 -11.5 -115.5t-43 -167t-113.5 -205.5t-201 -177 q-84 -51 -181.5 -77t-170 -30t-207.5 -4h-545zM395 139q0 -94 207 -94q342 0 518 313q66 119 98.5 250t32.5 226q0 240 -131 383q-96 104 -295 104q-55 0 -77 -2l-189 -619h322l-13 -45h-321l-123 -399q-29 -100 -29 -117z" />
<glyph unicode="&#xd1;" horiz-adv-x="1314" d="M-72 51q0 53 22.5 78t55.5 25q29 0 51.5 -20.5t22.5 -55.5q0 -25 -19 -60q-10 -20 -10 -32q0 -37 55 -37q106 0 187 153q47 90 172 572l104 428q2 12 7.5 31.5t7.5 27.5q12 49 12 64q0 78 -135 84q-16 0 -28.5 1t-17.5 1h-12l13 45h313l346 -1057h4l80 344 q108 469 176 596q74 135 178 135q55 0 84 -26.5t29 -63.5q0 -35 -23.5 -55.5t-54.5 -20.5q-37 0 -67 47q-18 29 -41 29q-45 0 -94.5 -133t-145.5 -533l-151 -630h-48l-374 1147h-4l-119 -492q-33 -135 -54.5 -215t-51 -177t-57.5 -150.5t-64.5 -103.5t-79.5 -71.5t-97 -21.5 q-74 0 -123 42t-49 105zM748 1507q18 242 194 242q45 0 83 -20.5t102 -67.5q18 -18 30 -25q41 -33 74 -33q96 1 100 144h29q0 -76 -22.5 -128.5t-57.5 -75t-60.5 -30.5t-45.5 -8q-80 0 -170 76q-53 45 -73.5 57t-49.5 12q-94 0 -105 -143h-28z" />
<glyph unicode="&#xd2;" horiz-adv-x="1343" d="M219 518q0 184 97.5 383t269.5 339t358 140t311 -146.5t125 -387.5q0 -209 -100 -412t-266 -331t-340 -128q-82 0 -158 29t-144.5 89.5t-110.5 170t-42 254.5zM397 418q0 -188 54 -275q76 -123 219 -123q129 0 237.5 111t171 268.5t97 311t34.5 260.5q0 180 -74.5 272 t-193.5 92q-125 0 -232.5 -103.5t-173 -252t-102.5 -299.5t-37 -262zM831 1755q0 27 19.5 43t42.5 16q33 0 58.5 -26.5t62.5 -87.5l143 -226l-20 -16l-224 190q-82 70 -82 107z" />
<glyph unicode="&#xd3;" horiz-adv-x="1343" d="M219 518q0 184 97.5 383t269.5 339t358 140t311 -146.5t125 -387.5q0 -209 -100 -412t-266 -331t-340 -128q-82 0 -158 29t-144.5 89.5t-110.5 170t-42 254.5zM397 418q0 -188 54 -275q76 -123 219 -123q129 0 237.5 111t171 268.5t97 311t34.5 260.5q0 180 -74.5 272 t-193.5 92q-125 0 -232.5 -103.5t-173 -252t-102.5 -299.5t-37 -262zM919 1474l142 226q27 43 42 62t36.5 35.5t42.5 16.5q23 0 42 -16.5t19 -42.5q0 -39 -80 -107l-223 -190z" />
<glyph unicode="&#xd4;" horiz-adv-x="1343" d="M219 518q0 184 97.5 383t269.5 339t358 140t311 -146.5t125 -387.5q0 -209 -100 -412t-266 -331t-340 -128q-82 0 -158 29t-144.5 89.5t-110.5 170t-42 254.5zM397 418q0 -188 54 -275q76 -123 219 -123q129 0 237.5 111t171 268.5t97 311t34.5 260.5q0 180 -74.5 272 t-193.5 92q-125 0 -232.5 -103.5t-173 -252t-102.5 -299.5t-37 -262zM735 1460l375 391h98l17 -391h-21l-117 246l-313 -246h-39z" />
<glyph unicode="&#xd5;" horiz-adv-x="1343" d="M219 518q0 184 97.5 383t269.5 339t358 140t311 -146.5t125 -387.5q0 -209 -100 -412t-266 -331t-340 -128q-82 0 -158 29t-144.5 89.5t-110.5 170t-42 254.5zM397 418q0 -188 54 -275q76 -123 219 -123q129 0 237.5 111t171 268.5t97 311t34.5 260.5q0 180 -74.5 272 t-193.5 92q-125 0 -232.5 -103.5t-173 -252t-102.5 -299.5t-37 -262zM721 1507q18 242 194 242q45 0 83 -20.5t102 -67.5q18 -18 30 -25q41 -33 74 -33q96 1 100 144h29q0 -76 -22.5 -128.5t-57.5 -75t-60.5 -30.5t-45.5 -8q-80 0 -170 76q-53 45 -73.5 57t-49.5 12 q-94 0 -105 -143h-28z" />
<glyph unicode="&#xd6;" horiz-adv-x="1343" d="M219 518q0 184 97.5 383t269.5 339t358 140t311 -146.5t125 -387.5q0 -209 -100 -412t-266 -331t-340 -128q-82 0 -158 29t-144.5 89.5t-110.5 170t-42 254.5zM397 418q0 -188 54 -275q76 -123 219 -123q129 0 237.5 111t171 268.5t97 311t34.5 260.5q0 180 -74.5 272 t-193.5 92q-125 0 -232.5 -103.5t-173 -252t-102.5 -299.5t-37 -262zM772 1632q0 35 24.5 59.5t59.5 24.5t60.5 -24.5t25.5 -59.5t-25.5 -59.5t-60.5 -24.5t-59.5 24.5t-24.5 59.5zM1122 1632q0 35 24.5 59.5t59.5 24.5t60.5 -24.5t25.5 -59.5t-25.5 -59.5t-60.5 -24.5 t-59.5 24.5t-24.5 59.5z" />
<glyph unicode="&#xd7;" horiz-adv-x="1366" d="M287 1075l75 78l418 -420l418 420l76 -78l-418 -418l414 -413l-76 -76l-414 414l-415 -414l-76 76l416 413z" />
<glyph unicode="&#xd8;" horiz-adv-x="1343" d="M199 -2l125 147q-104 139 -105 363q0 197 99.5 398.5t270.5 337.5t355 136q182 0 307 -143l117 137l33 -28l-123 -146q100 -154 100 -352q0 -211 -100 -414t-266 -331t-340 -128q-193 0 -320 138l-121 -142zM397 401q1 -85 15 -153l768 907q-63 180 -240 180 q-121 0 -227.5 -99t-173 -246.5t-104.5 -304.5t-38 -284zM424 199q23 -63 83 -121t163 -58q127 0 235.5 110t171 267.5t97 312t34.5 263.5q0 57 -12 131z" />
<glyph unicode="&#xd9;" horiz-adv-x="1449" d="M258 305q0 61 49 221l178 586q31 104 31 127q0 72 -129 72h-31l15 45h553l-15 -45h-28q-59 0 -92 -8.5t-58.5 -42t-37 -64.5t-36.5 -111l-174 -575q-55 -182 -55 -236q0 -125 96.5 -187t218.5 -62q199 0 330 131q80 80 150 311l172 567q43 141 43 168q0 47 -39 72 t-133 37l14 45h432l-14 -45q-94 -2 -148.5 -48t-83.5 -147l-198 -655q0 -2 -2 -7t-5.5 -14.5t-5.5 -15.5q-14 -51 -26 -84t-40 -93.5t-66 -101.5t-92 -84t-133 -64.5t-175 -21.5q-190 0 -307 62q-158 82 -158 268zM884 1755q0 27 19.5 43t42.5 16q33 0 58.5 -26.5 t62.5 -87.5l143 -226l-20 -16l-224 190q-82 70 -82 107z" />
<glyph unicode="&#xda;" horiz-adv-x="1449" d="M258 305q0 61 49 221l178 586q31 104 31 127q0 72 -129 72h-31l15 45h553l-15 -45h-28q-59 0 -92 -8.5t-58.5 -42t-37 -64.5t-36.5 -111l-174 -575q-55 -182 -55 -236q0 -125 96.5 -187t218.5 -62q199 0 330 131q80 80 150 311l172 567q43 141 43 168q0 47 -39 72 t-133 37l14 45h432l-14 -45q-94 -2 -148.5 -48t-83.5 -147l-198 -655q0 -2 -2 -7t-5.5 -14.5t-5.5 -15.5q-14 -51 -26 -84t-40 -93.5t-66 -101.5t-92 -84t-133 -64.5t-175 -21.5q-190 0 -307 62q-158 82 -158 268zM983 1474l142 226q27 43 42 62t36.5 35.5t42.5 16.5 q23 0 42 -16.5t19 -42.5q0 -39 -80 -107l-223 -190z" />
<glyph unicode="&#xdb;" horiz-adv-x="1449" d="M258 305q0 61 49 221l178 586q31 104 31 127q0 72 -129 72h-31l15 45h553l-15 -45h-28q-59 0 -92 -8.5t-58.5 -42t-37 -64.5t-36.5 -111l-174 -575q-55 -182 -55 -236q0 -125 96.5 -187t218.5 -62q199 0 330 131q80 80 150 311l172 567q43 141 43 168q0 47 -39 72 t-133 37l14 45h432l-14 -45q-94 -2 -148.5 -48t-83.5 -147l-198 -655q0 -2 -2 -7t-5.5 -14.5t-5.5 -15.5q-14 -51 -26 -84t-40 -93.5t-66 -101.5t-92 -84t-133 -64.5t-175 -21.5q-190 0 -307 62q-158 82 -158 268zM809 1460l375 391h98l17 -391h-21l-117 246l-313 -246h-39z " />
<glyph unicode="&#xdc;" horiz-adv-x="1449" d="M258 305q0 61 49 221l178 586q31 104 31 127q0 72 -129 72h-31l15 45h553l-15 -45h-28q-59 0 -92 -8.5t-58.5 -42t-37 -64.5t-36.5 -111l-174 -575q-55 -182 -55 -236q0 -125 96.5 -187t218.5 -62q199 0 330 131q80 80 150 311l172 567q43 141 43 168q0 47 -39 72 t-133 37l14 45h432l-14 -45q-94 -2 -148.5 -48t-83.5 -147l-198 -655q0 -2 -2 -7t-5.5 -14.5t-5.5 -15.5q-14 -51 -26 -84t-40 -93.5t-66 -101.5t-92 -84t-133 -64.5t-175 -21.5q-190 0 -307 62q-158 82 -158 268zM836 1632q0 35 24.5 59.5t59.5 24.5t60.5 -24.5t25.5 -59.5 t-25.5 -59.5t-60.5 -24.5t-59.5 24.5t-24.5 59.5zM1186 1632q0 35 24.5 59.5t59.5 24.5t60.5 -24.5t25.5 -59.5t-25.5 -59.5t-60.5 -24.5t-59.5 24.5t-24.5 59.5z" />
<glyph unicode="&#xdd;" horiz-adv-x="1130" d="M141 0l15 45h61q57 0 94 12.5t60.5 46t35 62.5t31.5 92q143 471 144 797q0 238 -70 237q-53 0 -130 -126t-106 -216h-45q31 80 73 166t120 175t151 89q66 0 114 -80.5t48 -238.5q0 -203 -59 -459l4 -4q14 39 50 114.5t102.5 195.5t135 221.5t153.5 176t155 74.5 q59 0 97 -32.5t38 -83.5q0 -31 -18.5 -54.5t-46.5 -23.5q-20 0 -40 14t-20 51q0 68 -49 68q-55 0 -140 -96.5t-167 -227.5q-88 -141 -152.5 -282.5t-92.5 -223t-73 -229.5q-29 -86 -28.5 -116.5t16.5 -52t43 -31t45.5 -12.5t34.5 -3h59l-14 -45h-629zM813 1474l142 226 q27 43 42 62t36.5 35.5t42.5 16.5q23 0 42 -16.5t19 -42.5q0 -39 -80 -107l-223 -190z" />
<glyph unicode="&#xde;" horiz-adv-x="1110" d="M29 0l12 45q152 0 188 127q0 4 10.5 38t12.5 40l262 862q31 100 31 127q0 72 -129 72h-47l14 45h559l-14 -45h-31q-135 0 -178 -121l-49 -164q131 2 215 -9t155 -52q158 -90 158 -260q0 -90 -52 -175.5t-145 -130.5q-141 -70 -446 -69h-96l-21 -70q0 -2 -8 -31 q-20 -72 -20 -88q0 -41 32.5 -64.5t58 -27.5t48.5 -4h33l-15 -45h-538zM471 375h59q82 0 129.5 3t117 26.5t116.5 68.5q121 104 121 266q0 109 -62 176q-39 43 -94.5 54.5t-155.5 11.5h-47z" />
<glyph unicode="&#xdf;" horiz-adv-x="894" d="M-381 -340q0 27 16.5 43t40.5 16q29 0 48.5 -19t19.5 -52q0 -4 -8 -43q-6 -25 16.5 -36t57.5 -11q102 0 155 102t125 377l215 815q16 57 23.5 86t30 92.5t43 101t55.5 90t71.5 81t89 50t111.5 21.5q121 0 179.5 -80t58.5 -180q0 -160 -131 -274q-72 -61 -201 -95v-4 q90 -18 151.5 -89.5t61.5 -184.5q0 -197 -125 -349.5t-281 -152.5q-55 0 -100 32t-45 85q0 61 49 61q55 0 62 -84q0 -49 51 -49q47 0 97 49.5t79 110.5q80 188 80 356q0 111 -52.5 153t-154.5 48l10 43q147 0 223 88q47 55 74 158.5t27 169.5q0 135 -111 135 q-45 0 -82 -16.5t-65.5 -54.5t-50 -73.5t-43 -102t-35 -109.5t-33.5 -125l-201 -764q-76 -289 -164 -426t-245 -137q-92 0 -142.5 47t-50.5 100z" />
<glyph unicode="&#xe0;" horiz-adv-x="854" d="M90 193q0 152 86 308t203 251.5t207 95.5q45 0 78.5 -26.5t42.5 -73.5h4l22 83h121l-178 -585q-39 -123 -39 -154q0 -41 37 -41q66 0 149 146q8 8 8 12h43q-47 -100 -117.5 -169t-127.5 -69q-53 0 -76 38t-23 83q0 39 21 105l-4 4q-39 -74 -123 -152t-164 -78 q-68 0 -119 57.5t-51 164.5zM209 162q0 -133 82 -133q49 0 119 61q88 76 155 219q43 94 78 216t35 169q0 45 -22.5 73t-61.5 28q-84 0 -177 -123t-150.5 -271.5t-57.5 -238.5zM462 1256q0 27 19.5 43t42.5 16q33 0 58.5 -26.5t62.5 -87.5l143 -226l-20 -16l-224 190 q-82 70 -82 107z" />
<glyph unicode="&#xe1;" horiz-adv-x="854" d="M90 193q0 152 86 308t203 251.5t207 95.5q45 0 78.5 -26.5t42.5 -73.5h4l22 83h121l-178 -585q-39 -123 -39 -154q0 -41 37 -41q66 0 149 146q8 8 8 12h43q-47 -100 -117.5 -169t-127.5 -69q-53 0 -76 38t-23 83q0 39 21 105l-4 4q-39 -74 -123 -152t-164 -78 q-68 0 -119 57.5t-51 164.5zM209 162q0 -133 82 -133q49 0 119 61q88 76 155 219q43 94 78 216t35 169q0 45 -22.5 73t-61.5 28q-84 0 -177 -123t-150.5 -271.5t-57.5 -238.5zM530 975l142 226q27 43 42 62t36.5 35.5t42.5 16.5q23 0 42 -16.5t19 -42.5q0 -39 -80 -107 l-223 -190z" />
<glyph unicode="&#xe2;" horiz-adv-x="854" d="M90 193q0 152 86 308t203 251.5t207 95.5q45 0 78.5 -26.5t42.5 -73.5h4l22 83h121l-178 -585q-39 -123 -39 -154q0 -41 37 -41q66 0 149 146q8 8 8 12h43q-47 -100 -117.5 -169t-127.5 -69q-53 0 -76 38t-23 83q0 39 21 105l-4 4q-39 -74 -123 -152t-164 -78 q-68 0 -119 57.5t-51 164.5zM209 162q0 -133 82 -133q49 0 119 61q88 76 155 219q43 94 78 216t35 169q0 45 -22.5 73t-61.5 28q-84 0 -177 -123t-150.5 -271.5t-57.5 -238.5zM346 961l375 391h98l17 -391h-21l-117 246l-313 -246h-39z" />
<glyph unicode="&#xe3;" horiz-adv-x="854" d="M90 193q0 152 86 308t203 251.5t207 95.5q45 0 78.5 -26.5t42.5 -73.5h4l22 83h121l-178 -585q-39 -123 -39 -154q0 -41 37 -41q66 0 149 146q8 8 8 12h43q-47 -100 -117.5 -169t-127.5 -69q-53 0 -76 38t-23 83q0 39 21 105l-4 4q-39 -74 -123 -152t-164 -78 q-68 0 -119 57.5t-51 164.5zM209 162q0 -133 82 -133q49 0 119 61q88 76 155 219q43 94 78 216t35 169q0 45 -22.5 73t-61.5 28q-84 0 -177 -123t-150.5 -271.5t-57.5 -238.5zM332 1008q18 242 194 242q45 0 83 -20.5t102 -67.5q18 -18 30 -25q41 -33 74 -33q96 1 100 144 h29q0 -76 -22.5 -128.5t-57.5 -75t-60.5 -30.5t-45.5 -8q-80 0 -170 76q-53 45 -73.5 57t-49.5 12q-94 0 -105 -143h-28z" />
<glyph unicode="&#xe4;" horiz-adv-x="854" d="M90 193q0 152 86 308t203 251.5t207 95.5q45 0 78.5 -26.5t42.5 -73.5h4l22 83h121l-178 -585q-39 -123 -39 -154q0 -41 37 -41q66 0 149 146q8 8 8 12h43q-47 -100 -117.5 -169t-127.5 -69q-53 0 -76 38t-23 83q0 39 21 105l-4 4q-39 -74 -123 -152t-164 -78 q-68 0 -119 57.5t-51 164.5zM209 162q0 -133 82 -133q49 0 119 61q88 76 155 219q43 94 78 216t35 169q0 45 -22.5 73t-61.5 28q-84 0 -177 -123t-150.5 -271.5t-57.5 -238.5zM383 1133q0 35 24.5 59.5t59.5 24.5t60.5 -24.5t25.5 -59.5t-25.5 -59.5t-60.5 -24.5t-59.5 24.5 t-24.5 59.5zM733 1133q0 35 24.5 59.5t59.5 24.5t60.5 -24.5t25.5 -59.5t-25.5 -59.5t-60.5 -24.5t-59.5 24.5t-24.5 59.5z" />
<glyph unicode="&#xe5;" horiz-adv-x="854" d="M90 193q0 152 86 308t203 251.5t207 95.5q45 0 78.5 -26.5t42.5 -73.5h4l22 83h121l-178 -585q-39 -123 -39 -154q0 -41 37 -41q66 0 149 146q8 8 8 12h43q-47 -100 -117.5 -169t-127.5 -69q-53 0 -76 38t-23 83q0 39 21 105l-4 4q-39 -74 -123 -152t-164 -78 q-68 0 -119 57.5t-51 164.5zM209 162q0 -133 82 -133q49 0 119 61q88 76 155 219q43 94 78 216t35 169q0 45 -22.5 73t-61.5 28q-84 0 -177 -123t-150.5 -271.5t-57.5 -238.5zM473 1186q0 78 55.5 132.5t133 54.5t133 -54.5t55.5 -132.5t-55.5 -133t-133 -55t-133 55 t-55.5 133zM535 1186q0 -55 36.5 -93t92.5 -38q53 0 91 38t38 91q0 57 -39.5 96t-94.5 39q-53 0 -88.5 -40t-35.5 -93z" />
<glyph unicode="&#xe6;" horiz-adv-x="937" d="M61 127q0 127 86 262t210 233.5t257.5 162t229.5 63.5q63 0 99 -39t36 -96q0 -104 -125 -214t-301 -163q-25 -72 -25 -166q0 -72 26 -111t64 -39q61 0 131 68t113 164h41q-47 -115 -128 -198t-189 -83q-162 0 -166 172h-4q-39 -68 -88 -109.5t-81 -52t-57 -10.5 q-14 0 -29.5 4.5t-41 16.5t-42 47t-16.5 88zM180 123q0 -86 58 -86q39 0 80.5 43t58 71.5t45.5 79.5q0 2 4 13.5t4 13.5q49 182 132 323.5t155 198.5l-4 4q-131 -47 -239.5 -141t-169 -195.5t-92.5 -187.5t-32 -137zM565 381q150 45 232 137q100 117 100 219 q0 33 -17.5 52.5t-45.5 19.5q-70 0 -147 -126t-122 -302z" />
<glyph unicode="&#xe7;" horiz-adv-x="661" d="M-53 -481l12 41q86 0 149.5 16t94 41t45 49.5t14.5 46.5q0 90 -162 90l121 174q-131 35 -131 226q0 233 160 439t305 206q57 0 91 -36t34 -81q0 -37 -17.5 -54.5t-40 -17.5t-40 18.5t-19.5 53.5q0 68 -45 68q-68 0 -142.5 -123t-120.5 -274.5t-46 -245.5q0 -59 29.5 -92 t68.5 -33q68 0 136.5 77.5t103.5 176.5h41q-55 -158 -144.5 -236t-179.5 -78l-47 -67q82 -6 117 -51.5t35 -92.5q0 -8 -1 -20t-13.5 -43t-32 -56.5t-64.5 -55t-104 -46.5q-96 -23 -207 -20z" />
<glyph unicode="&#xe8;" horiz-adv-x="618" d="M80 186q0 152 79 309.5t188.5 255t199.5 97.5q47 0 74.5 -26.5t34 -51.5t6.5 -49q0 -209 -420 -391q-2 0 -9 -2l-4 -4q-31 -88 -30 -166q0 -37 10 -63.5t22.5 -38t30 -18.5t24.5 -8t15 -1q138 0 240 227h49q-55 -129 -141.5 -207t-184.5 -78q-72 0 -128 53.5t-56 161.5z M244 375q123 55 229.5 157.5t106.5 186.5q0 76 -64 76q-55 0 -136 -108.5t-136 -311.5zM346 1256q0 27 19.5 43t42.5 16q33 0 58.5 -26.5t62.5 -87.5l143 -226l-20 -16l-224 190q-82 70 -82 107z" />
<glyph unicode="&#xe9;" horiz-adv-x="618" d="M80 186q0 152 79 309.5t188.5 255t199.5 97.5q47 0 74.5 -26.5t34 -51.5t6.5 -49q0 -209 -420 -391q-2 0 -9 -2l-4 -4q-31 -88 -30 -166q0 -37 10 -63.5t22.5 -38t30 -18.5t24.5 -8t15 -1q138 0 240 227h49q-55 -129 -141.5 -207t-184.5 -78q-72 0 -128 53.5t-56 161.5z M244 375q123 55 229.5 157.5t106.5 186.5q0 76 -64 76q-55 0 -136 -108.5t-136 -311.5zM413 975l142 226q27 43 42 62t36.5 35.5t42.5 16.5q23 0 42 -16.5t19 -42.5q0 -39 -80 -107l-223 -190z" />
<glyph unicode="&#xea;" horiz-adv-x="618" d="M80 186q0 152 79 309.5t188.5 255t199.5 97.5q47 0 74.5 -26.5t34 -51.5t6.5 -49q0 -209 -420 -391q-2 0 -9 -2l-4 -4q-31 -88 -30 -166q0 -37 10 -63.5t22.5 -38t30 -18.5t24.5 -8t15 -1q138 0 240 227h49q-55 -129 -141.5 -207t-184.5 -78q-72 0 -128 53.5t-56 161.5z M244 375q123 55 229.5 157.5t106.5 186.5q0 76 -64 76q-55 0 -136 -108.5t-136 -311.5zM250 961l375 391h98l17 -391h-21l-117 246l-313 -246h-39z" />
<glyph unicode="&#xeb;" horiz-adv-x="618" d="M80 186q0 152 79 309.5t188.5 255t199.5 97.5q47 0 74.5 -26.5t34 -51.5t6.5 -49q0 -209 -420 -391q-2 0 -9 -2l-4 -4q-31 -88 -30 -166q0 -37 10 -63.5t22.5 -38t30 -18.5t24.5 -8t15 -1q138 0 240 227h49q-55 -129 -141.5 -207t-184.5 -78q-72 0 -128 53.5t-56 161.5z M244 375q123 55 229.5 157.5t106.5 186.5q0 76 -64 76q-55 0 -136 -108.5t-136 -311.5zM287 1133q0 35 24.5 59.5t59.5 24.5t60.5 -24.5t25.5 -59.5t-25.5 -59.5t-60.5 -24.5t-59.5 24.5t-24.5 59.5zM637 1133q0 35 24.5 59.5t59.5 24.5t60.5 -24.5t25.5 -59.5t-25.5 -59.5 t-60.5 -24.5t-59.5 24.5t-24.5 59.5z" />
<glyph unicode="&#xec;" d="M84 612q66 125 135.5 180.5t122.5 55.5q49 0 78 -33t29 -84q-1 -49 -54 -194l-96 -261q-53 -135 -53 -176q0 -23 10 -36t18.5 -16t16.5 -3q31 0 77 41t91 123q4 8 6 10h49q-49 -102 -124 -175t-144 -73q-41 0 -80 30t-39 103q0 55 27 121l143 387q41 113 41 131 q0 39 -37 39q-35 0 -87 -55t-83 -115h-47zM241 1256q0 27 19.5 43t42.5 16q33 0 58.5 -26.5t62.5 -87.5l143 -226l-20 -16l-224 190q-82 70 -82 107z" />
<glyph unicode="&#xed;" d="M84 612q66 125 135.5 180.5t122.5 55.5q49 0 78 -33t29 -84q-1 -49 -54 -194l-96 -261q-53 -135 -53 -176q0 -23 10 -36t18.5 -16t16.5 -3q31 0 77 41t91 123q4 8 6 10h49q-49 -102 -124 -175t-144 -73q-41 0 -80 30t-39 103q0 55 27 121l143 387q41 113 41 131 q0 39 -37 39q-35 0 -87 -55t-83 -115h-47zM350 975l142 226q27 43 42 62t36.5 35.5t42.5 16.5q23 0 42 -16.5t19 -42.5q0 -39 -80 -107l-223 -190z" />
<glyph unicode="&#xee;" d="M84 612q66 125 135.5 180.5t122.5 55.5q49 0 78 -33t29 -84q-1 -49 -54 -194l-96 -261q-53 -135 -53 -176q0 -23 10 -36t18.5 -16t16.5 -3q31 0 77 41t91 123q4 8 6 10h49q-49 -102 -124 -175t-144 -73q-41 0 -80 30t-39 103q0 55 27 121l143 387q41 113 41 131 q0 39 -37 39q-35 0 -87 -55t-83 -115h-47zM166 961l375 391h98l17 -391h-21l-117 246l-313 -246h-39z" />
<glyph unicode="&#xef;" d="M84 612q66 125 135.5 180.5t122.5 55.5q49 0 78 -33t29 -84q-1 -49 -54 -194l-96 -261q-53 -135 -53 -176q0 -23 10 -36t18.5 -16t16.5 -3q31 0 77 41t91 123q4 8 6 10h49q-49 -102 -124 -175t-144 -73q-41 0 -80 30t-39 103q0 55 27 121l143 387q41 113 41 131 q0 39 -37 39q-35 0 -87 -55t-83 -115h-47zM203 1133q0 35 24.5 59.5t59.5 24.5t60.5 -24.5t25.5 -59.5t-25.5 -59.5t-60.5 -24.5t-59.5 24.5t-24.5 59.5zM553 1133q0 35 24.5 59.5t59.5 24.5t60.5 -24.5t25.5 -59.5t-25.5 -59.5t-60.5 -24.5t-59.5 24.5t-24.5 59.5z" />
<glyph unicode="&#xf0;" horiz-adv-x="788" d="M98 244q0 143 60.5 283.5t160 229.5t203.5 89q45 0 94 -23q-33 168 -79 269l-232 -123l-24 49l231 121q-39 72 -94 147l84 60q57 -66 114 -154l164 88l25 -49l-162 -88q51 -121 75.5 -222.5t24.5 -248.5q0 -184 -46 -327.5t-115.5 -220.5t-140 -116t-134.5 -39 q-92 0 -150.5 74t-58.5 201zM213 154q0 -139 104 -140q70 0 132 78q55 70 115.5 260.5t60.5 315.5q0 27 -5.5 52t-31 53t-68.5 28t-82 -28t-57 -58q-63 -102 -115.5 -273t-52.5 -288z" />
<glyph unicode="&#xf1;" horiz-adv-x="874" d="M74 -14l188 612q4 12 10.5 30.5t6.5 22.5q23 76 22 82q0 33 -28.5 33t-67.5 -42t-72 -103h-47q125 227 238 227q78 0 77 -96q1 -85 -65 -263l4 -4q174 362 346 363q55 0 96 -36t41 -107q0 -45 -41 -168l-106 -320q0 -2 -3 -10t-6 -16.5t-5 -16.5q-27 -74 -27 -100 q0 -41 35 -41q14 0 32.5 9t53.5 47t69 99h52q-113 -217 -250 -217q-20 0 -42 6.5t-45.5 34t-23.5 70.5q0 39 47 178l107 303q43 125 43 162q0 61 -60 61q-84 0 -200 -176q-121 -184 -207 -465l-49 -159h-123zM342 1008q18 242 194 242q45 0 83 -20.5t102 -67.5 q18 -18 30 -25q41 -33 74 -33q96 1 100 144h29q0 -76 -22.5 -128.5t-57.5 -75t-60.5 -30.5t-45.5 -8q-80 0 -170 76q-53 45 -73.5 57t-49.5 12q-94 0 -105 -143h-28z" />
<glyph unicode="&#xf2;" horiz-adv-x="747" d="M100 262q0 215 130 400.5t290 185.5q84 0 144.5 -71.5t60.5 -213.5q0 -137 -52 -272t-150.5 -227.5t-213.5 -92.5q-59 0 -101 28t-62.5 61.5t-32 83t-12.5 71.5t-1 47zM207 147q0 -47 26.5 -89t79.5 -42q74 0 137.5 86t97.5 204t52 215t18 141q0 72 -30.5 106.5 t-73.5 34.5q-92 0 -167 -134t-107.5 -281t-32.5 -241zM368 1256q0 27 19.5 43t42.5 16q33 0 58.5 -26.5t62.5 -87.5l143 -226l-20 -16l-224 190q-82 70 -82 107z" />
<glyph unicode="&#xf3;" horiz-adv-x="747" d="M100 262q0 215 130 400.5t290 185.5q84 0 144.5 -71.5t60.5 -213.5q0 -137 -52 -272t-150.5 -227.5t-213.5 -92.5q-59 0 -101 28t-62.5 61.5t-32 83t-12.5 71.5t-1 47zM207 147q0 -47 26.5 -89t79.5 -42q74 0 137.5 86t97.5 204t52 215t18 141q0 72 -30.5 106.5 t-73.5 34.5q-92 0 -167 -134t-107.5 -281t-32.5 -241zM477 975l142 226q27 43 42 62t36.5 35.5t42.5 16.5q23 0 42 -16.5t19 -42.5q0 -39 -80 -107l-223 -190z" />
<glyph unicode="&#xf4;" horiz-adv-x="747" d="M100 262q0 215 130 400.5t290 185.5q84 0 144.5 -71.5t60.5 -213.5q0 -137 -52 -272t-150.5 -227.5t-213.5 -92.5q-59 0 -101 28t-62.5 61.5t-32 83t-12.5 71.5t-1 47zM207 147q0 -47 26.5 -89t79.5 -42q74 0 137.5 86t97.5 204t52 215t18 141q0 72 -30.5 106.5 t-73.5 34.5q-92 0 -167 -134t-107.5 -281t-32.5 -241zM293 961l375 391h98l17 -391h-21l-117 246l-313 -246h-39z" />
<glyph unicode="&#xf5;" horiz-adv-x="747" d="M100 262q0 215 130 400.5t290 185.5q84 0 144.5 -71.5t60.5 -213.5q0 -137 -52 -272t-150.5 -227.5t-213.5 -92.5q-59 0 -101 28t-62.5 61.5t-32 83t-12.5 71.5t-1 47zM207 147q0 -47 26.5 -89t79.5 -42q74 0 137.5 86t97.5 204t52 215t18 141q0 72 -30.5 106.5 t-73.5 34.5q-92 0 -167 -134t-107.5 -281t-32.5 -241zM279 1008q18 242 194 242q45 0 83 -20.5t102 -67.5q18 -18 30 -25q41 -33 74 -33q96 1 100 144h29q0 -76 -22.5 -128.5t-57.5 -75t-60.5 -30.5t-45.5 -8q-80 0 -170 76q-53 45 -73.5 57t-49.5 12q-94 0 -105 -143h-28z " />
<glyph unicode="&#xf6;" horiz-adv-x="747" d="M100 262q0 215 130 400.5t290 185.5q84 0 144.5 -71.5t60.5 -213.5q0 -137 -52 -272t-150.5 -227.5t-213.5 -92.5q-59 0 -101 28t-62.5 61.5t-32 83t-12.5 71.5t-1 47zM207 147q0 -47 26.5 -89t79.5 -42q74 0 137.5 86t97.5 204t52 215t18 141q0 72 -30.5 106.5 t-73.5 34.5q-92 0 -167 -134t-107.5 -281t-32.5 -241zM330 1133q0 35 24.5 59.5t59.5 24.5t60.5 -24.5t25.5 -59.5t-25.5 -59.5t-60.5 -24.5t-59.5 24.5t-24.5 59.5zM680 1133q0 35 24.5 59.5t59.5 24.5t60.5 -24.5t25.5 -59.5t-25.5 -59.5t-60.5 -24.5t-59.5 24.5 t-24.5 59.5z" />
<glyph unicode="&#xf7;" horiz-adv-x="1366" d="M238 602v107h1081v-107h-1081zM705 237.5q0 -28.5 21.5 -50t50 -21.5t50 21.5t21.5 50t-21.5 50t-50 21.5t-50 -21.5t-21.5 -50zM707 1073q0 -29 21.5 -50.5t50 -21.5t50 21.5t21.5 50.5t-21.5 50.5t-50 21.5t-50 -21.5t-21.5 -50.5z" />
<glyph unicode="&#xf8;" horiz-adv-x="747" d="M63 20l66 78q-29 72 -29 158q0 223 132.5 407.5t287.5 184.5q111 0 160 -100l96 112v-69l-74 -89q20 -49 21 -145q0 -139 -53.5 -272t-153.5 -222.5t-219 -89.5q-86 0 -145 76l-89 -98v69zM209 125q6 -47 32.5 -77t71.5 -30q109 0 189 172q71 152 114 408l-4 4zM209 197 l6 -2l406 483q-2 53 -31 87t-76 34q-72 0 -132 -78t-95 -187.5t-55.5 -198.5t-22.5 -138z" />
<glyph unicode="&#xf9;" horiz-adv-x="874" d="M102 608q41 109 105.5 174.5t128.5 65.5q33 0 63.5 -22.5t30.5 -75.5q0 -33 -37 -142l-125 -370q-39 -113 -39 -140q0 -66 60 -65q78 0 176 149q137 207 262 594l18 58h119l-174 -574q-43 -150 -43 -170q0 -49 41 -49q74 0 146 166h40q-10 -31 -23 -59.5t-42 -74.5 t-72 -74t-92 -28q-98 0 -98 109q0 66 47 221q0 2 3 11.5t3 11.5h-4q-23 -49 -51.5 -98.5t-73.5 -113t-102.5 -102.5t-114.5 -39q-61 0 -98 37t-37 101q0 57 45 188l123 358q4 6 6 19q23 59 22 78q0 27 -26 26q-63 0 -139 -170h-48zM432 1256q0 27 19.5 43t42.5 16 q33 0 58.5 -26.5t62.5 -87.5l143 -226l-20 -16l-224 190q-82 70 -82 107z" />
<glyph unicode="&#xfa;" horiz-adv-x="874" d="M102 608q41 109 105.5 174.5t128.5 65.5q33 0 63.5 -22.5t30.5 -75.5q0 -33 -37 -142l-125 -370q-39 -113 -39 -140q0 -66 60 -65q78 0 176 149q137 207 262 594l18 58h119l-174 -574q-43 -150 -43 -170q0 -49 41 -49q74 0 146 166h40q-10 -31 -23 -59.5t-42 -74.5 t-72 -74t-92 -28q-98 0 -98 109q0 66 47 221q0 2 3 11.5t3 11.5h-4q-23 -49 -51.5 -98.5t-73.5 -113t-102.5 -102.5t-114.5 -39q-61 0 -98 37t-37 101q0 57 45 188l123 358q4 6 6 19q23 59 22 78q0 27 -26 26q-63 0 -139 -170h-48zM540 975l142 226q27 43 42 62t36.5 35.5 t42.5 16.5q23 0 42 -16.5t19 -42.5q0 -39 -80 -107l-223 -190z" />
<glyph unicode="&#xfb;" horiz-adv-x="874" d="M102 608q41 109 105.5 174.5t128.5 65.5q33 0 63.5 -22.5t30.5 -75.5q0 -33 -37 -142l-125 -370q-39 -113 -39 -140q0 -66 60 -65q78 0 176 149q137 207 262 594l18 58h119l-174 -574q-43 -150 -43 -170q0 -49 41 -49q74 0 146 166h40q-10 -31 -23 -59.5t-42 -74.5 t-72 -74t-92 -28q-98 0 -98 109q0 66 47 221q0 2 3 11.5t3 11.5h-4q-23 -49 -51.5 -98.5t-73.5 -113t-102.5 -102.5t-114.5 -39q-61 0 -98 37t-37 101q0 57 45 188l123 358q4 6 6 19q23 59 22 78q0 27 -26 26q-63 0 -139 -170h-48zM356 961l375 391h98l17 -391h-21l-117 246 l-313 -246h-39z" />
<glyph unicode="&#xfc;" horiz-adv-x="874" d="M102 608q41 109 105.5 174.5t128.5 65.5q33 0 63.5 -22.5t30.5 -75.5q0 -33 -37 -142l-125 -370q-39 -113 -39 -140q0 -66 60 -65q78 0 176 149q137 207 262 594l18 58h119l-174 -574q-43 -150 -43 -170q0 -49 41 -49q74 0 146 166h40q-10 -31 -23 -59.5t-42 -74.5 t-72 -74t-92 -28q-98 0 -98 109q0 66 47 221q0 2 3 11.5t3 11.5h-4q-23 -49 -51.5 -98.5t-73.5 -113t-102.5 -102.5t-114.5 -39q-61 0 -98 37t-37 101q0 57 45 188l123 358q4 6 6 19q23 59 22 78q0 27 -26 26q-63 0 -139 -170h-48zM393 1133q0 35 24.5 59.5t59.5 24.5 t60.5 -24.5t25.5 -59.5t-25.5 -59.5t-60.5 -24.5t-59.5 24.5t-24.5 59.5zM743 1133q0 35 24.5 59.5t59.5 24.5t60.5 -24.5t25.5 -59.5t-25.5 -59.5t-60.5 -24.5t-59.5 24.5t-24.5 59.5z" />
<glyph unicode="&#xfd;" horiz-adv-x="747" d="M-406 -426q0 31 28 48.5t56 17.5q25 0 72 -15q70 -18 105 -18q57 0 122.5 38t182.5 156q80 84 110 209q51 211 52 461q0 141 -26 216t-65 75q-68 0 -92 -187h-41q6 76 24.5 130.5t39 81t46 42t38 17.5t24.5 2q59 0 107 -74q55 -86 55 -293q0 -243 -55 -436l4 -4 q96 109 188.5 270.5t92.5 282.5q0 55 -25 96q-4 4 -14 25q-25 39 -25 67q0 27 14.5 46.5t38.5 19.5q39 0 60.5 -45t21.5 -117q0 -131 -70.5 -287.5t-171 -287.5t-214 -250t-194.5 -189.5t-116 -91.5q-133 -80 -246 -80q-57 0 -92 19.5t-35 54.5zM436 975l142 226 q27 43 42 62t36.5 35.5t42.5 16.5q23 0 42 -16.5t19 -42.5q0 -39 -80 -107l-223 -190z" />
<glyph unicode="&#xfe;" horiz-adv-x="854" d="M-186 -489l14 43q113 0 129 16t49 125l440 1452q29 92 29 106q0 20 -11 30.5t-24.5 12.5t-42.5 2h-32l12 41q152 2 225 33q10 4 35 4l-215 -696l4 -4q125 172 238 172q76 0 127 -68.5t51 -173.5q0 -217 -143.5 -426t-319.5 -209q-109 0 -135 103h-4l-117 -387 q-20 -63 -21 -93q0 -14 6.5 -23t24 -12t27.5 -3h41h45l-15 -45h-417zM270 131q0 -43 24.5 -79t78.5 -36q82 0 153.5 86t112.5 202t64.5 216.5t23.5 147.5q0 127 -82 127q-78 0 -166 -103q-37 -41 -66.5 -101.5t-40.5 -93t-34 -106.5l-41 -133q-27 -96 -27 -127z" />
<glyph unicode="&#xff;" horiz-adv-x="747" d="M-406 -426q0 31 28 48.5t56 17.5q25 0 72 -15q70 -18 105 -18q57 0 122.5 38t182.5 156q80 84 110 209q51 211 52 461q0 141 -26 216t-65 75q-68 0 -92 -187h-41q6 76 24.5 130.5t39 81t46 42t38 17.5t24.5 2q59 0 107 -74q55 -86 55 -293q0 -243 -55 -436l4 -4 q96 109 188.5 270.5t92.5 282.5q0 55 -25 96q-4 4 -14 25q-25 39 -25 67q0 27 14.5 46.5t38.5 19.5q39 0 60.5 -45t21.5 -117q0 -131 -70.5 -287.5t-171 -287.5t-214 -250t-194.5 -189.5t-116 -91.5q-133 -80 -246 -80q-57 0 -92 19.5t-35 54.5zM289 1133q0 35 24.5 59.5 t59.5 24.5t60.5 -24.5t25.5 -59.5t-25.5 -59.5t-60.5 -24.5t-59.5 24.5t-24.5 59.5zM639 1133q0 35 24.5 59.5t59.5 24.5t60.5 -24.5t25.5 -59.5t-25.5 -59.5t-60.5 -24.5t-59.5 24.5t-24.5 59.5z" />
<glyph unicode="&#x152;" horiz-adv-x="1898" d="M172 514q0 141 68.5 306t181.5 290q225 256 565 256q68 0 100 -2q4 0 35 -2t35 -4q2 0 29.5 -1t69.5 -1h77h656l4 -309h-37q-27 121 -105 204q-33 37 -75.5 48.5t-135.5 11.5h-188l-176 -576h115q59 0 85.5 2t61.5 15.5t64 42.5q70 70 104 170h45l-168 -541h-41 q8 59 8 111q0 55 -10 88.5t-36.5 47t-49 16.5t-70.5 3h-122l-132 -434q0 -2 -2 -7t-4 -13.5t-4 -12.5q0 -4 -2 -8v-4q-14 -43 -14 -66q0 -53 47 -76.5t156 -23.5h43q182 0 289.5 65.5t183.5 235.5h39l-109 -346h-780q-121 0 -195 -10q-43 -6 -98 -6q-90 0 -176 29.5t-162 90 t-123 167t-47 243.5zM360 426q0 -190 92.5 -296.5t221.5 -106.5q59 0 106 20t76 46t54.5 75t36 79t26.5 85l219 721q27 84 27 131q0 147 -220 147q-276 0 -426 -240q-80 -131 -146.5 -319t-66.5 -342z" />
<glyph unicode="&#x153;" horiz-adv-x="980" d="M102 262q0 131 64.5 270.5t161 227.5t182.5 88q117 0 162 -176q129 176 248 176q51 0 79.5 -33t28.5 -82q0 -111 -124 -223.5t-281 -163.5q-33 -98 -33 -190q0 -53 19.5 -85t34.5 -37t32 -5q45 0 106.5 53t120.5 174h41q-43 -102 -124 -193.5t-185 -91.5q-96 0 -146 99 q-88 -98 -178 -99q-102 0 -155.5 87t-53.5 204zM217 156q0 -68 24.5 -107t65.5 -39q49 0 89 57.5t85 190.5q20 57 64.5 217t44.5 221q0 55 -25.5 84t-60.5 29q-80 0 -149.5 -130t-103.5 -278.5t-34 -244.5zM635 391q135 41 223 143.5t88 188.5q0 76 -57 76q-45 0 -107 -70 q-75 -86 -147 -338z" />
<glyph unicode="&#x178;" horiz-adv-x="1130" d="M141 0l15 45h61q57 0 94 12.5t60.5 46t35 62.5t31.5 92q143 471 144 797q0 238 -70 237q-53 0 -130 -126t-106 -216h-45q31 80 73 166t120 175t151 89q66 0 114 -80.5t48 -238.5q0 -203 -59 -459l4 -4q14 39 50 114.5t102.5 195.5t135 221.5t153.5 176t155 74.5 q59 0 97 -32.5t38 -83.5q0 -31 -18.5 -54.5t-46.5 -23.5q-20 0 -40 14t-20 51q0 68 -49 68q-55 0 -140 -96.5t-167 -227.5q-88 -141 -152.5 -282.5t-92.5 -223t-73 -229.5q-29 -86 -28.5 -116.5t16.5 -52t43 -31t45.5 -12.5t34.5 -3h59l-14 -45h-629zM686 1632 q0 35 24.5 59.5t59.5 24.5t60.5 -24.5t25.5 -59.5t-25.5 -59.5t-60.5 -24.5t-59.5 24.5t-24.5 59.5zM1036 1632q0 35 24.5 59.5t59.5 24.5t60.5 -24.5t25.5 -59.5t-25.5 -59.5t-60.5 -24.5t-59.5 24.5t-24.5 59.5z" />
<glyph unicode="&#x2c6;" horiz-adv-x="681" d="M260 977l375 391h98l17 -391h-21l-117 246l-313 -246h-39z" />
<glyph unicode="&#x2dc;" horiz-adv-x="681" d="M246 1024q18 242 194 242q45 0 83 -20.5t102 -67.5q18 -18 30 -25q41 -33 74 -33q96 1 100 144h29q0 -76 -22.5 -128.5t-57.5 -75t-60.5 -30.5t-45.5 -8q-80 0 -170 76q-53 45 -73.5 57t-49.5 12q-94 0 -105 -143h-28z" />
<glyph unicode="&#x2000;" horiz-adv-x="936" />
<glyph unicode="&#x2001;" horiz-adv-x="1872" />
<glyph unicode="&#x2002;" horiz-adv-x="936" />
<glyph unicode="&#x2003;" horiz-adv-x="1872" />
<glyph unicode="&#x2004;" horiz-adv-x="624" />
<glyph unicode="&#x2005;" horiz-adv-x="468" />
<glyph unicode="&#x2006;" horiz-adv-x="312" />
<glyph unicode="&#x2007;" horiz-adv-x="312" />
<glyph unicode="&#x2008;" horiz-adv-x="234" />
<glyph unicode="&#x2009;" horiz-adv-x="374" />
<glyph unicode="&#x200a;" horiz-adv-x="104" />
<glyph unicode="&#x2010;" horiz-adv-x="681" d="M135 475l45 82h492l-47 -82h-490z" />
<glyph unicode="&#x2011;" horiz-adv-x="681" d="M135 475l45 82h492l-47 -82h-490z" />
<glyph unicode="&#x2012;" horiz-adv-x="681" d="M135 475l45 82h492l-47 -82h-490z" />
<glyph unicode="&#x2013;" horiz-adv-x="1024" d="M84 489v46h1049v-46h-1049z" />
<glyph unicode="&#x2014;" horiz-adv-x="2048" d="M84 489v46h2073v-46h-2073z" />
<glyph unicode="&#x2018;" d="M301 969q0 131 101.5 242.5t279.5 123.5v-39q-143 -23 -221 -92q-43 -39 -68.5 -88t-25.5 -80q0 -45 39 -45q4 0 22 2t21 2q14 0 32.5 -5t40 -29.5t21.5 -63.5q0 -57 -33 -84t-74 -27q-68 0 -101.5 54.5t-33.5 128.5z" />
<glyph unicode="&#x2019;" d="M231 786v39q143 23 222 93q43 39 68.5 88t25.5 79q0 45 -39 45q-4 0 -22.5 -2t-20.5 -2q-14 0 -32.5 5.5t-40 30t-21.5 63.5q0 57 32.5 83.5t73.5 26.5q68 0 101.5 -54t33.5 -128q0 -131 -101.5 -243t-279.5 -124z" />
<glyph unicode="&#x201a;" d="M-43 -319q143 23 221 92q43 39 68.5 88t25.5 80q0 45 -39 45q-4 0 -22 -2t-21 -2q-14 0 -32.5 5t-40 29.5t-21.5 63.5q0 57 33 83.5t74 26.5q68 0 101.5 -54t33.5 -128q0 -131 -101.5 -242.5t-279.5 -123.5v39z" />
<glyph unicode="&#x201c;" horiz-adv-x="937" d="M307 969q0 131 101.5 242.5t279.5 123.5v-39q-143 -23 -221 -92q-43 -39 -68.5 -88t-25.5 -80q0 -45 39 -45q4 0 22.5 2t20.5 2q14 0 32.5 -5t40 -29.5t21.5 -63.5q0 -57 -33 -84t-74 -27q-68 0 -101.5 54.5t-33.5 128.5zM760 969q0 131 101.5 242.5t279.5 123.5v-39 q-143 -23 -221 -92q-43 -39 -69 -88t-26 -80q0 -45 39 -45q4 0 22.5 2t20.5 2q14 0 32.5 -6t40 -29.5t21.5 -62.5q0 -57 -32.5 -84t-73.5 -27q-68 0 -101.5 54.5t-33.5 128.5z" />
<glyph unicode="&#x201d;" horiz-adv-x="937" d="M236 786v39q143 23 221 93q43 39 68.5 88t25.5 79q0 45 -39 45q-4 0 -22.5 -2t-20.5 -2q-14 0 -32.5 6.5t-40 30t-21.5 62.5q0 57 32.5 83.5t73.5 26.5q68 0 101.5 -54t33.5 -128q0 -131 -101 -243t-279 -124zM688 786v39q143 23 221 93q43 39 69 88t26 79q0 45 -39 45 q-4 0 -22.5 -2t-20.5 -2q-14 0 -33 5.5t-40.5 30t-21.5 63.5q0 57 33 83.5t74 26.5q68 0 101.5 -54t33.5 -128q0 -131 -101.5 -243t-279.5 -124z" />
<glyph unicode="&#x201e;" horiz-adv-x="937" d="M-41 -317q143 23 221 92q43 39 68.5 88t25.5 80q0 45 -38 45q-4 0 -22.5 -2t-20.5 -2q-14 0 -33 6t-40.5 29.5t-21.5 62.5q0 57 33 84t74 27q68 0 101.5 -54.5t33.5 -128.5q0 -131 -101.5 -242.5t-279.5 -123.5v39zM412 -317q143 23 221 92q43 39 68.5 88t25.5 80 q0 45 -39 45q-4 0 -22.5 -2t-20.5 -2q-14 0 -32.5 5t-40 29.5t-21.5 63.5q0 57 32.5 84t73.5 27q68 0 102 -54.5t34 -128.5q0 -131 -101.5 -242.5t-279.5 -123.5v39z" />
<glyph unicode="&#x2022;" horiz-adv-x="724" d="M205 655q0 104 75 178t177 74q104 0 177 -72.5t73 -179.5q0 -102 -73 -175.5t-177.5 -73.5t-178 73.5t-73.5 175.5z" />
<glyph unicode="&#x2026;" horiz-adv-x="2048" d="M240 76q0 43 30.5 74.5t75.5 31.5t76 -31.5t31 -74.5q0 -45 -31 -76t-76 -31t-75.5 31t-30.5 76zM920 76q0 43 30.5 74.5t73.5 31.5q45 0 77 -31.5t32 -74.5q0 -45 -32 -76t-77 -31t-74.5 31t-29.5 76zM1599 76q0 43 31 74.5t76 31.5t75.5 -31.5t30.5 -74.5 q0 -45 -30.5 -76t-75.5 -31t-76 31t-31 76z" />
<glyph unicode="&#x202f;" horiz-adv-x="374" />
<glyph unicode="&#x2039;" d="M125 440l367 363h59l-270 -385l65 -350h-47z" />
<glyph unicode="&#x203a;" d="M35 68l270 385l-65 350h47l174 -373l-367 -362h-59z" />
<glyph unicode="&#x205f;" horiz-adv-x="468" />
<glyph unicode="&#x2122;" horiz-adv-x="2004" d="M301 1167v189h674v-189h-25q-10 84 -40.5 114t-116.5 30h-93v-570q0 -109 21.5 -136t95.5 -25v-33h-356v33q74 -2 95.5 25.5t21.5 135.5v570h-93q-76 0 -111.5 -27t-45.5 -117h-27zM1047 547v33q82 0 98 23.5t16 117.5v459q0 61 -4 83.5t-28.5 39t-81.5 20.5v33h237 l295 -635l287 635h227v-33q-78 -4 -96.5 -24.5t-18.5 -104.5v-473q0 -90 18.5 -114.5t96.5 -26.5v-33h-346v33q78 0 98.5 24.5t20.5 116.5v514h-4l-308 -688h-16l-317 676h-4v-508q0 -92 16 -113.5t100 -21.5v-33h-286z" />
<glyph unicode="&#xe000;" horiz-adv-x="849" d="M0 0v850h850v-850h-850z" />
<glyph unicode="&#xfb01;" horiz-adv-x="811" d="M-420 -350q0 27 16.5 48t43.5 21q25 0 42 -18t17 -43q0 -18 -6 -37q0 -2 -2 -9t-2 -11q0 -18 17.5 -34t53.5 -16q51 0 88 23t66 75t44 94t40 124q25 88 33 123l198 784h-151l10 45h156l22 84q66 236 172 348q119 123 267 123q76 0 126 -31.5t50 -78.5q0 -18 -13.5 -35 t-38.5 -17q-31 0 -67 50q-47 63 -105 63q-86 0 -145 -95t-125 -337l-20 -74h284q100 0 158 23l-160 -582q0 -4 -8 -33q-33 -119 -33 -143q0 -39 29 -39t63.5 37t50 63.5t25.5 44.5h41q-104 -219 -233 -219q-39 0 -70 31t-31 80q0 29 35 154l152 538h-318l-192 -743 q-31 -117 -59.5 -196t-74.5 -160t-113 -121.5t-153 -40.5t-133 43t-47 94z" />
<glyph unicode="&#xfb02;" horiz-adv-x="831" d="M-422 -350q0 27 16.5 48t43.5 21q25 0 42 -18t17 -43q0 -18 -6 -37q-4 -8 -4 -20q0 -18 17 -34t54 -16q51 0 88 23t66 75t44 94t40 124q25 88 33 123l198 784h-151l10 45h156l22 84q135 471 438 471q47 0 97 -16q102 0 162 16l-308 -1114q-2 -8 -26 -94q-12 -51 -13 -80 q0 -41 27 -41t61.5 37t52 63.5t25.5 44.5h41q-104 -219 -233 -219q-33 0 -66 27t-33 84q0 37 33 154l152 538h-324l-192 -743q-31 -117 -59.5 -196t-75 -160t-113 -121.5t-152.5 -40.5t-133 43t-47 94zM365 819h321l111 402q-16 10 -37 41q-47 63 -105 63q-86 0 -146 -97.5 t-124 -334.5z" />
</font>
</defs>
</svg>
