<?xml version="1.0" standalone="no"?>
<!DOCTYPE svg PUBLIC "-//W3C//DTD SVG 1.1//EN" "http://www.w3.org/Graphics/SVG/1.1/DTD/svg11.dtd" >
<svg xmlns="http://www.w3.org/2000/svg">
<metadata></metadata>
<defs>
<font id="baskerville_mtbolditalic" horiz-adv-x="681" >
<font-face units-per-em="2048" ascent="1638" descent="-410" />
<missing-glyph horiz-adv-x="534" />
<glyph horiz-adv-x="2048" />
<glyph horiz-adv-x="2048" />
<glyph unicode="&#xd;" />
<glyph unicode=" "  horiz-adv-x="534" />
<glyph unicode="&#x09;" horiz-adv-x="534" />
<glyph unicode="&#xa0;" horiz-adv-x="534" />
<glyph unicode="!" horiz-adv-x="704" d="M119 124.5q0 65.5 46 112t111.5 46.5t110.5 -46t45 -112q0 -63 -46 -109.5t-110 -46.5q-66 0 -111.5 45t-45.5 110.5zM317 434l125 731q37 219 185 219q68 0 100.5 -48t32.5 -95q0 -59 -37 -143l-299 -664h-107z" />
<glyph unicode="&#x22;" horiz-adv-x="1130" d="M397 721l6 385q2 164 89 235q53 45 122 45q20 0 39 -4t44.5 -29.5t25.5 -72.5q0 -51 -68 -176l-209 -383h-49zM879 721l8 383q2 88 18.5 142t71.5 97q57 43 121 43q106 0 106 -110q1 -41 -69 -172l-207 -383h-49z" />
<glyph unicode="#" horiz-adv-x="1366" d="M174 336v190h209l63 301h-272v191h309l82 383h189l-82 -383h354l82 383h188l-82 -383h170v-191h-204l-62 -301h266v-190h-305l-82 -379h-188l82 379h-359l-79 -379h-189l80 379h-170zM571 526h359l59 301h-354z" />
<glyph unicode="$" horiz-adv-x="980" d="M51 199q0 39 29 66.5t65 27.5q78 0 127 -105q45 -80 97 -104l143 473l-31 29q-205 197 -205 379q0 59 27 124.5t79 129t149.5 100.5t222.5 29l24 65h99l-25 -82q92 -25 148.5 -73t68.5 -79.5t12 -56.5q0 -39 -27.5 -67.5t-66.5 -28.5q-37 0 -61.5 24.5t-34.5 47.5l-14 30 q-25 49 -62 82l-129 -419q8 -6 45 -43q66 -63 100.5 -102.5t69.5 -112t35 -150.5q0 -174 -144.5 -297t-357.5 -119l-55 -180h-103l60 193q-145 29 -215 91t-70 128zM465 66q31 2 60.5 7t76.5 22.5t76 58.5t29 100q0 96 -115 225zM506 1071q0 -84 102 -199l117 379 q-100 4 -159.5 -52t-59.5 -128z" />
<glyph unicode="%" horiz-adv-x="1878" d="M231 938q0 31 16.5 92.5t54.5 146.5t124 146t203 61q66 0 114 -19t73.5 -46t40.5 -61.5t18.5 -59t3.5 -47.5q0 -41 -9.5 -94t-37 -123t-68.5 -126t-113.5 -95t-163.5 -39q-256 0 -256 264zM403 0l1125 1356h145l-1124 -1356h-146zM428 805q0 -74 51 -74q18 0 37 20.5 t29 42t26 60.5q39 92 75 225t36 190.5t-45 57.5q-23 0 -39 -14.5t-23.5 -28.5t-19.5 -41q-39 -92 -83 -246.5t-44 -191.5zM1196 242q0 31 16.5 92t54.5 146t124 146.5t202 61.5q66 0 114 -19.5t73.5 -46t41 -61.5t18.5 -59.5t3 -46.5q0 -41 -9 -94.5t-37 -123t-68.5 -126 t-113.5 -95.5t-163 -39q-256 1 -256 265zM1393 109q0 -74 51 -74q18 0 36.5 20.5t29 42t26.5 60.5q39 92 75 225t36 190.5t-45 57.5q-23 0 -39.5 -14.5t-23.5 -29t-19 -40.5q-39 -92 -83 -246.5t-44 -191.5z" />
<glyph unicode="&#x26;" horiz-adv-x="1579" d="M96 291q0 256 412 457q-33 102 -33 206q0 147 97.5 258t265.5 111q141 0 215.5 -64.5t74.5 -154.5q0 -61 -27.5 -114.5t-83.5 -96.5t-92 -63.5t-98 -53.5l-28 -14q96 -219 213 -385q162 190 162 270q0 63 -84 64l36 108h426l-34 -108q-53 -8 -92.5 -33t-118.5 -113 q-18 -20 -116.5 -137t-115.5 -135q88 -104 166 -105q98 0 166 121h119q-47 -139 -158 -238.5t-240 -99.5q-59 0 -115.5 27t-82 49.5t-68.5 65.5q-190 -141 -395 -142q-174 0 -272.5 94.5t-98.5 225.5zM373 385q0 -88 63.5 -166t186.5 -78q82 1 170 52q-127 158 -250 446 q-170 -100 -170 -254zM729 1042q0 -76 33 -180q217 115 217 246q0 53 -33 85t-78 32q-16 0 -34.5 -5.5t-45 -20.5t-43 -56t-16.5 -101z" />
<glyph unicode="'" horiz-adv-x="575" d="M354 721l6 383q0 94 27 156.5t68 87t66.5 31.5t47.5 7q111 0 111 -108q0 -51 -68 -174l-209 -383h-49z" />
<glyph unicode="(" d="M150 166q0 336 153.5 634t542.5 584l82 -81q-70 -59 -117 -107.5t-116.5 -152t-133.5 -240.5q-115 -250 -167 -500t-52 -414q0 -188 49 -348l-102 -41q-139 344 -139 666z" />
<glyph unicode=")" d="M-190 -418q70 59 116.5 107.5t116.5 152t133 240.5q115 250 167 499.5t52 413.5q0 188 -49 348l103 41q139 -344 139 -665q0 -336 -153.5 -634t-543.5 -585z" />
<glyph unicode="*" horiz-adv-x="1130" d="M221 1071q0 57 42 102.5t95 45.5q35 0 67 -24t47 -44.5t38 -58.5q72 -121 125 -148q25 51 24 107q0 45 -6 82q0 39 -8 88q-6 66 29 106.5t90 40.5q47 0 96 -30.5t49 -90.5q0 -27 -12 -53.5t-25.5 -43.5t-44.5 -56q-90 -109 -98 -179q84 7 166 46l57 26q53 27 95 27 q59 0 93 -42t34 -98q0 -53 -32 -93t-93 -40q-39 0 -113 33q-117 49 -176 49q-6 0 -31 -4q20 -66 96 -155q59 -61 80 -92t21 -72q0 -53 -46 -88t-104 -35q-121 0 -121 155q0 12 5.5 75t5.5 73q0 57 -25 106q-57 -27 -131 -159q-66 -127 -148 -127q-53 0 -96 46t-43 101 q0 35 16.5 60.5t49.5 41t53 21.5t55 14q84 20 120 35t65 43q-41 43 -148 64q-53 10 -78.5 17t-63.5 23.5t-54.5 42t-16.5 62.5z" />
<glyph unicode="+" horiz-adv-x="1366" d="M223 571v209h451v451h209v-451h450v-209h-450v-450h-209v450h-451z" />
<glyph unicode="," horiz-adv-x="704" d="M-4 -395l31 98q158 14 243.5 95t85.5 145q0 25 -16 24q-51 0 -88 15.5t-54.5 34t-27.5 44t-11 38t-1 22.5q0 66 45 109.5t108 43.5q70 0 128.5 -59t58.5 -162q0 -170 -139.5 -308t-362.5 -140z" />
<glyph unicode="-" d="M35 272l82 271h590l-82 -271h-590z" />
<glyph unicode="." horiz-adv-x="704" d="M160 124.5q0 65.5 46 112t111.5 46.5t110.5 -46t45 -112q0 -63 -46 -109.5t-110 -46.5q-66 0 -111.5 45t-45.5 110.5z" />
<glyph unicode="/" horiz-adv-x="1280" d="M236 -33l716 1389h285l-715 -1389h-286z" />
<glyph unicode="0" horiz-adv-x="1067" d="M143 334q0 45 14.5 148.5t60.5 263t113.5 298t191.5 239.5t278 101q147 0 228 -96t81 -276q0 -102 -23.5 -231.5t-74.5 -274t-124 -263t-184.5 -196.5t-240.5 -78q-57 0 -108.5 16.5t-101.5 55.5t-80 114t-30 179zM371 170q0 -43 19.5 -67.5t35.5 -29.5t31 -5q59 0 98 65 q61 102 160 416q156 494 155 635q0 102 -77 102q-70 0 -108 -73.5t-114 -319.5q-84 -268 -118 -397q-82 -301 -82 -326z" />
<glyph unicode="1" horiz-adv-x="1067" d="M119 0l31 98q115 0 150.5 21.5t68.5 132.5l231 758q14 57 14 83.5t-14 43t-43 23.5t-48.5 8t-53.5 1h-45l28 93q308 3 492 122h82l-342 -1118q-12 -45 -13 -71q0 -96 144 -97l-31 -98h-651z" />
<glyph unicode="2" horiz-adv-x="1067" d="M45 0l47 154q74 55 229.5 190t223.5 207q244 260 243 522q0 68 -20 116t-52 67.5t-55.5 26.5t-46.5 7q-61 0 -112 -39t-51 -94q0 -49 51 -90q14 -6 14 -16q0 -14 -56.5 -50t-74.5 -36q-29 0 -57.5 46t-28.5 101q0 117 102.5 197t276.5 80q186 0 283 -74q123 -96 122 -248 q0 -270 -327 -530q-283 -227 -445 -322v-6h541l-82 -272h-100q4 20 4 30q0 33 -39 33h-590z" />
<glyph unicode="3" horiz-adv-x="1067" d="M49 162q0 43 24.5 76.5t69.5 33.5q68 0 117 -94q59 -111 133 -110q55 0 94 42t78 121q111 238 111 400q0 72 -47 71q-23 0 -109 -57q-12 -12 -33 -22q-29 -23 -53 -23q-14 0 -29.5 12.5t-15.5 34.5q0 31 39 55q8 6 27.5 18.5t48 30t39.5 23.5q188 119 237 168 q76 76 76 174q0 72 -44 121t-101 49q-49 0 -96.5 -40t-47.5 -109q0 -14 6 -41q8 -16 9 -31q0 -12 -50.5 -51t-62.5 -39q-10 0 -25.5 13t-31 46t-15.5 76q0 115 98.5 194.5t278.5 79.5q172 0 258 -69.5t86 -157.5q0 -80 -50 -153.5t-127 -124t-133 -78t-101 -43.5v-4 q119 -14 183 -86t64 -189q0 -203 -186 -356.5t-406 -153.5q-123 0 -218 51.5t-95 141.5z" />
<glyph unicode="4" horiz-adv-x="1067" d="M133 459l37 215l694 719h228l-248 -813h39q68 0 92 90q0 4 6 16h94l-74 -227h-196l-57 -193q-12 -45 -13 -69q0 -98 137 -99l-28 -98h-623l31 98q98 0 133 24t68 130l63 207h-383zM215 580h338l156 505l-4 5z" />
<glyph unicode="5" horiz-adv-x="1067" d="M47 152q0 39 25.5 68.5t70.5 29.5q31 0 57.5 -16.5t39 -33t30.5 -46.5q51 -86 121 -86q51 0 106.5 49t94.5 116q63 113 94 252.5t31 204.5q0 51 -29 92t-76 41q-18 0 -35.5 -5t-32 -11t-28.5 -18.5t-24.5 -21.5t-22.5 -24.5t-17.5 -22.5t-15.5 -22.5t-12 -17.5h-105 l220 676h628l-63 -174q-10 -27 -18.5 -31t-41.5 -4h-14h-465l-78 -260q86 41 164 41q127 0 232.5 -96.5t105.5 -286.5q0 -135 -58.5 -248t-150.5 -182.5t-195.5 -107.5t-201.5 -38q-66 0 -138.5 16.5t-135 60.5t-62.5 106z" />
<glyph unicode="6" horiz-adv-x="1067" d="M182 399q0 164 74 342.5t158 307.5q217 336 536 335q131 0 197.5 -57t66.5 -119q0 -18 -6 -37.5t-28.5 -39t-59.5 -19.5q-70 0 -108 86q0 2 -4 12.5t-4 12.5q-27 63 -86 63q-106 0 -191 -160q-86 -172 -119 -278q39 12 72 12q135 0 223 -106.5t88 -276.5 q0 -225 -146.5 -366.5t-305.5 -141.5q-150 0 -253.5 122t-103.5 308zM387 231q0 -152 90 -151q82 0 144 160q131 334 131 442q0 33 -19.5 52.5t-35 23.5t-29.5 4q-74 0 -143.5 -124t-103.5 -246t-34 -161z" />
<glyph unicode="7" horiz-adv-x="1067" d="M195 76q0 55 57 133q68 88 121 151l649 787h-410q-29 0 -43 -3t-33.5 -14.5t-33 -39t-23.5 -72.5h-98l115 373h96q0 -21 12 -29q14 -6 62 -6h575v-41l-672 -1088q-86 -141 -141 -199.5t-125 -58.5q-39 0 -73.5 27t-34.5 80z" />
<glyph unicode="8" horiz-adv-x="1067" d="M94 309q0 90 35 162t78 112t112.5 72.5t106.5 43t92 22.5q-176 109 -176 285q0 162 130 272.5t304 110.5q141 0 237.5 -77t96.5 -225q0 -164 -108.5 -264t-247.5 -125v-4q203 -94 202 -307q0 -164 -129 -291t-340 -127q-172 0 -282.5 92.5t-110.5 247.5zM369 178 q0 -111 92 -110q53 0 100 68.5t75 158.5t43 162.5t15 97.5q0 51 -27.5 77.5t-62.5 26.5q-57 0 -87 -37.5t-73 -146.5q-76 -188 -75 -297zM582 831q0 -78 67 -77q78 0 142.5 189.5t64.5 260.5q0 86 -68 86q-41 0 -67.5 -38t-65.5 -136q-74 -186 -73 -285z" />
<glyph unicode="9" horiz-adv-x="1067" d="M57 141q0 41 24.5 69t70.5 28q72 0 116 -99q10 -25 18.5 -37t28 -23t47.5 -11q35 0 67 19t62.5 62.5t52 79t48 99t37 90.5t30.5 84q-55 -6 -57 -6q-141 0 -231 108.5t-90 280.5q0 184 124.5 341.5t333.5 157.5q164 0 256 -121.5t92 -310.5q0 -186 -88 -385.5t-190 -333.5 q-84 -111 -194.5 -175t-175 -76.5t-124.5 -12.5q-100 0 -179 50.5t-79 121.5zM520 715q0 -121 78 -121q74 0 146.5 113.5t111.5 242.5t39 201q0 55 -29.5 89t-68.5 34q-47 0 -82 -51q-61 -88 -128 -268.5t-67 -239.5z" />
<glyph unicode=":" horiz-adv-x="704" d="M129 124.5q0 65.5 46 112t111.5 46.5t110.5 -46t45 -112q0 -63 -45 -109.5t-110.5 -46.5t-111.5 45t-46 110.5zM303 692.5q0 65.5 46 111.5t111.5 46t110.5 -46t45 -111.5t-46 -110.5t-109 -45q-66 0 -112 45t-46 110.5z" />
<glyph unicode=";" horiz-adv-x="704" d="M-4 -395l31 98q158 14 243.5 95t85.5 145q0 25 -16 24q-51 0 -88 15.5t-54.5 34t-27.5 44t-11 38t-1 22.5q0 66 45 109.5t108 43.5q70 0 128.5 -59t58.5 -162q0 -170 -139.5 -308t-362.5 -140zM276 692.5q0 65.5 46.5 111.5t112 46t110.5 -46t45 -111.5t-45 -110.5 t-110.5 -45t-112 45t-46.5 110.5z" />
<glyph unicode="&#x3c;" horiz-adv-x="1366" d="M223 580v190l1112 463v-225l-825 -332l825 -332v-227z" />
<glyph unicode="=" horiz-adv-x="1366" d="M223 334v209h1110v-209h-1110zM223 809v209h1110v-209h-1110z" />
<glyph unicode="&#x3e;" horiz-adv-x="1366" d="M223 117v225l826 332l-826 332v227l1112 -463v-190z" />
<glyph unicode="?" horiz-adv-x="917" d="M145 124.5q0 65.5 46.5 112t112 46.5t110.5 -46t45 -112q0 -63 -45 -109.5t-110.5 -46.5t-112 45t-46.5 110.5zM340 1221q0 66 74.5 114.5t185.5 48.5q96 0 172 -34.5t117 -91t61.5 -118t20.5 -124.5q0 -166 -113 -284t-264 -118q-31 1 -92 11l-58 -191h-102l102 342h50 q2 -27 16 -47t37 -20q37 0 61.5 42t48.5 130q51 178 52 272q0 133 -76 133q-55 0 -82 -53l-16 -33q-41 -82 -103 -82q-35 0 -63.5 29t-28.5 74z" />
<glyph unicode="@" horiz-adv-x="1705" d="M92 430q0 403 269.5 676.5t697.5 273.5q182 0 324.5 -58t226.5 -155.5t126 -215t42 -246.5q0 -279 -165 -495t-433 -216q-100 0 -152.5 47t-52.5 131q-1 59 24 133l-4 4q-37 -66 -64.5 -106.5t-73.5 -96t-97 -84t-107 -28.5q-88 0 -128 68.5t-40 156.5q0 143 55.5 283.5 t135.5 237t169 156.5t156 60q123 0 142 -155h4l33 119l243 10l-184 -629q-29 -104 -29 -154q0 -33 22.5 -57t59.5 -24q51 0 123 43t141.5 118.5t117.5 198.5t48 260q0 168 -70.5 309.5t-219 232.5t-351.5 91q-272 0 -478 -136t-306 -343t-100 -445q0 -354 224 -570t558 -216 q113 0 226.5 29.5t229 91t212 172t151.5 258.5h62q-57 -141 -138.5 -250t-170.5 -171.5t-171 -103.5t-170 -57t-136 -21.5t-95 -5.5q-381 0 -634 245t-253 634zM743 270q0 -43 17.5 -68.5t42.5 -25.5q47 0 116.5 88t125 227.5t55.5 258.5q0 70 -22.5 102.5t-47.5 32.5 q-49 0 -88 -56q-90 -129 -144.5 -296.5t-54.5 -262.5z" />
<glyph unicode="A" horiz-adv-x="1386" d="M-84 0l33 111q92 10 196 135l45 61q2 6 17 23l764 1054h205v-1099q0 -51 3 -74t17 -51.5t49 -38.5t94 -10l-32 -111h-670l33 111q115 4 149.5 51t34.5 172v141h-410l-75 -110q-74 -104 -74 -150q0 -98 135 -104l-33 -111h-481zM524 586h330v452h-4z" />
<glyph unicode="B" horiz-adv-x="1323" d="M-2 0l35 111q74 8 104.5 37.5t61.5 125.5l252 828q10 27 10 51q0 51 -35 68q-49 24 -74 24h-2l35 111h567q254 0 353 -92q88 -82 88 -205q0 -281 -453 -346v-4q160 -25 237.5 -116t77.5 -200q0 -102 -57 -185t-141 -132q-132 -76 -365 -76h-694zM520 203q0 -49 42 -70.5 t93 -21.5q70 0 124.5 44t82 111.5t40.5 129t13 110.5q0 86 -45 117.5t-133 31.5h-86l-116 -385q-14 -49 -15 -67zM686 766q21 -1 39 -1q84 0 131 15q55 18 97 62.5t63.5 95.5t32 97t10.5 83q0 127 -164 127h-64z" />
<glyph unicode="C" horiz-adv-x="1449" d="M184 508q0 219 109.5 420.5t303.5 328.5t421 127q41 0 89 -7t137 -49t149 -118q49 68 80 136h100l-100 -465h-105v20q0 230 -137 324q-76 49 -158 49q-96 0 -184 -60.5t-150.5 -156.5t-109.5 -213t-70.5 -231.5t-23.5 -209.5q0 -133 62 -227t183 -94q260 0 459 377h117 l-137 -447h-97l8 140l-4 4q-168 -184 -405 -185q-233 0 -385 145.5t-152 391.5z" />
<glyph unicode="D" horiz-adv-x="1556" d="M-10 0l35 111q80 0 113.5 39.5t58.5 123.5l237 783q25 80 25 96q0 49 -39 70.5t-78 21.5l35 111h518q84 0 135 -3t137 -29t158 -75q223 -154 223 -463q0 -188 -83 -356t-232 -278q-115 -84 -255 -118t-351 -34h-637zM516 199q0 -41 41 -64.5t100 -23.5q131 0 233.5 67.5 t158 161.5t91.5 210t47 195.5t11 137.5q0 178 -90 274q-49 53 -99.5 67.5t-177.5 20.5l-286 -932q-29 -90 -29 -114z" />
<glyph unicode="E" horiz-adv-x="1343" d="M4 0l33 111q33 2 49 7t38.5 20.5t40 48t34.5 87.5l252 828q10 33 10 51q0 49 -39 70.5t-74 21.5l35 111h993l8 -334h-112q-49 137 -110.5 180t-198.5 43h-129l-152 -487h68q119 0 161.5 35.5t85.5 156.5h117l-164 -534h-116q23 84 22 114q0 59 -37 88t-127 29h-43 l-106 -350q-4 -4 -4 -12q-18 -55 -19 -78q0 -96 180 -96q63 0 112.5 7t119 29.5t128 79t99.5 142.5h113l-113 -369h-1155z" />
<glyph unicode="F" horiz-adv-x="1153" d="M-6 0l35 111q43 0 71.5 11t47 37.5t27.5 49t22 65.5l254 828q10 33 10 51q0 49 -40 70.5t-91 21.5l35 111h993l6 -332h-107q-45 123 -96 172t-168 49h-164l-147 -485h76q102 0 150 38t85 154h121l-164 -536h-121q25 68 25 125q0 61 -45 84.5t-96 23.5h-64l-117 -381 l-4 -12q-10 -35 -10 -51q0 -94 164 -94l-33 -111h-655z" />
<glyph unicode="G" horiz-adv-x="1579" d="M180 496q0 143 60.5 297.5t166 286.5t270.5 218t351 86q244 0 391 -172q43 55 72 134h108l-102 -467h-113q-6 115 -21 175t-58 109q-86 100 -213 101q-125 0 -234.5 -91.5t-176.5 -225.5t-104.5 -277.5t-37.5 -257.5q0 -174 79.5 -247t180.5 -73q131 0 212 95.5t81 199.5 q0 78 -121 90l35 111h575l-25 -111q-63 -10 -88.5 -40.5t-48.5 -108.5l-98 -322h-23l-112 84q-227 -119 -463 -119q-260 0 -401.5 146.5t-141.5 378.5z" />
<glyph unicode="H" horiz-adv-x="1665" d="M-8 0l33 111q61 0 99 25.5t51 53t30 84.5l233 762q29 100 29 117q0 41 -32 66.5t-79 25.5l33 111h639l-35 -111q-100 0 -137 -29.5t-61 -111.5l-103 -334h520l99 330q10 37 10 51q0 53 -35 70q-47 24 -78 24h-2l35 111h604l-22 -111q-72 0 -109 -24.5t-63 -110.5 l-250 -817l-6 -23l-4 -14q-10 -37 -11 -51q0 -43 37 -68.5t90 -25.5l-34 -111h-650l35 111q98 0 134 35t67 133l115 370h-519l-108 -356l-6 -23l-4 -14q-10 -37 -11 -51q0 -45 38 -69.5t83 -24.5l-35 -111h-620z" />
<glyph unicode="I" horiz-adv-x="811" d="M8 0l31 111q72 10 102.5 37.5t61.5 127.5l237 779q25 80 25 98q0 45 -33 68.5t-82 23.5l35 111h573l-34 -111q-92 -8 -129 -133l-250 -817q0 -2 -1 -6t-3 -10.5t-2 -10.5q-4 -8 -4 -10q-10 -37 -11 -53q0 -45 39 -69.5t88 -24.5l-33 -111h-610z" />
<glyph unicode="J" horiz-adv-x="874" d="M-455 -297q0 53 39 85t99 32q104 0 141 -92l14 -41q29 -66 94.5 -66t112.5 78t115 301l336 1102q10 37 10 51q0 51 -35 68q-49 24 -76 24h-2l35 111h614l-34 -111q-72 0 -110 -24.5t-62 -108.5l-275 -895q-117 -385 -263 -542.5t-415 -157.5q-164 0 -251 52t-87 134z" />
<glyph unicode="K" horiz-adv-x="1503" d="M-4 0l35 111q47 0 78.5 12t52 39.5t30 48t21.5 63.5l252 828q10 33 10 51q0 49 -38 70.5t-79 21.5l33 111h629l-35 -111q-88 0 -123 -31.5t-59 -107.5l-131 -424l4 -4l526 377q98 72 98 123q0 29 -20 44t-39.5 18t-64.5 5l32 111h604l-34 -111q-76 0 -144.5 -34.5 t-228.5 -147.5l-358 -254l229 -500q57 -123 105.5 -160.5t129.5 -37.5l-32 -111h-645l34 111h9h14t14 1t15.5 2t14.5 3t14 5t12.5 7t10.5 10t6 14.5t3 18.5q0 20 -49 127l-150 322l-161 -113l-72 -240q0 -2 -2 -6t-2 -6q-10 -35 -10 -51q0 -49 39.5 -71.5t89.5 -22.5 l-35 -111h-633z" />
<glyph unicode="L" horiz-adv-x="1259" d="M-12 0l35 111q45 0 75.5 10t50 36.5t29.5 50t23 66.5l254 828q10 33 10 51q0 47 -39 69.5t-94 22.5l33 111h653l-35 -111q-98 0 -133 -31.5t-57 -107.5l-248 -807q0 -8 -8 -29q-14 -57 -15 -69q0 -33 18.5 -53.5t55.5 -27.5t58.5 -8t60.5 -1q168 0 256 36q137 60 215 218 h117l-111 -365h-1204z" />
<glyph unicode="M" horiz-adv-x="1984" d="M-33 0l33 111q115 8 201 233l274 719q23 61 23 84q0 98 -150 98l33 111h534l72 -969h4l647 969h525l-35 -111q-55 0 -90 -9t-55.5 -37t-30.5 -53.5t-25 -82.5l-192 -746q-23 -82 -23 -108q0 -98 156 -98l-35 -111h-672l35 111q106 4 146 48t65 142l209 809l-4 4 l-742 -1114h-163l-86 1114h-5l-282 -741q-39 -100 -39 -148q0 -114 146 -114h3l-34 -111h-443z" />
<glyph unicode="N" horiz-adv-x="1536" d="M-23 0l35 111q41 6 74 24.5t52.5 39t38 58t26.5 62t22 70.5l238 780q-12 31 -25.5 49t-48.5 34.5t-88 16.5h-33l33 111h414l467 -961l196 645q16 57 17 86q0 107 -158 119v10l35 101h469l-35 -111q-47 -10 -74.5 -22.5t-64.5 -58.5t-62 -126l-323 -1052h-154l-489 991 l-203 -662q-16 -59 -17 -92q0 -102 156 -112l-35 -111h-463z" />
<glyph unicode="O" horiz-adv-x="1642" d="M188 588q0 82 35 184t107.5 210t170 198t238 147t295.5 57q297 0 450.5 -173t153.5 -418q0 -197 -110.5 -385.5t-307 -312.5t-423.5 -124q-346 0 -512 250q-97 146 -97 367zM539 381q0 -154 66.5 -226.5t172.5 -72.5q127 0 231.5 104.5t162 254t87 289.5t29.5 239 q0 305 -235 305q-121 0 -223.5 -97.5t-163 -239.5t-94 -290.5t-33.5 -265.5z" />
<glyph unicode="P" horiz-adv-x="1259" d="M-4 0l35 111q70 4 102.5 34.5t63.5 128.5l252 828q10 33 10 51q0 92 -135 92l32 111h521q98 0 159.5 -4t147.5 -26.5t139 -68.5q113 -92 113 -243q0 -23 -4.5 -49.5t-19.5 -78.5t-60 -105.5t-113 -92.5q-152 -86 -424 -86h-182l-105 -346q-10 -35 -10 -51q0 -94 150 -94 l-35 -111h-637zM668 713h94q150 0 221 71q49 49 81 126t32 147q-1 188 -226 188h-41z" />
<glyph unicode="Q" horiz-adv-x="1642" d="M188 555q0 303 261 573q244 256 587 256q152 0 270.5 -50t189.5 -135t106.5 -188.5t35.5 -217.5q0 -303 -245.5 -558t-579.5 -264l-121 -104l4 -4q108 22 165 22h5q117 0 359 -84q172 -59 293 -59q172 0 251 94h117q-39 -121 -172 -220t-317 -99q-72 0 -141.5 18.5 t-113.5 37.5t-130 62q-221 111 -344 111q-92 0 -152 -86q-8 -16 -18 -27q-37 -57 -90 -57q-29 0 -47.5 17.5t-18.5 41.5q0 53 123 166l199 183q-131 25 -228.5 88t-148.5 148t-75 168t-24 167zM539 381q0 -143 62.5 -221t178.5 -78q127 0 230.5 104.5t161 254t87 289.5 t29.5 239q0 305 -235 305q-121 0 -223.5 -99.5t-163 -244t-94 -290.5t-33.5 -259z" />
<glyph unicode="R" horiz-adv-x="1472" d="M-23 0l31 111q94 0 130 35.5t65 127.5l252 828q10 33 10 51q0 92 -141 92l32 111h666q35 0 60.5 -1t83 -7.5t99.5 -18.5t95 -37.5t88 -61.5t58.5 -92.5t23.5 -127.5q0 -150 -117 -251.5t-342 -125.5v-4q25 -14 40 -28.5t48 -75t66 -163.5q20 -66 35.5 -101.5t43 -75.5 t67.5 -57t95 -17l-34 -111h-398q-63 90 -137 330q-41 133 -77 193.5t-70.5 74.5t-106.5 14l-104 -344q0 -2 -2 -6t-2 -6q-10 -37 -11 -51q0 -94 164 -94l-35 -111h-676zM676 723q248 0 342 41q78 35 125 116t47 162q0 203 -283 203q-38 0 -73 -2z" />
<glyph unicode="S" horiz-adv-x="1110" d="M49 10l60 471h110q8 -117 49 -200.5t96.5 -120.5t99.5 -52.5t83 -15.5q76 0 133 54.5t57 132.5q0 66 -46 129t-148 153q-125 109 -185.5 199t-60.5 209q0 188 133 301.5t297 113.5q182 0 301 -139q49 53 68 111h110l-59 -406h-107q-25 135 -98.5 229.5t-206.5 94.5 q-66 0 -122 -44t-56 -124q0 -68 42 -130.5t149 -152.5q70 -59 107.5 -96t81.5 -93t62.5 -117.5t18.5 -137.5q0 -160 -116 -284t-316 -124q-203 0 -357 154q-45 -55 -67 -115h-113z" />
<glyph unicode="T" horiz-adv-x="1366" d="M195 0l32 111h29q88 0 126 33.5t69 134.5l294 966h-59q-131 0 -216 -58.5t-165 -223.5h-110l118 393h1282l-118 -393h-107q8 57 8 104q0 51 -14 87t-32.5 53.5t-55.5 26.5t-59.5 10t-65.5 1h-70l-288 -952l-2 -4q-2 -4 -3.5 -10.5t-3.5 -10.5q0 -2 -2 -6v-6 q-12 -35 -12 -51q0 -43 41 -68.5t76 -25.5h43l-35 -111h-700z" />
<glyph unicode="U" horiz-adv-x="1492" d="M207 330q0 80 45 223l168 549q10 33 10 51q0 49 -40 70.5t-89 21.5l35 111h651l-35 -111q-98 0 -134 -29.5t-62 -109.5l-197 -649q-35 -115 -35 -164q0 -104 75 -151.5t171 -47.5q293 0 393 352l168 592q18 61 19 88q0 104 -156 119l33 111h489l-33 -111 q-57 -6 -100 -28.5t-66.5 -58.5t-33.5 -60.5t-21 -59.5l-186 -626q-68 -231 -212 -335t-364 -104q-227 0 -360 97.5t-133 259.5z" />
<glyph unicode="V" horiz-adv-x="1323" d="M256 1245l33 111h577l-32 -111q-98 0 -123 -29.5t-29 -132.5l-27 -745l4 -4l490 708q53 78 53 119q0 84 -149 84l32 111h529l-33 -111q-98 -2 -166.5 -60.5t-167.5 -199.5l-715 -1014h-206l36 1143q1 20 1 35q0 23 -2 37q-3 24 -27.5 41.5t-77.5 17.5z" />
<glyph unicode="W" horiz-adv-x="1898" d="M248 1245l33 111h583l-33 -111q-92 -4 -120.5 -32.5t-34.5 -139.5l-37 -678l4 -4l629 965h174l-37 -961l4 -4l402 651q43 70 43 111q0 35 -25 56.5t-46.5 26.5t-55.5 9l32 111h432l-32 -111q-74 -25 -119 -75t-150 -218l-622 -981h-203l37 928l-4 4l-610 -932h-199 l61 1129q1 15 1 28q1 66 -17 86q-20 24 -90 31z" />
<glyph unicode="X" horiz-adv-x="1409" d="M-147 0l32 111q76 10 171.5 68.5t152.5 107.5l432 379l-154 395q-49 127 -75.5 155.5t-104.5 28.5l33 111h616l-32 -111q-121 0 -121 -80q0 -41 31 -112l63 -164l221 190q59 51 60 97q0 69 -114 69h-3l35 111h542l-34 -111q-61 0 -116.5 -29.5t-180.5 -140.5l-359 -313 l201 -520q35 -90 84 -107q66 -23 100 -24l-35 -111h-663l33 111q149 0 149 78q0 26 -20 77l-107 277l-196 -170q-119 -102 -119 -168q0 -43 37 -68.5t88 -25.5l-33 -111h-614z" />
<glyph unicode="Y" horiz-adv-x="1259" d="M227 0l33 111q59 0 97 10t60.5 37.5t32 49.5t23.5 71l94 309l-135 483q-33 115 -61.5 144.5t-126.5 29.5l32 111h637l-34 -111q-127 -10 -127 -84q0 -18 18 -98l92 -346l223 307q59 82 60 137q0 45 -39 64.5t-82 19.5l33 111h493l-32 -111h-7q-79 0 -131 -42 q-53 -44 -157 -185l-310 -418l-94 -307q-2 -4 -6 -25q0 -2 -2 -6t-2 -6q-10 -37 -10 -53q0 -92 170 -92l-35 -111h-707z" />
<glyph unicode="Z" horiz-adv-x="1323" d="M27 0v98l977 1147h-267q-150 0 -242 -61.5t-163 -190.5h-111l111 363h1104v-94l-983 -1151h292q80 0 148 21.5t108.5 47t82.5 74.5t58.5 73.5t45.5 73.5h108l-122 -401h-1147z" />
<glyph unicode="[" horiz-adv-x="747" d="M-29 -477l561 1833h482l-29 -99q-150 0 -190.5 -22.5t-71.5 -120.5l-408 -1335q-12 -43 -12 -60q0 -63 49 -82.5t140 -19.5l-29 -94h-492z" />
<glyph unicode="\" horiz-adv-x="1280" d="M236 1356h284l717 -1389h-287z" />
<glyph unicode="]" horiz-adv-x="747" d="M-229 -477l28 98q150 0 191 22.5t71 120.5l408 1336q12 43 12 59q0 63 -49 83t-139 20l29 94h491l-561 -1833h-481z" />
<glyph unicode="^" horiz-adv-x="1173" d="M233 637l410 719h107l405 -719h-244l-217 391l-223 -391h-238z" />
<glyph unicode="_" horiz-adv-x="1024" d="M-12 -154h1048v-102h-1048v102z" />
<glyph unicode="`" d="M156 1313h409l150 -326h-86z" />
<glyph unicode="a" horiz-adv-x="1153" d="M94 195q0 147 71 294.5t195.5 247t268.5 99.5q78 0 106.5 -39t36.5 -103h4l33 125h287l-185 -602q-2 -4 -4 -12l-2 -6q-6 -18 -6 -31q0 -29 27 -29q51 0 102 92h111q-51 -131 -148.5 -196.5t-202.5 -65.5q-23 0 -46 5.5t-56 19.5t-53.5 51t-20.5 90q0 29 6 53l-4 5 q-168 -223 -335 -224q-68 0 -126.5 51.5t-58.5 174.5zM395 240q0 -80 58 -80q100 0 192 209q84 182 84 278q0 90 -63 90q-55 0 -108.5 -64.5t-87.5 -151.5t-54.5 -165.5t-20.5 -115.5z" />
<glyph unicode="b" horiz-adv-x="1193" d="M135 254q0 53 49 217l197 649q14 51 14 64q0 33 -28.5 47t-100.5 14l33 111q170 0 231.5 4t135.5 24h94l-207 -675l4 -4q139 145 313 145q143 0 219 -81t76 -208q0 -100 -45 -203.5t-125 -190.5t-205.5 -142.5t-271.5 -55.5q-111 0 -190.5 30t-118.5 77t-56.5 92 t-17.5 86zM412 205q0 -68 24.5 -102.5t93.5 -34.5q82 0 147.5 54t101.5 134t54.5 158t18.5 139q0 70 -33 106.5t-82 36.5q-70 0 -130 -51t-94 -120.5t-58.5 -145.5t-33.5 -122t-9 -52z" />
<glyph unicode="c" horiz-adv-x="1003" d="M88 244q0 217 192.5 411.5t442.5 194.5q84 0 141.5 -22.5t82 -57.5t33.5 -63.5t9 -55.5q0 -55 -32.5 -106t-102.5 -51q-47 0 -83 29.5t-36 86.5q0 27 6 45q0 8 7 21q4 8 4 26q0 49 -70 50q-68 0 -125 -67t-89 -156t-49.5 -165.5t-17.5 -113.5q0 -160 134 -160 q143 0 284 156h133q-18 -25 -39.5 -50.5t-69.5 -69.5t-101.5 -76t-133.5 -56.5t-164 -24.5q-63 0 -119.5 11.5t-112.5 39t-90 85t-34 139.5z" />
<glyph unicode="d" horiz-adv-x="1216" d="M80 223q0 227 176 427t373 200q131 0 190 -92l121 393q8 33 8 47q0 53 -119 53l31 105q154 0 211 4t143 24h95l-342 -1120q-2 -2 -2 -6q-2 -4 -2 -6q-16 -49 -17 -74q0 -43 37 -43q18 0 53 24.5t68 82.5h110q-72 -123 -178 -198t-221 -75q-76 0 -124 46q-40 38 -40 108 q0 15 2 31l-4 4q-153 -191 -348 -191q-96 0 -158.5 65.5t-62.5 190.5zM381 272q0 -122 87 -122h1q135 0 233 229q33 78 53.5 160t20.5 106q0 41 -31.5 70.5t-74.5 29.5q-72 0 -142.5 -101t-108.5 -211t-38 -161z" />
<glyph unicode="e" horiz-adv-x="1003" d="M68 231q0 221 213 420t471 199q219 0 219 -162q0 -141 -170 -242.5t-414 -136.5q-6 -27 -6 -61q0 -158 133 -158q140 0 285 158h133q-82 -121 -222.5 -200t-308.5 -79t-258 78q-76 66 -75 184zM410 414q125 18 219 106t94 170q0 61 -59 62q-66 0 -133.5 -83t-120.5 -255z " />
<glyph unicode="f" d="M-395 -356q0 57 43 97t98 40q117 0 135 -125q0 -10 3 -22.5t16.5 -26t33.5 -13.5q55 0 86 84q47 123 93 338q27 127 32 146q0 4 8.5 34.5t12.5 47.5l100 465h-129l33 110h119q2 2 5 13.5t3 13.5q20 70 32.5 106.5t39 103t50 103.5t63.5 86t85 76t106.5 45t135.5 18 q119 0 190.5 -47t71.5 -118q0 -49 -35 -87t-90 -38q-84 0 -137 112q-39 80 -84 80t-78 -131l-65 -336h147l-33 -110h-141l-100 -449q-94 -420 -245 -595t-378 -175q-94 0 -160.5 37t-66.5 117z" />
<glyph unicode="g" horiz-adv-x="1044" d="M-135 -272q0 88 63.5 136t108.5 48q18 0 28.5 -12.5t10.5 -26.5q0 -10 -17 -41q-31 -43 -30 -96q0 -147 282 -148q276 0 277 131q0 33 -31 57.5t-66.5 38t-113.5 35.5q-59 18 -93 31t-85.5 41.5t-77 69.5t-25.5 94q0 152 221 215q-157 81 -157 232q0 121 103.5 219 t314.5 98q158 0 245 -70q70 70 158 70q115 0 115 -94q0 -98 -74 -99q-43 0 -80 41q-20 25 -37 25q-8 0 -24 -8q55 -61 55 -148q0 -39 -16.5 -84t-54.5 -99t-122 -92t-200 -42q-55 -2 -83 -4t-64 -8.5t-50 -20t-14 -33.5q0 -29 33.5 -46t142.5 -46q70 -18 112 -31.5t100 -39 t90 -54t55.5 -75t23.5 -101.5q0 -92 -57.5 -156.5t-151.5 -93t-177 -40t-173 -11.5q-465 0 -465 238zM430 451q0 -117 74 -117q70 0 118 130t48 222q0 84 -68 84q-43 0 -79 -45t-54 -104.5t-28.5 -106.5t-10.5 -63z" />
<glyph unicode="h" horiz-adv-x="1216" d="M51 0l348 1141q12 49 13 57q0 18 -11.5 28.5t-23.5 13.5t-43 9q-20 2 -45 2l35 105q152 0 209 4t143 24h94l-244 -796l4 -4q182 266 408 266q88 0 127 -41t39 -94q0 -35 -10 -70q-16 -59 -72 -239l-39 -136q-27 -90 -27 -100q0 -27 25 -27q47 0 121 111h115 q-72 -137 -174.5 -202.5t-213.5 -65.5q-174 0 -174 141q1 53 62 246l43 131q25 60 25 102q0 45 -42 45q-63 0 -156 -134t-181 -333l-58 -184h-297z" />
<glyph unicode="i" d="M57 573q129 276 365 277q86 0 131 -41t45 -111q0 -55 -43 -163l-115 -318l-2 -4q-2 -2 -3 -6t-3 -8q0 -2 -2 -6v-5q-16 -43 -16 -53q0 -25 26 -24q25 0 63 42t64 89h103q-16 -35 -39 -71t-67 -87t-110.5 -83t-142.5 -32q-188 0 -188 156q0 47 41 158l119 344q14 43 14 51 q0 25 -25 24q-45 0 -118 -129h-97zM424 1228.5q0 65.5 46 110.5t110 45q66 0 111.5 -46t45.5 -109q0 -66 -47 -112t-110.5 -46t-109.5 46t-46 111.5z" />
<glyph unicode="j" horiz-adv-x="598" d="M-381 -358q0 57 42 98t101 41q121 0 138 -125q8 -61 55 -62q45 0 76 64q35 78 73 252q11 39 19 76l158 626q14 61 14 68q0 23 -21 22q-68 0 -129 -135h-90q45 125 148.5 207t218.5 82q72 0 118 -44t46 -101q0 -51 -15 -111l-143 -565q-18 -70 -42 -134.5t-70 -142 t-103 -134t-146.5 -95.5t-193.5 -39q-119 0 -186.5 42t-67.5 110zM395 1228.5q0 65.5 46 110.5t110 45q66 0 112 -46t46 -109q0 -66 -47.5 -112t-111 -46t-109.5 46t-46 111.5z" />
<glyph unicode="k" horiz-adv-x="1216" d="M61 0l351 1149q10 27 10 49q0 18 -11.5 28.5t-23.5 13.5t-43 9q-20 2 -47 2l33 105q156 0 213 4t143 24h96l-266 -864l4 -4q6 8 27 29q49 43 110 104q213 201 394 201q68 0 114.5 -28.5t46.5 -78.5q0 -37 -27.5 -69.5t-86.5 -32.5q-49 0 -101 35q-35 20 -63 20 q-98 0 -291 -180q74 -4 125 -26.5t78.5 -50t44 -80t22 -88t9.5 -103.5q6 -55 36 -55q53 0 125 141h93q-104 -268 -355 -268q-74 0 -137 40t-63 128q0 46 4 69l12 72q4 25 4 59q0 84 -78 86l-98 -96l-107 -344h-297z" />
<glyph unicode="l" horiz-adv-x="661" d="M92 111q0 43 19 104l276 907q18 57 19 78q0 18 -11.5 27.5t-24 12.5t-42.5 9q-20 2 -43 2l32 105q152 0 209.5 4t143.5 24h94l-354 -1163q-16 -55 -17 -65q0 -33 37 -33q33 0 67.5 38t55.5 75h102q-43 -98 -140 -182.5t-239 -84.5q-84 0 -134 37t-50 105z" />
<glyph unicode="m" horiz-adv-x="1984" d="M45 567q27 51 48.5 84t68.5 87.5t109.5 83t138.5 28.5q78 0 129 -41t51 -111q0 -61 -37 -170l4 -4q201 326 455 326q31 0 60.5 -7t64 -26.5t56 -61.5t21.5 -102q0 -70 -22 -141l4 -4q23 41 61.5 88t101 109.5t149.5 103.5t178 41q74 0 135 -36t61 -109q0 -39 -24 -119 l-103 -338q0 -2 -4 -10q-4 -20 -8 -31q-8 -20 -8 -39q0 -29 26 -29q63 0 127 109h111q-61 -127 -164.5 -194.5t-214.5 -67.5q-74 0 -130 40t-56 109q-1 33 24 113l96 307q14 49 15 70q0 23 -18.5 33t-32.5 10q-111 0 -266.5 -204t-219.5 -464h-293l158 508q23 68 23 98 q0 61 -62 62q-90 0 -225 -177.5t-240 -490.5h-297l183 596q16 55 16 80q0 27 -27 26q-31 0 -66.5 -44t-56.5 -91h-100z" />
<glyph unicode="n" horiz-adv-x="1236" d="M51 569q109 281 342 281q82 0 125 -39t43 -104q0 -86 -55 -256l4 -5q227 403 463 404q57 0 105 -37t48 -104q0 -31 -20 -105l-100 -336q-31 -98 -31 -112q0 -33 31 -33q29 0 59.5 29.5t45.5 54t26 43.5h100q-123 -264 -385 -264q-178 0 -178 137q-1 29 28 127l93 309 l8 25q8 27 8 39t-10 21t-23 9q-84 0 -232.5 -272t-170.5 -381h-293l192 627q0 4 4.5 18t7.5 26.5t3 16.5q0 27 -29 27q-63 0 -127 -146h-82z" />
<glyph unicode="o" horiz-adv-x="1130" d="M92 346q0 59 18.5 124t62.5 133.5t107.5 122.5t164 89t219.5 35q109 0 190.5 -28.5t125.5 -68.5t71.5 -93.5t36 -94.5t8.5 -80q0 -211 -163 -363.5t-415 -152.5q-184 0 -305 92t-121 285zM387 246q0 -182 131 -183q70 0 128.5 65t90 155t48 167.5t16.5 118.5 q0 90 -35 138.5t-90 48.5q-76 0 -136.5 -70t-91 -165t-46 -168.5t-15.5 -106.5z" />
<glyph unicode="p" horiz-adv-x="1193" d="M-178 -485l31 98q100 0 133.5 23.5t66.5 130.5l254 827q16 51 17 72q0 37 -33 36q-61 0 -150 -147h-116q23 45 49 86t74.5 93t117 84t146.5 32q102 0 145 -44q41 -42 41 -121v-7l4 -4q20 31 53 65.5t105.5 72.5t152.5 38q63 0 109.5 -26.5t70 -62.5t37 -84t16.5 -77 t3 -53q0 -231 -147.5 -405.5t-342.5 -174.5q-131 0 -217 99l-100 -332l-4 -13q-4 -12 -7 -27.5t-3 -21.5q0 -59 121 -59h51l-29 -98h-649zM496 195q0 -63 28.5 -90t63.5 -27q59 0 112.5 68.5t85 161.5t50 177t18.5 125q0 43 -21.5 67.5t-50.5 24.5q-117 0 -213 -237 q-33 -82 -53 -164.5t-20 -105.5z" />
<glyph unicode="q" horiz-adv-x="1193" d="M59 229q0 78 37 180.5t102.5 203t176 169t239.5 68.5q188 0 258 -193q78 74 146 191h174l-340 -1114q-12 -37 -12 -62q0 -39 32.5 -49t100.5 -10l-31 -98h-657l30 98h41q104 0 139 22.5t68 131.5l117 372l-4 4q-150 -174 -342 -174q-119 0 -197 66.5t-78 193.5zM373 272 q0 -39 2 -61.5t27.5 -53t76.5 -30.5q121 0 219 156q90 143 90 280q0 66 -37.5 114t-91.5 48q-68 0 -125 -57.5t-90.5 -135t-52 -149.5t-18.5 -111z" />
<glyph unicode="r" horiz-adv-x="937" d="M33 553q72 131 177 214t230 83q68 0 99.5 -41t31.5 -96q0 -87 -57 -267l4 -4q221 408 391 408q47 0 82 -32t35 -91q0 -66 -39 -123t-100 -57q-47 0 -72 33q-4 4 -12 20q-20 20 -35 21q-70 0 -185.5 -214t-170.5 -407h-303l178 578q2 6 4 14t4 17t4 24q4 8 4 26 q0 31 -31 31q-72 0 -147 -137h-92z" />
<glyph unicode="s" horiz-adv-x="1003" d="M41 178q0 41 28.5 85t98.5 44q39 0 66.5 -13t41 -40t18.5 -44t9 -46q16 -106 148 -107q57 0 106 24.5t49 78.5q0 29 -26 51q-20 23 -158 108q-193 119 -193 269q0 117 111 189.5t313 72.5q45 0 87 -4t104.5 -19t100.5 -52.5t38 -92.5q0 -53 -39 -85t-84 -32q-49 0 -82 31 t-39 72q-4 23 -9 39t-34.5 35.5t-79.5 19.5q-133 0 -133 -94q0 -31 24.5 -53.5t104.5 -69.5q51 -31 79 -49.5t73 -57.5t67.5 -87t22.5 -103q0 -129 -121 -204t-317 -75q-51 0 -103.5 7.5t-120 25.5t-109.5 63t-42 113z" />
<glyph unicode="t" horiz-adv-x="747" d="M125 709l33 110h168l94 305h297l-92 -305h182l-35 -110h-182l-115 -371q-45 -152 -45 -176q0 -45 39 -45q33 0 73 43t74 123h111q-16 -43 -45 -90.5t-75 -101.5t-113.5 -88t-145.5 -34q-205 0 -205 195q0 68 25 141l18 55l107 349h-168z" />
<glyph unicode="u" horiz-adv-x="1236" d="M27 561q20 47 40.5 80t64.5 84t112.5 80t154.5 29q61 0 103.5 -18.5t59 -46.5t21.5 -46t5 -33q-1 -37 -19 -100l-75 -246q0 -6 -9 -31q0 -4 -16 -55t-16 -59q0 -33 30 -33q70 0 196 199.5t208 453.5h291l-131 -420q-6 -20 -31 -100t-37 -119l-4 -16q-4 -16 -4 -23 q0 -35 28 -35q31 0 66 37t65 111h80q-31 -90 -78 -152.5t-99 -88t-90 -35t-73 -9.5q-174 0 -174 154q0 39 33 164l16 61q0 2 2.5 6t2.5 8l2 5l-4 4q-31 -61 -71 -122t-99.5 -128.5t-136 -109.5t-154.5 -42t-113 47t-35 105q0 31 13 76q16 41 24 82l92 301q18 61 19 79 q0 35 -33 35q-68 0 -125 -133h-102z" />
<glyph unicode="v" horiz-adv-x="1153" d="M92 616q18 106 76.5 170t130.5 64q78 0 188 -86q16 -14 33 -14q39 0 49 41q23 59 60 59q25 0 42 -18.5t17 -47.5q0 -43 -22.5 -92t-90.5 -157q-112 -191 -112 -279q0 -57 36 -91t85 -34q102 0 219 131t117 256q0 49 -31 144q-12 25 -12 71q0 39 26.5 78t83.5 39 q68 0 95.5 -49t27.5 -105q0 -63 -28.5 -153t-89 -190.5t-141.5 -185.5t-196.5 -141.5t-242.5 -56.5q-100 0 -167 52.5t-67 152.5q0 78 40 149.5t76 104.5t93 78q82 63 112.5 95t53.5 71l-4 4q-80 -59 -146 -60q-61 0 -122 39q-23 18 -52 19q-43 0 -57 -58h-80z" />
<glyph unicode="w" horiz-adv-x="1685" d="M41 625q14 47 26.5 76.5t36 70.5t57.5 62.5t77 21.5q57 0 168 -80q29 -20 45 -20q31 0 45 41q12 53 63 53q25 0 42 -16.5t17 -47.5q0 -66 -92 -219q-129 -215 -129 -323q0 -59 35 -92t80 -33q94 0 225 94q-32 82 -32 180v6q0 193 109.5 322t246.5 129q80 0 113.5 -54.5 t33.5 -109.5q0 -82 -40 -162t-72.5 -114.5t-87.5 -87.5q72 -160 178 -160q90 0 181 124t91 222q0 43 -20 104q-29 86 -29 121q0 45 27.5 81t79.5 36q66 0 95 -45t29 -109q0 -131 -81.5 -299t-225 -298t-291.5 -130q-72 0 -129 31t-79.5 57.5t-55.5 73.5q-225 -160 -438 -160 q-111 0 -174.5 58.5t-63.5 154.5q0 150 170 287l93 76q6 2 27.5 21.5t51 52t43.5 61.5l-4 4q-70 -72 -149 -72q-55 0 -117 39q-29 20 -51 21q-43 0 -55 -49h-70zM944 557q0 -63 25 -147q59 51 95 113.5t43 95t7 57.5q0 41 -16.5 66.5t-42.5 25.5q-8 0 -17.5 -1t-28 -12.5 t-31.5 -32t-23.5 -63.5t-10.5 -102z" />
<glyph unicode="x" horiz-adv-x="1130" d="M23 84q0 66 34 170h121q-37 -80 -37 -119q0 -33 25 -33q18 0 63 48l224 233l-60 192q-29 92 -61 93q-51 0 -90 -133h-99q49 168 136.5 241.5t181.5 73.5q45 0 79.5 -17.5t59.5 -57.5t38 -68.5t34 -83.5q68 74 106.5 112.5t97 76.5t103.5 38q119 0 119 -150 q0 -57 -17 -106h-118q29 63 28 108q0 47 -28 48q-16 0 -78 -56q-106 -106 -178 -188l81 -260q16 -59 27.5 -80t32.5 -21q57 0 94 136h100q-41 -139 -126 -225.5t-197 -86.5q-88 0 -127.5 56.5t-102.5 236.5l-172 -178q-111 -115 -196 -115q-98 0 -98 115z" />
<glyph unicode="y" horiz-adv-x="1087" d="M-313 -389q0 51 40 86t97 35q72 0 147 -45l27 -15q44 -28 83 -28h3q49 0 117.5 48t103.5 152q37 104 37 297q0 293 -33 451q-25 92 -67 92q-35 0 -61.5 -46t-30.5 -122h-97q14 174 98.5 254t188.5 80q287 0 287 -584q-1 -135 -11 -221l5 -4q152 168 204 278q41 90 41 166 q0 47 -37 127q-43 86 -43 138q0 47 34 73.5t75 26.5q25 0 51.5 -8t58 -52.5t31.5 -119.5q0 -127 -62.5 -270.5t-144 -253t-183 -214t-158 -152.5t-89.5 -73q-147 -115 -307 -166t-246 -51q-63 0 -111 33t-48 88z" />
<glyph unicode="z" horiz-adv-x="1003" d="M20 18q0 31 26 68t91.5 91t112.5 89t151 109q74 53 271 215q2 2 8 6t12 9t13 7l-5 4q-71 -24 -138 -24h-5q-61 0 -154 29q-37 12 -65 12q-41 0 -76 -43q0 -4 -8 -12h-96q66 176 192 239q66 35 131 35q82 0 183 -74q66 -43 96 -43q43 0 80 51q39 63 86 64q25 0 40 -13.5 t15 -33.5q0 -45 -65.5 -122t-168 -161t-175 -138t-138.5 -101l-96 -68v-4q2 0 14.5 4t16.5 4q68 25 114 25q66 0 174 -31q35 -8 54 -8q31 0 54 12t32.5 22.5t21.5 30.5h105q-14 -57 -54.5 -120.5t-120 -121t-174.5 -57.5q-109 0 -225 90q-47 31 -94 31q-61 0 -92 -55 q-23 -37 -38 -51.5t-44 -14.5q-25 0 -43.5 13.5t-18.5 35.5z" />
<glyph unicode="{" horiz-adv-x="811" d="M225 403v64q68 12 112 43t60.5 74t20.5 65.5t4 46.5q0 66 -23 158q-30 123 -30 186q0 18 4 44t26.5 80.5t62.5 97.5t123 78.5t195 39.5v-47q-195 -41 -194 -198q0 -94 22 -170q25 -102 25 -183q0 -119 -88 -217q-49 -51 -100.5 -76.5t-137.5 -50.5v-4q166 -49 242 -133 q86 -94 86 -213q0 -53 -25 -164q-25 -106 -24 -178q0 -170 194 -207v-49q-106 -2 -190 31t-130 86t-69.5 109.5t-23.5 109.5q0 27 30 194q27 109 27 164q0 61 -22.5 106.5t-59.5 68t-62.5 31.5t-54.5 13z" />
<glyph unicode="|" horiz-adv-x="1193" d="M604 -483v1839h264v-1839h-264z" />
<glyph unicode="}" horiz-adv-x="811" d="M223 -463q195 41 195 199q0 94 -23 170q-25 102 -24 182q0 119 88 217q47 51 97 77t140 50v4q-166 49 -241 133q-84 92 -84 213q0 61 22 164q25 106 25 178q0 170 -195 207v49q106 2 190.5 -30.5t130.5 -86t69.5 -109.5t23.5 -110q0 -27 -31 -194q-25 -100 -24 -164 q0 -61 22.5 -106t58 -68t62.5 -32t53 -13v-64q-68 -12 -111.5 -42.5t-60 -73.5t-20.5 -65.5t-4 -47.5q0 -66 22 -158q31 -123 31 -186q0 -18 -4 -44t-26.5 -80t-62.5 -97t-123 -79t-196 -40v47z" />
<glyph unicode="~" horiz-adv-x="1366" d="M215 475q20 397 307 397q127 0 383 -112q142 -62 197 -62q68 0 110.5 45t51.5 129h79q-10 -188 -81 -282q-86 -115 -230 -115q-72 0 -145.5 23.5t-233.5 93.5q-133 55 -196 55q-139 0 -162 -172h-80z" />
<glyph unicode="&#xa1;" horiz-adv-x="704" d="M-10 -360q0 59 37 143l299 663h106l-125 -731q-37 -219 -184 -219q-68 0 -100.5 48t-32.5 96zM317 756q0 63 46.5 109t109.5 46q66 0 112 -45t46 -110.5t-46 -111.5t-111.5 -46t-111 46t-45.5 112z" />
<glyph unicode="&#xa2;" horiz-adv-x="1003" d="M92 242q0 104 53.5 214.5t141.5 201t216 144.5t261 46l151 338h91l-156 -352q70 -23 106.5 -74t36.5 -111q0 -55 -32.5 -105t-102.5 -50q-47 0 -80 26.5t-35 69.5h-4l-221 -500q145 -16 305 154h133q-195 -262 -491 -273l-123 -278h-92l125 278q-283 29 -283 271z M401 248q0 -80 41 -123l275 618q-12 6 -35 7q-82 0 -151.5 -109t-99.5 -221.5t-30 -171.5z" />
<glyph unicode="&#xa3;" horiz-adv-x="1472" d="M-190 -401q0 119 294 266q96 139 179 299h-299l88 155h297l125 261q373 770 882 770q123 0 196 -43t73 -111q0 -61 -52.5 -108.5t-115.5 -47.5q-78 0 -105 103q-23 86 -102 86q-84 0 -149.5 -76t-157.5 -266q-186 -387 -316 -568h322l-84 -155h-353q-93 -123 -204 -225 l4 -5q78 25 112 25q57 0 106.5 -26.5t74 -52t69.5 -81.5q55 -68 91 -92t77 -24q51 0 90 34.5t39 79.5q0 6 -3 43t-3 43q0 74 45 126t111 52q98 0 98 -98q0 -57 -46 -133t-122 -146.5t-188.5 -118.5t-227.5 -48q-51 0 -94 13t-77.5 42t-51 47.5t-43.5 52.5q-78 104 -137 105 q-27 0 -59 -15q-57 -80 -93.5 -122.5t-89.5 -82.5t-102 -40q-37 0 -67.5 24.5t-30.5 57.5z" />
<glyph unicode="&#xa4;" horiz-adv-x="1366" d="M233 301l138 135q-66 121 -66 244q0 131 66 231l-138 140l168 170l140 -140q113 68 235 68q125 0 240 -68l139 140l168 -170l-137 -140q68 -119 67 -239q0 -119 -67 -236l137 -135l-168 -170l-139 135q-115 -68 -244 -67q-127 0 -231 67l-135 -135zM545 674 q0 -96 67.5 -166t166 -70t167 70t68.5 166q0 98 -70 166.5t-166 68.5t-164.5 -68.5t-68.5 -166.5z" />
<glyph unicode="&#xa5;" horiz-adv-x="1024" d="M-25 295l37 131h387l41 160h-385l37 131h318l-88 354q-29 117 -55.5 145.5t-116.5 28.5l30 111h572l-31 -111q-113 -10 -113 -82q0 -39 17 -100l82 -346l202 307q53 88 54 137q0 43 -35 63.5t-76 20.5l31 111h444l-31 -111q-37 2 -58 -2t-66.5 -42t-94.5 -114l-248 -370 h361l-37 -131h-405l-43 -160h405l-37 -131h-403q-4 -14 -7.5 -23.5t-3.5 -15.5q-10 -35 -10 -53q0 -92 152 -92l-29 -111h-637l31 111q53 0 85 8t52.5 34.5t31.5 53t27 88.5h-387z" />
<glyph unicode="&#xa6;" horiz-adv-x="1193" d="M604 307h264v-790h-264v790zM604 565v791h264v-791h-264z" />
<glyph unicode="&#xa7;" horiz-adv-x="980" d="M-25 -238q0 63 37 101.5t94 38.5q59 0 89 -36t30 -89q0 -35 2 -55.5t11.5 -47t34 -40t63.5 -13.5q74 0 111.5 48t37.5 100q0 104 -141 292q-139 184 -182 262t-43 181q0 249 260 317l16 4q-59 100 -59 209q0 150 119.5 231t267.5 81q131 0 213 -69t82 -171 q0 -63 -35 -105.5t-82 -42.5q-109 0 -123 160q-6 129 -108 129q-55 0 -87 -35.5t-32 -83.5q0 -57 42 -128.5t161 -217.5q172 -201 172 -360q0 -117 -73 -202t-230 -116q74 -121 73 -233q0 -27 -5 -60.5t-27.5 -87t-59.5 -95.5t-110.5 -73.5t-171.5 -31.5q-53 0 -105.5 9 t-111 32.5t-94.5 75t-36 122.5zM311 623q0 -82 111 -246q61 -86 106 -127t97 -41q39 0 66.5 28.5t27.5 71.5q0 70 -74 189q-143 231 -233 231q-43 0 -72 -28.5t-29 -77.5z" />
<glyph unicode="&#xa8;" d="M203 1155q0 59 41 100t100 41t100 -41t41 -100t-41 -100t-100 -41q-57 0 -99 42t-42 99zM608 1155q0 59 42.5 100t99.5 41q59 0 100 -41t41 -100q0 -57 -42 -99t-99.5 -42t-99.5 41t-42 100z" />
<glyph unicode="&#xa9;" horiz-adv-x="1536" d="M156 672q0 295 208.5 501.5t499.5 206.5q293 0 502 -206.5t209 -501.5q0 -293 -209 -501t-502 -208t-500.5 208t-207.5 501zM246 672q0 -256 181 -438.5t437 -182.5t438.5 182.5t182.5 438.5q0 258 -182.5 439t-438.5 181q-254 0 -436 -181t-182 -439zM432 662 q0 197 128 318.5t312 121.5q80 0 197 -41q37 -12 47 -12q37 0 45 51h39v-264h-39q-12 68 -44 113.5t-71.5 66t-71.5 29t-59 8.5q-80 0 -135 -38t-79.5 -99.5t-34 -116t-9.5 -111.5q0 -197 66 -280q74 -94 188 -95q152 0 260 140v-72q-119 -125 -317 -125q-172 0 -297 105.5 t-125 300.5z" />
<glyph unicode="&#xaa;" horiz-adv-x="747" d="M229 991q0 137 105.5 261t240.5 124q86 0 97 -86h4l20 74h185l-117 -352q-2 -10 -5 -18.5t-4 -10.5t-1 -4v-4q0 -16 18 -17q37 0 66 54h73q-35 -82 -104 -121q-57 -37 -125 -37q-115 0 -115 100q0 14 4 31l-4 4q-106 -135 -215 -135q-47 0 -85 32t-38 105zM426 1018 q0 -49 37 -49q66 0 123 116.5t57 176.5q0 53 -41 53q-68 0 -122 -118t-54 -179z" />
<glyph unicode="&#xab;" horiz-adv-x="1130" d="M98 442l408 439h123l-240 -467l31 -414h-111zM623 442l409 439h121l-240 -467l31 -414h-110z" />
<glyph unicode="&#xac;" horiz-adv-x="1366" d="M223 809v209h1110v-684h-209v475h-901z" />
<glyph unicode="&#xad;" d="M35 272l82 271h590l-82 -271h-590z" />
<glyph unicode="&#xae;" horiz-adv-x="1536" d="M156 672q0 295 208.5 501.5t499.5 206.5q293 0 502 -206.5t209 -501.5q0 -293 -209 -501t-502 -208t-500.5 208t-207.5 501zM246 672q0 -256 181 -438.5t437 -182.5t438.5 182.5t182.5 438.5q0 258 -182.5 439t-438.5 181q-254 0 -436 -181t-182 -439zM469 274v35 q57 -2 80.5 21.5t23.5 113.5v474q0 78 -15.5 102.5t-72.5 28.5v34h363q133 0 209 -22.5t121 -97.5q25 -43 24 -99q0 -158 -178 -207l137 -249q47 -88 105 -99v-35h-242l-205 369h-47v-199q0 -82 21.5 -107.5t99.5 -27.5v-35h-424zM772 694q29 -4 53 -4q63 0 112.5 46 t49.5 132q0 172 -176 172h-39v-346z" />
<glyph unicode="&#xaf;" d="M102 1040l74 222h696l-75 -222h-695z" />
<glyph unicode="&#xb0;" horiz-adv-x="811" d="M156 1017.5q0 151.5 107.5 259t259 107.5t259 -107.5t107.5 -259t-107.5 -258t-259 -106.5t-259 106.5t-107.5 258zM311 1018q0 -88 61.5 -149.5t149.5 -61.5t149.5 61.5t61.5 149.5t-61.5 150.5t-149.5 62.5t-149.5 -62.5t-61.5 -150.5z" />
<glyph unicode="&#xb1;" horiz-adv-x="1366" d="M223 0v209h1110v-209h-1110zM223 809v209h451v450h209v-450h450v-209h-450v-451h-209v451h-451z" />
<glyph unicode="&#xb2;" horiz-adv-x="661" d="M168 666l31 86q49 33 142 101.5t130 104.5q139 133 139 261q0 104 -92 104q-31 0 -57.5 -17.5t-26.5 -43.5q0 -25 23 -39q16 -10 16 -17q0 -8 -37 -28.5t-53 -20.5q-25 0 -44.5 25.5t-19.5 56.5q0 59 62.5 102t179.5 43q80 0 134.5 -20.5t76 -52t28.5 -54t7 -43.5 q0 -72 -57.5 -145.5t-143.5 -130.5l-209 -135l-28 -15v-2h305l-53 -153h-84q6 14 6 26q0 6 -13 7h-362z" />
<glyph unicode="&#xb3;" horiz-adv-x="661" d="M172 752q0 27 17.5 46t50.5 19q51 0 77 -49q31 -57 70 -57q53 0 103.5 103.5t50.5 176.5q0 31 -15 31q-4 0 -61 -29q-37 -23 -53 -22q-39 0 -39 30q0 14 15 25.5t83 46.5q102 51 139 83t37 85q0 35 -21.5 58.5t-52.5 23.5q-23 0 -47 -19.5t-24 -54.5q0 -8 2 -14 q6 -14 6 -21q0 -8 -33 -29.5t-47 -21.5q-16 0 -34.5 20.5t-18.5 53.5q0 63 64.5 105t170.5 42q102 0 157.5 -36.5t55.5 -85.5q0 -51 -47 -97.5t-90 -67t-86 -36.5v-4q127 -25 127 -142q0 -104 -113.5 -185t-246.5 -81q-80 0 -138.5 29t-58.5 74z" />
<glyph unicode="&#xb4;" d="M322 985l149 326h410l-490 -326h-69z" />
<glyph unicode="&#xb6;" horiz-adv-x="1024" d="M59 903q0 233 185 369q63 47 157.5 65.5t325.5 18.5h440v-43h-45q-53 0 -83.5 -12.5t-43 -46t-15.5 -60.5t-3 -86v-1618h-98v1790h-183v-1790h-100v940q-283 12 -412 137q-125 121 -125 336z" />
<glyph unicode="&#xb7;" horiz-adv-x="704" d="M299 675.5q0 65.5 46 112t111.5 46.5t110.5 -46.5t45 -112t-46 -110.5t-109 -45q-66 0 -112 45t-46 110.5z" />
<glyph unicode="&#xb8;" d="M-31 -483l33 102q29 -6 70 -6q176 0 176 92q0 76 -125 64l135 237h117l-56 -92q70 -8 109 -47t44 -63.5t5 -47.5q0 -106 -102.5 -177t-274.5 -71q-74 1 -131 9z" />
<glyph unicode="&#xb9;" horiz-adv-x="661" d="M211 666l22 63q74 0 90.5 9.5t36.5 64.5l138 387q8 33 8 41q0 10 -5 17t-19.5 9.5t-25 3.5t-32.5 1h-43l22 59q98 2 172 16q96 18 119 47h72l-205 -581q-6 -16 -6 -33q0 -41 86 -41l-23 -63h-407z" />
<glyph unicode="&#xba;" horiz-adv-x="724" d="M225 1081q0 104 94.5 203.5t274.5 99.5q86 0 146.5 -23.5t87 -61t38 -70.5t11.5 -66q0 -123 -104.5 -216t-270.5 -93q-33 0 -69 6t-88 25.5t-86 69.5t-34 126zM418 1020q0 -109 84 -109q59 0 103 65.5t61.5 131.5t17.5 106q0 57 -22.5 85t-57.5 28q-63 0 -109 -71.5 t-61.5 -137t-15.5 -98.5z" />
<glyph unicode="&#xbb;" horiz-adv-x="1130" d="M57 0l240 467l-31 414h111l211 -443l-410 -438h-121zM582 0l239 467l-30 414h110l211 -443l-407 -438h-123z" />
<glyph unicode="&#xbc;" horiz-adv-x="1878" d="M266 666l23 63q74 0 90 9.5t37 64.5l137 387q8 33 8 41q0 10 -5 17t-19.5 9.5t-24.5 3.5t-33 1h-43l23 59q98 2 172 16q96 18 119 47h71l-205 -581q-6 -16 -6 -33q0 -41 86 -41l-22 -63h-408zM403 0l1127 1356h143l-1124 -1356h-146zM1108 233l22 119l416 371h154 l-146 -414q25 0 33 7.5t21 35.5l4 10h80l-50 -129h-114l-33 -94q-8 -16 -8 -33q0 -43 86 -43l-23 -63h-391l23 63q63 0 79.5 10.5t36.5 65.5l35 94h-225zM1190 309h168l80 215l-4 4z" />
<glyph unicode="&#xbd;" horiz-adv-x="1878" d="M266 666l23 63q74 0 90 9.5t37 64.5l137 387q8 33 8 41q0 10 -5 17t-19.5 9.5t-24.5 3.5t-33 1h-43l23 59q98 2 172 16q96 18 119 47h71l-205 -581q-6 -16 -6 -33q0 -41 86 -41l-22 -63h-408zM403 0l1127 1356h143l-1124 -1356h-146zM1139 0l30 88q43 27 138.5 97.5 t134.5 107.5q139 129 139 260q0 106 -92 106q-31 0 -57.5 -18t-26.5 -45q0 -25 22 -39q16 -6 16.5 -14t-35.5 -29.5t-52 -21.5q-25 0 -44.5 26.5t-19.5 56.5q0 57 62.5 101.5t179.5 44.5q78 0 132 -20.5t75.5 -52.5t29 -54.5t7.5 -42.5q0 -74 -56.5 -147.5t-142.5 -129.5 q-12 -8 -72.5 -48t-64.5 -42q-16 -12 -72 -47l-31 -12v-4h306l-54 -154h-82q4 16 4 23q0 10 -12 10h-362z" />
<glyph unicode="&#xbe;" horiz-adv-x="1878" d="M227 752q0 27 17.5 46t50.5 19q51 0 78 -49q29 -55 69 -55q53 0 103.5 102.5t50.5 175.5q0 31 -14 31q-13 0 -60 -29q-39 -23 -55 -22q-39 0 -39 30q0 14 15.5 25.5t82.5 46.5q72 37 101.5 54.5t53.5 47t24 66.5q0 35 -23 58.5t-51 23.5q-25 0 -49.5 -19.5t-24.5 -54.5 q0 -8 2 -14q6 -14 6 -21q0 -8 -32.5 -29.5t-47.5 -21.5q-16 0 -34.5 21.5t-18.5 52.5q0 63 64.5 105t171.5 42q102 0 158.5 -36.5t56.5 -85.5q0 -51 -48.5 -97.5t-90.5 -67t-87 -36.5v-4q127 -25 127 -142q0 -104 -112.5 -184t-245.5 -80q-82 0 -140.5 28t-58.5 73zM403 0 l1127 1356h143l-1124 -1356h-146zM1108 233l22 119l416 371h154l-146 -414q25 0 33 7.5t21 35.5l4 10h80l-50 -129h-114l-33 -94q-8 -16 -8 -33q0 -43 86 -43l-23 -63h-391l23 63q63 0 79.5 10.5t36.5 65.5l35 94h-225zM1190 309h168l80 215l-4 4z" />
<glyph unicode="&#xbf;" horiz-adv-x="917" d="M68 -135q0 166 112.5 283.5t263.5 117.5q32 0 93 -10l57 190h102l-102 -342h-49q-2 27 -16.5 47.5t-36.5 20.5q-37 0 -61.5 -42t-49.5 -130q-51 -178 -51 -272q0 -131 76 -131q57 0 81 51l17 33q41 82 102 81q35 0 63.5 -28.5t28.5 -73.5q0 -66 -74.5 -114t-185.5 -48 q-127 0 -215 60.5t-121.5 140.5t-33.5 166zM580 756q0 63 46 109t109 46q66 0 112 -45t46 -110.5t-46 -111.5t-111.5 -46t-110.5 46t-45 112z" />
<glyph unicode="&#xc0;" horiz-adv-x="1386" d="M-84 0l33 111q92 10 196 135l45 61q2 6 17 23l764 1054h205v-1099q0 -51 3 -74t17 -51.5t49 -38.5t94 -10l-32 -111h-670l33 111q115 4 149.5 51t34.5 172v141h-410l-75 -110q-74 -104 -74 -150q0 -98 135 -104l-33 -111h-481zM524 586h330v452h-4zM672 1794h409 l150 -326h-86z" />
<glyph unicode="&#xc1;" horiz-adv-x="1386" d="M-84 0l33 111q92 10 196 135l45 61q2 6 17 23l764 1054h205v-1099q0 -51 3 -74t17 -51.5t49 -38.5t94 -10l-32 -111h-670l33 111q115 4 149.5 51t34.5 172v141h-410l-75 -110q-74 -104 -74 -150q0 -98 135 -104l-33 -111h-481zM524 586h330v452h-4zM838 1466l149 326h410 l-490 -326h-69z" />
<glyph unicode="&#xc2;" horiz-adv-x="1386" d="M-84 0l33 111q92 10 196 135l45 61q2 6 17 23l764 1054h205v-1099q0 -51 3 -74t17 -51.5t49 -38.5t94 -10l-32 -111h-670l33 111q115 4 149.5 51t34.5 172v141h-410l-75 -110q-74 -104 -74 -150q0 -98 135 -104l-33 -111h-481zM524 586h330v452h-4zM748 1464l303 350h243 l107 -350h-125l-135 180l-285 -180h-108z" />
<glyph unicode="&#xc3;" horiz-adv-x="1386" d="M-84 0l33 111q92 10 196 135l45 61q2 6 17 23l764 1054h205v-1099q0 -51 3 -74t17 -51.5t49 -38.5t94 -10l-32 -111h-670l33 111q115 4 149.5 51t34.5 172v141h-410l-75 -110q-74 -104 -74 -150q0 -98 135 -104l-33 -111h-481zM524 586h330v452h-4zM717 1472 q-4 109 18 160q29 66 84 97.5t111 31.5q43 0 155 -33q111 -33 146 -33q74 0 96 89h78q2 -39 -3 -83t-24.5 -99.5t-69 -91.5t-122.5 -36q-59 0 -205 41q-76 21 -109 21q-59 0 -75 -64h-80z" />
<glyph unicode="&#xc4;" horiz-adv-x="1386" d="M-84 0l33 111q92 10 196 135l45 61q2 6 17 23l764 1054h205v-1099q0 -51 3 -74t17 -51.5t49 -38.5t94 -10l-32 -111h-670l33 111q115 4 149.5 51t34.5 172v141h-410l-75 -110q-74 -104 -74 -150q0 -98 135 -104l-33 -111h-481zM524 586h330v452h-4zM766 1636q0 59 41 100 t100 41t100 -41t41 -100t-41 -100t-100 -41q-57 0 -99 42t-42 99zM1171 1636q0 59 42.5 100t99.5 41q59 0 100 -41t41 -100q0 -57 -42 -99t-99.5 -42t-99.5 41t-42 100z" />
<glyph unicode="&#xc5;" horiz-adv-x="1386" d="M-84 0l33 111q92 10 196 135l45 61q2 6 17 23l764 1054h205v-1099q0 -51 3 -74t17 -51.5t49 -38.5t94 -10l-32 -111h-670l33 111q115 4 149.5 51t34.5 172v141h-410l-75 -110q-74 -104 -74 -150q0 -98 135 -104l-33 -111h-481zM524 586h330v452h-4zM906 1644 q0 82 57 138.5t139 56.5t139.5 -56.5t57.5 -138.5t-57.5 -139t-139.5 -57t-139 57t-57 139zM985 1644q0 -49 34 -84t83 -35t84 35t35 84t-35 84t-84 35t-83 -35t-34 -84z" />
<glyph unicode="&#xc6;" horiz-adv-x="1835" d="M-162 0l35 111q59 10 128 61t116 111l657 817q2 2 10.5 14t16.5 31.5t8 36.5q0 23 -11.5 37t-37 19t-43 6t-51.5 1l34 111h1231l6 -332h-108q-53 129 -106.5 175t-180.5 46h-127l-149 -487q63 2 88.5 4t64.5 11t57.5 29.5t40 56.5t37.5 91h119l-164 -534h-116 q23 80 22 112q0 41 -13 67t-44 36t-54.5 13t-72.5 3l-113 -368q-2 -8 -9 -43t-7 -52q0 -18 7 -31.5t21.5 -21.5t27.5 -13t32.5 -6t31 -2t27.5 1h17q59 0 106 6t114.5 28.5t128 79t103.5 142.5h111l-111 -367h-1179l34 111q98 0 135 36t66 132l113 368h-330l-248 -305 q-70 -82 -69 -135q0 -51 42 -73.5t97 -22.5l-31 -111h-510zM645 758h277l168 551l-5 4z" />
<glyph unicode="&#xc7;" horiz-adv-x="1449" d="M184 506q0 219 109.5 421.5t304.5 329.5t420 127q41 0 89 -7t137 -49t149 -118q57 80 80 136h100l-100 -465h-103q2 248 -139 344q-72 49 -156 49q-96 0 -184 -60.5t-151.5 -156.5t-110.5 -213t-70.5 -231.5t-23.5 -209.5q0 -133 62 -227t183 -94q256 0 455 367q4 6 6 10 h115l-135 -447h-99l8 144q-160 -168 -364 -181l-29 -61q78 -8 122 -53t44 -109q0 -117 -109.5 -187.5t-263.5 -70.5q-88 0 -174 19l37 108q29 -6 84 -6q150 0 150 90q0 59 -95 59l111 211q-197 23 -328 163.5t-131 367.5z" />
<glyph unicode="&#xc8;" horiz-adv-x="1343" d="M4 0l33 111q33 2 49 7t38.5 20.5t40 48t34.5 87.5l252 828q10 33 10 51q0 49 -39 70.5t-74 21.5l35 111h993l8 -334h-112q-49 137 -110.5 180t-198.5 43h-129l-152 -487h68q119 0 161.5 35.5t85.5 156.5h117l-164 -534h-116q23 84 22 114q0 59 -37 88t-127 29h-43 l-106 -350q-4 -4 -4 -12q-18 -55 -19 -78q0 -96 180 -96q63 0 112.5 7t119 29.5t128 79t99.5 142.5h113l-113 -369h-1155zM631 1794h409l150 -326h-86z" />
<glyph unicode="&#xc9;" horiz-adv-x="1343" d="M4 0l33 111q33 2 49 7t38.5 20.5t40 48t34.5 87.5l252 828q10 33 10 51q0 49 -39 70.5t-74 21.5l35 111h993l8 -334h-112q-49 137 -110.5 180t-198.5 43h-129l-152 -487h68q119 0 161.5 35.5t85.5 156.5h117l-164 -534h-116q23 84 22 114q0 59 -37 88t-127 29h-43 l-106 -350q-4 -4 -4 -12q-18 -55 -19 -78q0 -96 180 -96q63 0 112.5 7t119 29.5t128 79t99.5 142.5h113l-113 -369h-1155zM797 1466l149 326h410l-490 -326h-69z" />
<glyph unicode="&#xca;" horiz-adv-x="1343" d="M4 0l33 111q33 2 49 7t38.5 20.5t40 48t34.5 87.5l252 828q10 33 10 51q0 49 -39 70.5t-74 21.5l35 111h993l8 -334h-112q-49 137 -110.5 180t-198.5 43h-129l-152 -487h68q119 0 161.5 35.5t85.5 156.5h117l-164 -534h-116q23 84 22 114q0 59 -37 88t-127 29h-43 l-106 -350q-4 -4 -4 -12q-18 -55 -19 -78q0 -96 180 -96q63 0 112.5 7t119 29.5t128 79t99.5 142.5h113l-113 -369h-1155zM605 1464l303 350h243l107 -350h-125l-135 180l-285 -180h-108z" />
<glyph unicode="&#xcb;" horiz-adv-x="1343" d="M4 0l33 111q33 2 49 7t38.5 20.5t40 48t34.5 87.5l252 828q10 33 10 51q0 49 -39 70.5t-74 21.5l35 111h993l8 -334h-112q-49 137 -110.5 180t-198.5 43h-129l-152 -487h68q119 0 161.5 35.5t85.5 156.5h117l-164 -534h-116q23 84 22 114q0 59 -37 88t-127 29h-43 l-106 -350q-4 -4 -4 -12q-18 -55 -19 -78q0 -96 180 -96q63 0 112.5 7t119 29.5t128 79t99.5 142.5h113l-113 -369h-1155zM647 1636q0 59 41 100t100 41t100 -41t41 -100t-41 -100t-100 -41q-57 0 -99 42t-42 99zM1052 1636q0 59 42.5 100t99.5 41q59 0 100 -41t41 -100 q0 -57 -42 -99t-99.5 -42t-99.5 41t-42 100z" />
<glyph unicode="&#xcc;" horiz-adv-x="811" d="M8 0l31 111q72 10 102.5 37.5t61.5 127.5l237 779q25 80 25 98q0 45 -33 68.5t-82 23.5l35 111h573l-34 -111q-92 -8 -129 -133l-250 -817q0 -2 -1 -6t-3 -10.5t-2 -10.5q-4 -8 -4 -10q-10 -37 -11 -53q0 -45 39 -69.5t88 -24.5l-33 -111h-610zM365 1794h409l150 -326 h-86z" />
<glyph unicode="&#xcd;" horiz-adv-x="811" d="M8 0l31 111q72 10 102.5 37.5t61.5 127.5l237 779q25 80 25 98q0 45 -33 68.5t-82 23.5l35 111h573l-34 -111q-92 -8 -129 -133l-250 -817q0 -2 -1 -6t-3 -10.5t-2 -10.5q-4 -8 -4 -10q-10 -37 -11 -53q0 -45 39 -69.5t88 -24.5l-33 -111h-610zM531 1466l149 326h410 l-490 -326h-69z" />
<glyph unicode="&#xce;" horiz-adv-x="811" d="M8 0l31 111q72 10 102.5 37.5t61.5 127.5l237 779q25 80 25 98q0 45 -33 68.5t-82 23.5l35 111h573l-34 -111q-92 -8 -129 -133l-250 -817q0 -2 -1 -6t-3 -10.5t-2 -10.5q-4 -8 -4 -10q-10 -37 -11 -53q0 -45 39 -69.5t88 -24.5l-33 -111h-610zM349 1464l303 350h243 l107 -350h-125l-135 180l-285 -180h-108z" />
<glyph unicode="&#xcf;" horiz-adv-x="811" d="M8 0l31 111q72 10 102.5 37.5t61.5 127.5l237 779q25 80 25 98q0 45 -33 68.5t-82 23.5l35 111h573l-34 -111q-92 -8 -129 -133l-250 -817q0 -2 -1 -6t-3 -10.5t-2 -10.5q-4 -8 -4 -10q-10 -37 -11 -53q0 -45 39 -69.5t88 -24.5l-33 -111h-610zM402 1636q0 59 41 100 t100 41t100 -41t41 -100t-41 -100t-100 -41q-57 0 -99 42t-42 99zM807 1636q0 59 42.5 100t99.5 41q59 0 100 -41t41 -100q0 -57 -42 -99t-99.5 -42t-99.5 41t-42 100z" />
<glyph unicode="&#xd0;" horiz-adv-x="1556" d="M-10 0l33 111q80 0 113.5 39.5t60.5 123.5l106 342h-170l39 121h168l109 365q10 27 10 51q0 49 -39 70.5t-78 21.5l35 111h518q84 0 135 -3t137 -29t158 -75q223 -154 223 -463q0 -188 -83 -356t-232 -278q-115 -84 -255 -118t-351 -34h-637zM516 199q0 -41 41 -64.5 t100 -23.5q131 0 233.5 67.5t158 161.5t91.5 210t47 195.5t11 137.5q0 178 -90 274q-49 53 -99.5 67.5t-177.5 20.5l-155 -508h258l-37 -121h-258l-94 -303q-29 -90 -29 -114z" />
<glyph unicode="&#xd1;" horiz-adv-x="1536" d="M-23 0l35 111q41 6 74 24.5t52.5 39t38 58t26.5 62t22 70.5l238 780q-12 31 -25.5 49t-48.5 34.5t-88 16.5h-33l33 111h414l467 -961l196 645q16 57 17 86q0 107 -158 119v10l35 101h469l-35 -111q-47 -10 -74.5 -22.5t-64.5 -58.5t-62 -126l-323 -1052h-154l-489 991 l-203 -662q-16 -59 -17 -92q0 -102 156 -112l-35 -111h-463zM772 1472q-4 109 18 160q29 66 84 97.5t111 31.5q43 0 155 -33q111 -33 146 -33q74 0 96 89h78q2 -39 -3 -83t-24.5 -99.5t-69 -91.5t-122.5 -36q-59 0 -205 41q-76 21 -109 21q-59 0 -75 -64h-80z" />
<glyph unicode="&#xd2;" horiz-adv-x="1642" d="M188 588q0 82 35 184t107.5 210t170 198t238 147t295.5 57q297 0 450.5 -173t153.5 -418q0 -197 -110.5 -385.5t-307 -312.5t-423.5 -124q-346 0 -512 250q-97 146 -97 367zM539 381q0 -154 66.5 -226.5t172.5 -72.5q127 0 231.5 104.5t162 254t87 289.5t29.5 239 q0 305 -235 305q-121 0 -223.5 -97.5t-163 -239.5t-94 -290.5t-33.5 -265.5zM781 1794h409l150 -326h-86z" />
<glyph unicode="&#xd3;" horiz-adv-x="1642" d="M188 588q0 82 35 184t107.5 210t170 198t238 147t295.5 57q297 0 450.5 -173t153.5 -418q0 -197 -110.5 -385.5t-307 -312.5t-423.5 -124q-346 0 -512 250q-97 146 -97 367zM539 381q0 -154 66.5 -226.5t172.5 -72.5q127 0 231.5 104.5t162 254t87 289.5t29.5 239 q0 305 -235 305q-121 0 -223.5 -97.5t-163 -239.5t-94 -290.5t-33.5 -265.5zM947 1466l149 326h410l-490 -326h-69z" />
<glyph unicode="&#xd4;" horiz-adv-x="1642" d="M188 588q0 82 35 184t107.5 210t170 198t238 147t295.5 57q297 0 450.5 -173t153.5 -418q0 -197 -110.5 -385.5t-307 -312.5t-423.5 -124q-346 0 -512 250q-97 146 -97 367zM539 381q0 -154 66.5 -226.5t172.5 -72.5q127 0 231.5 104.5t162 254t87 289.5t29.5 239 q0 305 -235 305q-121 0 -223.5 -97.5t-163 -239.5t-94 -290.5t-33.5 -265.5zM744 1464l303 350h243l107 -350h-125l-135 180l-285 -180h-108z" />
<glyph unicode="&#xd5;" horiz-adv-x="1642" d="M188 588q0 82 35 184t107.5 210t170 198t238 147t295.5 57q297 0 450.5 -173t153.5 -418q0 -197 -110.5 -385.5t-307 -312.5t-423.5 -124q-346 0 -512 250q-97 146 -97 367zM539 381q0 -154 66.5 -226.5t172.5 -72.5q127 0 231.5 104.5t162 254t87 289.5t29.5 239 q0 305 -235 305q-121 0 -223.5 -97.5t-163 -239.5t-94 -290.5t-33.5 -265.5zM805 1472q-4 109 18 160q29 66 84 97.5t111 31.5q43 0 155 -33q111 -33 146 -33q74 0 96 89h78q2 -39 -3 -83t-24.5 -99.5t-69 -91.5t-122.5 -36q-59 0 -205 41q-76 21 -109 21q-59 0 -75 -64h-80 z" />
<glyph unicode="&#xd6;" horiz-adv-x="1642" d="M188 588q0 82 35 184t107.5 210t170 198t238 147t295.5 57q297 0 450.5 -173t153.5 -418q0 -197 -110.5 -385.5t-307 -312.5t-423.5 -124q-346 0 -512 250q-97 146 -97 367zM539 381q0 -154 66.5 -226.5t172.5 -72.5q127 0 231.5 104.5t162 254t87 289.5t29.5 239 q0 305 -235 305q-121 0 -223.5 -97.5t-163 -239.5t-94 -290.5t-33.5 -265.5zM807 1636q0 59 41 100t100 41t100 -41t41 -100t-41 -100t-100 -41q-57 0 -99 42t-42 99zM1212 1636q0 59 42.5 100t99.5 41q59 0 100 -41t41 -100q0 -57 -42 -99t-99.5 -42t-99.5 41t-42 100z" />
<glyph unicode="&#xd7;" horiz-adv-x="1366" d="M256 1051l147 147l377 -377l377 377l148 -147l-377 -377l375 -375l-148 -145l-375 372l-372 -372l-148 145l373 375z" />
<glyph unicode="&#xd8;" horiz-adv-x="1642" d="M186 555q0 303 263 575q244 254 581 254q193 0 334 -77l59 71l84 -71l-55 -62q84 -74 135 -194.5t51 -255.5q0 -186 -106.5 -375t-304 -319t-428.5 -130q-199 0 -330 78l-88 -104l-80 69l80 99q-195 168 -195 442zM537 383q0 -45 4 -78l708 860q-57 109 -196 109 q-121 0 -225.5 -100.5t-164 -247t-93 -290.5t-33.5 -253zM582 184q68 -102 196 -102q281 0 443 500q81 251 63 456z" />
<glyph unicode="&#xd9;" horiz-adv-x="1492" d="M207 330q0 80 45 223l168 549q10 33 10 51q0 49 -40 70.5t-89 21.5l35 111h651l-35 -111q-98 0 -134 -29.5t-62 -109.5l-197 -649q-35 -115 -35 -164q0 -104 75 -151.5t171 -47.5q293 0 393 352l168 592q18 61 19 88q0 104 -156 119l33 111h489l-33 -111 q-57 -6 -100 -28.5t-66.5 -58.5t-33.5 -60.5t-21 -59.5l-186 -626q-68 -231 -212 -335t-364 -104q-227 0 -360 97.5t-133 259.5zM684 1794h409l150 -326h-86z" />
<glyph unicode="&#xda;" horiz-adv-x="1492" d="M207 330q0 80 45 223l168 549q10 33 10 51q0 49 -40 70.5t-89 21.5l35 111h651l-35 -111q-98 0 -134 -29.5t-62 -109.5l-197 -649q-35 -115 -35 -164q0 -104 75 -151.5t171 -47.5q293 0 393 352l168 592q18 61 19 88q0 104 -156 119l33 111h489l-33 -111 q-57 -6 -100 -28.5t-66.5 -58.5t-33.5 -60.5t-21 -59.5l-186 -626q-68 -231 -212 -335t-364 -104q-227 0 -360 97.5t-133 259.5zM891 1466l149 326h410l-490 -326h-69z" />
<glyph unicode="&#xdb;" horiz-adv-x="1492" d="M207 330q0 80 45 223l168 549q10 33 10 51q0 49 -40 70.5t-89 21.5l35 111h651l-35 -111q-98 0 -134 -29.5t-62 -109.5l-197 -649q-35 -115 -35 -164q0 -104 75 -151.5t171 -47.5q293 0 393 352l168 592q18 61 19 88q0 104 -156 119l33 111h489l-33 -111 q-57 -6 -100 -28.5t-66.5 -58.5t-33.5 -60.5t-21 -59.5l-186 -626q-68 -231 -212 -335t-364 -104q-227 0 -360 97.5t-133 259.5zM709 1464l303 350h243l107 -350h-125l-135 180l-285 -180h-108z" />
<glyph unicode="&#xdc;" horiz-adv-x="1492" d="M207 330q0 80 45 223l168 549q10 33 10 51q0 49 -40 70.5t-89 21.5l35 111h651l-35 -111q-98 0 -134 -29.5t-62 -109.5l-197 -649q-35 -115 -35 -164q0 -104 75 -151.5t171 -47.5q293 0 393 352l168 592q18 61 19 88q0 104 -156 119l33 111h489l-33 -111 q-57 -6 -100 -28.5t-66.5 -58.5t-33.5 -60.5t-21 -59.5l-186 -626q-68 -231 -212 -335t-364 -104q-227 0 -360 97.5t-133 259.5zM752 1636q0 59 41 100t100 41t100 -41t41 -100t-41 -100t-100 -41q-57 0 -99 42t-42 99zM1157 1636q0 59 42.5 100t99.5 41q59 0 100 -41 t41 -100q0 -57 -42 -99t-99.5 -42t-99.5 41t-42 100z" />
<glyph unicode="&#xdd;" horiz-adv-x="1259" d="M227 0l33 111q59 0 97 10t60.5 37.5t32 49.5t23.5 71l94 309l-135 483q-33 115 -61.5 144.5t-126.5 29.5l32 111h637l-34 -111q-127 -10 -127 -84q0 -18 18 -98l92 -346l223 307q59 82 60 137q0 45 -39 64.5t-82 19.5l33 111h493l-32 -111q-84 2 -137.5 -42t-157.5 -185 l-310 -418l-94 -307q-2 -4 -6 -25q0 -2 -2 -6t-2 -6q-10 -37 -10 -53q0 -92 170 -92l-35 -111h-707zM775 1466l149 326h410l-490 -326h-69z" />
<glyph unicode="&#xde;" horiz-adv-x="1259" d="M-4 0l35 111q72 4 103.5 34.5t62.5 128.5l252 828q10 33 10 51q0 92 -135 92l32 111h637l-35 -113q-80 -2 -112.5 -30.5t-63.5 -125.5l-10 -32q111 -2 160 -4t119.5 -15.5t124.5 -42.5q82 -41 124.5 -119.5t42.5 -160.5q0 -23 -4 -49.5t-19 -79t-60.5 -105.5t-112.5 -92 q-150 -86 -424 -86h-182q0 -2 -4.5 -16.5t-8.5 -28.5q-10 -31 -10 -51q0 -94 150 -94l-35 -111h-637zM575 412h97q150 0 221 71q49 49 80 127t31 146q-1 188 -226 188h-41z" />
<glyph unicode="&#xdf;" horiz-adv-x="1193" d="M-442 -360q0 68 43 103.5t102 35.5q113 0 133 -107q12 -76 53 -75q43 0 70 57q41 86 137 528q2 23 31 125l115 449q10 41 33.5 113.5t88 198.5t132.5 183q160 133 383 133q104 0 179 -30.5t110.5 -80.5t51 -97.5t15.5 -96.5q0 -152 -121 -248q-74 -59 -203 -83v-5 q78 -23 130.5 -66.5t69.5 -97t22.5 -81t5.5 -56.5q0 -197 -148.5 -334t-335.5 -137q-92 0 -142 46t-50 106q0 45 28.5 69.5t59.5 24.5q10 0 22.5 -3t31 -24.5t18.5 -62.5q0 -68 41 -68q76 0 128 160t52 275q0 211 -199 215l29 88q129 6 188 69q49 51 76 139.5t27 145.5 q0 55 -33 100t-92 45q-45 0 -84 -25.5t-62.5 -56t-48 -93t-35 -98.5t-30.5 -110l-166 -624q-8 -20 -19 -68q-31 -109 -55.5 -184.5t-63 -167.5t-84 -153.5t-104.5 -116t-139 -81t-176 -26.5q-102 0 -158.5 39t-56.5 109z" />
<glyph unicode="&#xe0;" horiz-adv-x="1153" d="M94 195q0 147 71 294.5t195.5 247t268.5 99.5q78 0 106.5 -39t36.5 -103h4l33 125h287l-185 -602q-2 -4 -4 -12l-2 -6q-6 -18 -6 -31q0 -29 27 -29q51 0 102 92h111q-51 -131 -148.5 -196.5t-202.5 -65.5q-23 0 -46 5.5t-56 19.5t-53.5 51t-20.5 90q0 29 6 53l-4 5 q-168 -223 -335 -224q-68 0 -126.5 51.5t-58.5 174.5zM392 1297h409l150 -326h-86zM395 240q0 -80 58 -80q100 0 192 209q84 182 84 278q0 90 -63 90q-55 0 -108.5 -64.5t-87.5 -151.5t-54.5 -165.5t-20.5 -115.5z" />
<glyph unicode="&#xe1;" horiz-adv-x="1153" d="M94 195q0 147 71 294.5t195.5 247t268.5 99.5q78 0 106.5 -39t36.5 -103h4l33 125h287l-185 -602q-2 -4 -4 -12l-2 -6q-6 -18 -6 -31q0 -29 27 -29q51 0 102 92h111q-51 -131 -148.5 -196.5t-202.5 -65.5q-23 0 -46 5.5t-56 19.5t-53.5 51t-20.5 90q0 29 6 53l-4 5 q-168 -223 -335 -224q-68 0 -126.5 51.5t-58.5 174.5zM395 240q0 -80 58 -80q100 0 192 209q84 182 84 278q0 90 -63 90q-55 0 -108.5 -64.5t-87.5 -151.5t-54.5 -165.5t-20.5 -115.5zM558 969l149 326h410l-490 -326h-69z" />
<glyph unicode="&#xe2;" horiz-adv-x="1153" d="M94 195q0 147 71 294.5t195.5 247t268.5 99.5q78 0 106.5 -39t36.5 -103h4l33 125h287l-185 -602q-2 -4 -4 -12l-2 -6q-6 -18 -6 -31q0 -29 27 -29q51 0 102 92h111q-51 -131 -148.5 -196.5t-202.5 -65.5q-23 0 -46 5.5t-56 19.5t-53.5 51t-20.5 90q0 29 6 53l-4 5 q-168 -223 -335 -224q-68 0 -126.5 51.5t-58.5 174.5zM385 967l303 350h243l107 -350h-125l-135 180l-285 -180h-108zM395 240q0 -80 58 -80q100 0 192 209q84 182 84 278q0 90 -63 90q-55 0 -108.5 -64.5t-87.5 -151.5t-54.5 -165.5t-20.5 -115.5z" />
<glyph unicode="&#xe3;" horiz-adv-x="1153" d="M94 195q0 147 71 294.5t195.5 247t268.5 99.5q78 0 106.5 -39t36.5 -103h4l33 125h287l-185 -602q-2 -4 -4 -12l-2 -6q-6 -18 -6 -31q0 -29 27 -29q51 0 102 92h111q-51 -131 -148.5 -196.5t-202.5 -65.5q-23 0 -46 5.5t-56 19.5t-53.5 51t-20.5 90q0 29 6 53l-4 5 q-168 -223 -335 -224q-68 0 -126.5 51.5t-58.5 174.5zM395 240q0 -80 58 -80q100 0 192 209q84 182 84 278q0 90 -63 90q-55 0 -108.5 -64.5t-87.5 -151.5t-54.5 -165.5t-20.5 -115.5zM437 975q-4 109 18 160q29 66 84 97.5t111 31.5q43 0 155 -33q111 -33 146 -33 q74 0 96 89h78q2 -39 -3 -83t-24.5 -99.5t-69 -91.5t-122.5 -36q-59 0 -205 41q-76 21 -109 21q-59 0 -75 -64h-80z" />
<glyph unicode="&#xe4;" horiz-adv-x="1153" d="M94 195q0 147 71 294.5t195.5 247t268.5 99.5q78 0 106.5 -39t36.5 -103h4l33 125h287l-185 -602q-2 -4 -4 -12l-2 -6q-6 -18 -6 -31q0 -29 27 -29q51 0 102 92h111q-51 -131 -148.5 -196.5t-202.5 -65.5q-23 0 -46 5.5t-56 19.5t-53.5 51t-20.5 90q0 29 6 53l-4 5 q-168 -223 -335 -224q-68 0 -126.5 51.5t-58.5 174.5zM395 240q0 -80 58 -80q100 0 192 209q84 182 84 278q0 90 -63 90q-55 0 -108.5 -64.5t-87.5 -151.5t-54.5 -165.5t-20.5 -115.5zM439 1139q0 59 41 100t100 41t100 -41t41 -100t-41 -100t-100 -41q-57 0 -99 42t-42 99z M844 1139q0 59 42.5 100t99.5 41q59 0 100 -41t41 -100q0 -57 -42 -99t-99.5 -42t-99.5 41t-42 100z" />
<glyph unicode="&#xe5;" horiz-adv-x="1153" d="M94 195q0 147 71 294.5t195.5 247t268.5 99.5q78 0 106.5 -39t36.5 -103h4l33 125h287l-185 -602q-2 -4 -4 -12l-2 -6q-6 -18 -6 -31q0 -29 27 -29q51 0 102 92h111q-51 -131 -148.5 -196.5t-202.5 -65.5q-23 0 -46 5.5t-56 19.5t-53.5 51t-20.5 90q0 29 6 53l-4 5 q-168 -223 -335 -224q-68 0 -126.5 51.5t-58.5 174.5zM395 240q0 -80 58 -80q100 0 192 209q84 182 84 278q0 90 -63 90q-55 0 -108.5 -64.5t-87.5 -151.5t-54.5 -165.5t-20.5 -115.5zM584 1147q0 82 57 138.5t139 56.5t139.5 -56.5t57.5 -138.5t-57.5 -139t-139.5 -57 t-139 57t-57 139zM663 1147q0 -49 34 -84t83 -35t84 35t35 84t-35 84t-84 35t-83 -35t-34 -84z" />
<glyph unicode="&#xe6;" horiz-adv-x="1449" d="M90 219q0 123 69.5 267.5t204 255t285.5 110.5q141 0 150 -141h4l51 125h184l-63 -140l4 -4q41 49 69.5 76t90 54.5t139.5 27.5q90 0 147.5 -41t57.5 -121q0 -152 -203 -264q-78 -43 -144.5 -63.5t-215.5 -51.5q-2 -29 -2 -59q0 -160 120 -160q55 0 128 41t139 115h135 q-217 -276 -510 -277q-119 0 -203 49.5t-113 149.5q-168 -197 -325 -197q-88 0 -143.5 69t-55.5 179zM391 270q0 -117 66 -116q117 0 209 249q20 57 38.5 121t25.5 101t7 45q0 10 -3 24.5t-20.5 34t-45.5 19.5q-70 0 -137.5 -97.5t-103.5 -208.5t-36 -172zM946 416 q125 27 207 112.5t82 163.5q0 29 -15.5 44.5t-35.5 15.5q-31 0 -66 -22.5t-85 -102.5t-87 -211z" />
<glyph unicode="&#xe7;" horiz-adv-x="1003" d="M74 -479l37 92q102 -2 163.5 16.5t78 39t16.5 44.5q0 33 -28 50.5t-69 17.5q-32 0 -73 -8l133 207q-244 41 -244 264q0 217 192.5 411.5t442.5 194.5q84 0 142.5 -22.5t83 -57.5t32.5 -62.5t8 -56.5q0 -55 -32.5 -106t-102.5 -51q-47 0 -83 29.5t-36 86.5q0 27 6 45 q6 12 7 21q6 12 6 26q0 49 -72 50q-68 0 -125 -67t-89 -156t-49.5 -165.5t-17.5 -113.5q0 -160 134 -160q139 0 286 156h131q-199 -276 -514 -277l-35 -55q147 -20 148 -152q0 -260 -477 -241z" />
<glyph unicode="&#xe8;" horiz-adv-x="1003" d="M68 231q0 221 213 420t471 199q219 0 219 -162q0 -141 -170 -242.5t-414 -136.5q-6 -27 -6 -61q0 -158 133 -158q140 0 285 158h133q-82 -121 -222.5 -200t-308.5 -79t-258 78q-76 66 -75 184zM318 1313h409l150 -326h-86zM410 414q125 18 219 106t94 170q0 61 -59 62 q-66 0 -133.5 -83t-120.5 -255z" />
<glyph unicode="&#xe9;" horiz-adv-x="1003" d="M68 231q0 221 213 420t471 199q219 0 219 -162q0 -141 -170 -242.5t-414 -136.5q-6 -27 -6 -61q0 -158 133 -158q140 0 285 158h133q-82 -121 -222.5 -200t-308.5 -79t-258 78q-76 66 -75 184zM410 414q125 18 219 106t94 170q0 61 -59 62q-66 0 -133.5 -83t-120.5 -255z M484 969l149 326h410l-490 -326h-69z" />
<glyph unicode="&#xea;" horiz-adv-x="1003" d="M68 231q0 221 213 420t471 199q219 0 219 -162q0 -141 -170 -242.5t-414 -136.5q-6 -27 -6 -61q0 -158 133 -158q140 0 285 158h133q-82 -121 -222.5 -200t-308.5 -79t-258 78q-76 66 -75 184zM312 967l303 350h243l107 -350h-125l-135 180l-285 -180h-108zM410 414 q125 18 219 106t94 170q0 61 -59 62q-66 0 -133.5 -83t-120.5 -255z" />
<glyph unicode="&#xeb;" horiz-adv-x="1003" d="M68 231q0 221 213 420t471 199q219 0 219 -162q0 -141 -170 -242.5t-414 -136.5q-6 -27 -6 -61q0 -158 133 -158q140 0 285 158h133q-82 -121 -222.5 -200t-308.5 -79t-258 78q-76 66 -75 184zM365 1155q0 59 41 100t100 41t100 -41t41 -100t-41 -100t-100 -41 q-57 0 -99 42t-42 99zM410 414q125 18 219 106t94 170q0 61 -59 62q-66 0 -133.5 -83t-120.5 -255zM770 1155q0 59 42.5 100t99.5 41q59 0 100 -41t41 -100q0 -57 -42 -99t-99.5 -42t-99.5 41t-42 100z" />
<glyph unicode="&#xec;" d="M57 573q129 276 365 277q86 0 131 -41t45 -111q0 -55 -43 -163l-115 -318l-2 -4q-2 -2 -3 -6t-3 -8q0 -2 -2 -6v-5q-16 -43 -16 -53q0 -25 26 -24q25 0 63 42t64 89h103q-16 -35 -39 -71t-67 -87t-110.5 -83t-142.5 -32q-188 0 -188 156q0 47 41 158l119 344q14 43 14 51 q0 25 -25 24q-45 0 -118 -129h-97zM156 1313h409l150 -326h-86z" />
<glyph unicode="&#xed;" d="M57 573q129 276 365 277q86 0 131 -41t45 -111q0 -55 -43 -163l-115 -318l-2 -4q-2 -2 -3 -6t-3 -8q0 -2 -2 -6v-5q-16 -43 -16 -53q0 -25 26 -24q25 0 63 42t64 89h103q-16 -35 -39 -71t-67 -87t-110.5 -83t-142.5 -32q-188 0 -188 156q0 47 41 158l119 344q14 43 14 51 q0 25 -25 24q-45 0 -118 -129h-97zM322 985l149 326h410l-490 -326h-69z" />
<glyph unicode="&#xee;" d="M57 573q129 276 365 277q86 0 131 -41t45 -111q0 -55 -43 -163l-115 -318l-2 -4q-2 -2 -3 -6t-3 -8q0 -2 -2 -6v-5q-16 -43 -16 -53q0 -25 26 -24q25 0 63 42t64 89h103q-16 -35 -39 -71t-67 -87t-110.5 -83t-142.5 -32q-188 0 -188 156q0 47 41 158l119 344q14 43 14 51 q0 25 -25 24q-45 0 -118 -129h-97zM109 983l303 350h243l107 -350h-125l-135 180l-285 -180h-108z" />
<glyph unicode="&#xef;" d="M57 573q129 276 365 277q86 0 131 -41t45 -111q0 -55 -43 -163l-115 -318l-2 -4q-2 -2 -3 -6t-3 -8q0 -2 -2 -6v-5q-16 -43 -16 -53q0 -25 26 -24q25 0 63 42t64 89h103q-16 -35 -39 -71t-67 -87t-110.5 -83t-142.5 -32q-188 0 -188 156q0 47 41 158l119 344q14 43 14 51 q0 25 -25 24q-45 0 -118 -129h-97zM203 1155q0 59 41 100t100 41t100 -41t41 -100t-41 -100t-100 -41q-57 0 -99 42t-42 99zM608 1155q0 59 42.5 100t99.5 41q59 0 100 -41t41 -100q0 -57 -42 -99t-99.5 -42t-99.5 41t-42 100z" />
<glyph unicode="&#xf0;" horiz-adv-x="1130" d="M94 326q0 80 31 166t93.5 171t175 139t255.5 54q82 0 164 -45q4 109 -43 262l-207 -106l-43 84l211 110q-29 61 -72 135l164 90q43 -53 92 -129l164 86l47 -83l-163 -86q61 -121 95 -236t34 -287q0 -184 -49.5 -321t-133.5 -213t-181 -112t-208 -36q-123 0 -212 37 t-133 95.5t-62.5 113.5t-18.5 111zM389 236q0 -168 115 -168q57 0 108 43q55 49 114.5 203.5t59.5 293.5q0 61 -31.5 105.5t-88.5 44.5q-78 0 -145.5 -99.5t-99.5 -218t-32 -204.5z" />
<glyph unicode="&#xf1;" horiz-adv-x="1236" d="M51 569q109 281 342 281q82 0 125 -39t43 -104q0 -86 -55 -256l4 -5q227 403 463 404q57 0 105 -37t48 -104q0 -31 -20 -105l-100 -336q-31 -98 -31 -112q0 -33 31 -33q29 0 59.5 29.5t45.5 54t26 43.5h100q-123 -264 -385 -264q-178 0 -178 137q-1 29 28 127l93 309 l8 25q8 27 8 39t-10 21t-23 9q-84 0 -232.5 -272t-170.5 -381h-293l192 627q0 4 4.5 18t7.5 26.5t3 16.5q0 27 -29 27q-63 0 -127 -146h-82zM480 991q-4 109 18 160q29 66 84 97.5t111 31.5q43 0 155 -33q111 -33 146 -33q74 0 96 89h78q2 -39 -3 -83t-24.5 -99.5t-69 -91.5 t-122.5 -36q-59 0 -205 41q-76 21 -109 21q-59 0 -75 -64h-80z" />
<glyph unicode="&#xf2;" horiz-adv-x="1130" d="M92 346q0 59 18.5 124t62.5 133.5t107.5 122.5t164 89t219.5 35q109 0 190.5 -28.5t125.5 -68.5t71.5 -93.5t36 -94.5t8.5 -80q0 -211 -163 -363.5t-415 -152.5q-184 0 -305 92t-121 285zM381 1313h409l150 -326h-86zM387 246q0 -182 131 -183q70 0 128.5 65t90 155 t48 167.5t16.5 118.5q0 90 -35 138.5t-90 48.5q-76 0 -136.5 -70t-91 -165t-46 -168.5t-15.5 -106.5z" />
<glyph unicode="&#xf3;" horiz-adv-x="1130" d="M92 346q0 59 18.5 124t62.5 133.5t107.5 122.5t164 89t219.5 35q109 0 190.5 -28.5t125.5 -68.5t71.5 -93.5t36 -94.5t8.5 -80q0 -211 -163 -363.5t-415 -152.5q-184 0 -305 92t-121 285zM387 246q0 -182 131 -183q70 0 128.5 65t90 155t48 167.5t16.5 118.5 q0 90 -35 138.5t-90 48.5q-76 0 -136.5 -70t-91 -165t-46 -168.5t-15.5 -106.5zM547 985l149 326h410l-490 -326h-69z" />
<glyph unicode="&#xf4;" horiz-adv-x="1130" d="M92 346q0 59 18.5 124t62.5 133.5t107.5 122.5t164 89t219.5 35q109 0 190.5 -28.5t125.5 -68.5t71.5 -93.5t36 -94.5t8.5 -80q0 -211 -163 -363.5t-415 -152.5q-184 0 -305 92t-121 285zM375 983l303 350h243l107 -350h-125l-135 180l-285 -180h-108zM387 246 q0 -182 131 -183q70 0 128.5 65t90 155t48 167.5t16.5 118.5q0 90 -35 138.5t-90 48.5q-76 0 -136.5 -70t-91 -165t-46 -168.5t-15.5 -106.5z" />
<glyph unicode="&#xf5;" horiz-adv-x="1130" d="M92 346q0 59 18.5 124t62.5 133.5t107.5 122.5t164 89t219.5 35q109 0 190.5 -28.5t125.5 -68.5t71.5 -93.5t36 -94.5t8.5 -80q0 -211 -163 -363.5t-415 -152.5q-184 0 -305 92t-121 285zM387 246q0 -182 131 -183q70 0 128.5 65t90 155t48 167.5t16.5 118.5 q0 90 -35 138.5t-90 48.5q-76 0 -136.5 -70t-91 -165t-46 -168.5t-15.5 -106.5zM426 991q-4 109 18 160q29 66 84 97.5t111 31.5q43 0 155 -33q111 -33 146 -33q74 0 96 89h78q2 -39 -3 -83t-24.5 -99.5t-69 -91.5t-122.5 -36q-59 0 -205 41q-76 21 -109 21q-59 0 -75 -64 h-80z" />
<glyph unicode="&#xf6;" horiz-adv-x="1130" d="M92 346q0 59 18.5 124t62.5 133.5t107.5 122.5t164 89t219.5 35q109 0 190.5 -28.5t125.5 -68.5t71.5 -93.5t36 -94.5t8.5 -80q0 -211 -163 -363.5t-415 -152.5q-184 0 -305 92t-121 285zM387 246q0 -182 131 -183q70 0 128.5 65t90 155t48 167.5t16.5 118.5 q0 90 -35 138.5t-90 48.5q-76 0 -136.5 -70t-91 -165t-46 -168.5t-15.5 -106.5zM428 1155q0 59 41 100t100 41t100 -41t41 -100t-41 -100t-100 -41q-57 0 -99 42t-42 99zM833 1155q0 59 42.5 100t99.5 41q59 0 100 -41t41 -100q0 -57 -42 -99t-99.5 -42t-99.5 41t-42 100z " />
<glyph unicode="&#xf7;" horiz-adv-x="1366" d="M223 571v209h1110v-209h-1110zM653 256q0 51 37 88t88 37t88 -37t37 -88t-37 -88t-88 -37q-53 0 -89 37t-36 88zM653 1095.5q0 51.5 37 88.5t88 37t88 -37t37 -88.5t-37 -88t-88 -36.5q-53 0 -89 36.5t-36 88z" />
<glyph unicode="&#xf8;" horiz-adv-x="1130" d="M92 336q0 82 33 168t97.5 166t180 130t263.5 50q119 0 204 -31l64 72l74 -66l-47 -57q135 -104 135 -283q0 -211 -163 -363.5t-415 -152.5q-96 0 -196 31l-62 -74l-76 62l49 59q-141 111 -141 289zM387 229l385 467q-39 59 -94 60q-76 0 -137.5 -70t-92 -166t-46 -175 t-15.5 -116zM418 117q37 -53 100 -54q70 0 128.5 66t90 157t47 169.5t15.5 119.5z" />
<glyph unicode="&#xf9;" horiz-adv-x="1236" d="M27 561q20 47 40.5 80t64.5 84t112.5 80t154.5 29q61 0 103.5 -18.5t59 -46.5t21.5 -46t5 -33q-1 -37 -19 -100l-75 -246q0 -6 -9 -31q0 -4 -16 -55t-16 -59q0 -33 30 -33q70 0 196 199.5t208 453.5h291l-131 -420q-6 -20 -31 -100t-37 -119l-4 -16q-4 -16 -4 -23 q0 -35 28 -35q31 0 66 37t65 111h80q-31 -90 -78 -152.5t-99 -88t-90 -35t-73 -9.5q-174 0 -174 154q0 39 33 164l16 61q0 2 2.5 6t2.5 8l2 5l-4 4q-31 -61 -71 -122t-99.5 -128.5t-136 -109.5t-154.5 -42t-113 47t-35 105q0 31 13 76q16 41 24 82l92 301q18 61 19 79 q0 35 -33 35q-68 0 -125 -133h-102zM435 1313h409l150 -326h-86z" />
<glyph unicode="&#xfa;" horiz-adv-x="1236" d="M27 561q20 47 40.5 80t64.5 84t112.5 80t154.5 29q61 0 103.5 -18.5t59 -46.5t21.5 -46t5 -33q-1 -37 -19 -100l-75 -246q0 -6 -9 -31q0 -4 -16 -55t-16 -59q0 -33 30 -33q70 0 196 199.5t208 453.5h291l-131 -420q-6 -20 -31 -100t-37 -119l-4 -16q-4 -16 -4 -23 q0 -35 28 -35q31 0 66 37t65 111h80q-31 -90 -78 -152.5t-99 -88t-90 -35t-73 -9.5q-174 0 -174 154q0 39 33 164l16 61q0 2 2.5 6t2.5 8l2 5l-4 4q-31 -61 -71 -122t-99.5 -128.5t-136 -109.5t-154.5 -42t-113 47t-35 105q0 31 13 76q16 41 24 82l92 301q18 61 19 79 q0 35 -33 35q-68 0 -125 -133h-102zM601 985l149 326h410l-490 -326h-69z" />
<glyph unicode="&#xfb;" horiz-adv-x="1236" d="M27 561q20 47 40.5 80t64.5 84t112.5 80t154.5 29q61 0 103.5 -18.5t59 -46.5t21.5 -46t5 -33q-1 -37 -19 -100l-75 -246q0 -6 -9 -31q0 -4 -16 -55t-16 -59q0 -33 30 -33q70 0 196 199.5t208 453.5h291l-131 -420q-6 -20 -31 -100t-37 -119l-4 -16q-4 -16 -4 -23 q0 -35 28 -35q31 0 66 37t65 111h80q-31 -90 -78 -152.5t-99 -88t-90 -35t-73 -9.5q-174 0 -174 154q0 39 33 164l16 61q0 2 2.5 6t2.5 8l2 5l-4 4q-31 -61 -71 -122t-99.5 -128.5t-136 -109.5t-154.5 -42t-113 47t-35 105q0 31 13 76q16 41 24 82l92 301q18 61 19 79 q0 35 -33 35q-68 0 -125 -133h-102zM408 983l303 350h243l107 -350h-125l-135 180l-285 -180h-108z" />
<glyph unicode="&#xfc;" horiz-adv-x="1236" d="M27 561q20 47 40.5 80t64.5 84t112.5 80t154.5 29q61 0 103.5 -18.5t59 -46.5t21.5 -46t5 -33q-1 -37 -19 -100l-75 -246q0 -6 -9 -31q0 -4 -16 -55t-16 -59q0 -33 30 -33q70 0 196 199.5t208 453.5h291l-131 -420q-6 -20 -31 -100t-37 -119l-4 -16q-4 -16 -4 -23 q0 -35 28 -35q31 0 66 37t65 111h80q-31 -90 -78 -152.5t-99 -88t-90 -35t-73 -9.5q-174 0 -174 154q0 39 33 164l16 61q0 2 2.5 6t2.5 8l2 5l-4 4q-31 -61 -71 -122t-99.5 -128.5t-136 -109.5t-154.5 -42t-113 47t-35 105q0 31 13 76q16 41 24 82l92 301q18 61 19 79 q0 35 -33 35q-68 0 -125 -133h-102zM482 1155q0 59 41 100t100 41t100 -41t41 -100t-41 -100t-100 -41q-57 0 -99 42t-42 99zM887 1155q0 59 42.5 100t99.5 41q59 0 100 -41t41 -100q0 -57 -42 -99t-99.5 -42t-99.5 41t-42 100z" />
<glyph unicode="&#xfd;" horiz-adv-x="1087" d="M-313 -389q0 51 40 86t97 35q72 0 147 -45l27 -15q45 -29 86 -28q49 0 117.5 48t103.5 152q37 104 37 297q0 293 -33 451q-25 92 -67 92q-35 0 -61.5 -46t-30.5 -122h-97q14 174 98.5 254t188.5 80q287 0 287 -584q-1 -135 -11 -221l5 -4q152 168 204 278q41 90 41 166 q0 47 -37 127q-43 86 -43 138q0 47 34 73.5t75 26.5q25 0 51.5 -8t58 -52.5t31.5 -119.5q0 -127 -62.5 -270.5t-144 -253t-183 -214t-158 -152.5t-89.5 -73q-147 -115 -307 -166t-246 -51q-63 0 -111 33t-48 88zM525 985l149 326h410l-490 -326h-69z" />
<glyph unicode="&#xfe;" horiz-adv-x="1193" d="M-178 -485l31 98q100 0 133.5 24t66.5 130l414 1353q14 43 14 64q0 33 -28.5 47t-102.5 14l35 111q170 0 231.5 4t135.5 24h94l-205 -659l4 -4q18 25 47 49.5t91.5 52t131.5 27.5q74 0 125.5 -36t73 -91t28.5 -96t7 -80q0 -231 -147.5 -405.5t-342.5 -174.5 q-131 0 -217 99l-100 -332l-4 -13q-4 -12 -7 -27.5t-3 -21.5q0 -59 121 -59h51l-29 -98h-649zM496 195q0 -63 28.5 -90t63.5 -27q63 0 117.5 72.5t85 170t47 177.5t16.5 112q0 43 -21.5 67.5t-50.5 24.5q-63 0 -121.5 -72.5t-92 -166.5t-53 -169.5t-19.5 -98.5z" />
<glyph unicode="&#xff;" horiz-adv-x="1087" d="M-313 -389q0 51 40 86t97 35q72 0 147 -45l27 -15q45 -29 86 -28q49 0 117.5 48t103.5 152q37 104 37 297q0 293 -33 451q-25 92 -67 92q-35 0 -61.5 -46t-30.5 -122h-97q14 174 98.5 254t188.5 80q287 0 287 -584q-1 -135 -11 -221l5 -4q152 168 204 278q41 90 41 166 q0 47 -37 127q-43 86 -43 138q0 47 34 73.5t75 26.5q25 0 51.5 -8t58 -52.5t31.5 -119.5q0 -127 -62.5 -270.5t-144 -253t-183 -214t-158 -152.5t-89.5 -73q-147 -115 -307 -166t-246 -51q-63 0 -111 33t-48 88zM365 1155q0 59 41 100t100 41t100 -41t41 -100t-41 -100 t-100 -41q-57 0 -99 42t-42 99zM770 1155q0 59 42.5 100t99.5 41q59 0 100 -41t41 -100q0 -57 -42 -99t-99.5 -42t-99.5 41t-42 100z" />
<glyph unicode="&#x152;" horiz-adv-x="2091" d="M160 535q0 195 100 359.5t211 258.5q236 203 651 203h1010l8 -334h-112q-20 63 -49 108.5t-53.5 67t-63.5 32.5t-61.5 13t-67.5 2h-121l-150 -487q100 2 133 6t56 20q57 37 102 166h117l-164 -536h-119q0 2 12.5 48t12.5 70q0 74 -53 101q-29 14 -132 14l-110 -364 q-18 -63 -19 -82q0 -90 177 -90q303 0 440 254h113l-113 -365h-1141q-301 0 -446 125q-82 70 -125 179.5t-43 230.5zM510 418q0 -152 63.5 -229.5t182.5 -77.5q123 0 188 96q6 10 11.5 19.5t9.5 17.5t10 22.5t9 24.5t10 32.5t11.5 36t14.5 47.5t16 54l164 538q23 76 23 111 q0 53 -37 86t-73 41t-73 8q-115 0 -218 -93t-168.5 -227t-104.5 -271.5t-39 -235.5z" />
<glyph unicode="&#x153;" horiz-adv-x="1599" d="M88 334q0 203 155.5 359.5t411.5 156.5q223 0 357 -125q76 61 178 93t190 32q90 0 146.5 -42t56.5 -116q0 -90 -62.5 -161.5t-166 -116.5t-176 -67.5t-154.5 -39.5q-6 -39 -6 -69q0 -63 32.5 -105.5t84.5 -42.5q55 0 137 46t141 114h135q-233 -281 -504 -281 q-131 0 -243 68q-145 -68 -281 -68q-180 0 -306 96.5t-126 268.5zM389 242q0 -174 119 -174q78 0 139.5 71.5t92 169t46 175t15.5 112.5q0 66 -36 111t-93 45q-66 0 -119 -53.5t-82 -125t-49.5 -151.5t-26.5 -126t-6 -54zM1049 414q80 23 139 60.5t85.5 75.5t42 71.5 t17.5 54.5l2 20q0 25 -15 40.5t-38 15.5q-70 0 -142.5 -109.5t-90.5 -228.5z" />
<glyph unicode="&#x178;" horiz-adv-x="1259" d="M227 0l33 111q59 0 97 10t60.5 37.5t32 49.5t23.5 71l94 309l-135 483q-33 115 -61.5 144.5t-126.5 29.5l32 111h637l-34 -111q-127 -10 -127 -84q0 -18 18 -98l92 -346l223 307q59 82 60 137q0 45 -39 64.5t-82 19.5l33 111h493l-32 -111q-84 2 -137.5 -42t-157.5 -185 l-310 -418l-94 -307q-2 -4 -6 -25q0 -2 -2 -6t-2 -6q-10 -37 -10 -53q0 -92 170 -92l-35 -111h-707zM656 1636q0 59 41 100t100 41t100 -41t41 -100t-41 -100t-100 -41q-57 0 -99 42t-42 99zM1061 1636q0 59 42.5 100t99.5 41q59 0 100 -41t41 -100q0 -57 -42 -99t-99.5 -42 t-99.5 41t-42 100z" />
<glyph unicode="&#x2c6;" d="M109 983l303 350h243l107 -350h-125l-135 180l-285 -180h-108z" />
<glyph unicode="&#x2dc;" d="M201 991q-4 109 18 160q29 66 84 97.5t111 31.5q43 0 155 -33q111 -33 146 -33q74 0 96 89h78q2 -39 -3 -83t-24.5 -99.5t-69 -91.5t-122.5 -36q-59 0 -205 41q-76 21 -109 21q-59 0 -75 -64h-80z" />
<glyph unicode="&#x2000;" horiz-adv-x="919" />
<glyph unicode="&#x2001;" horiz-adv-x="1839" />
<glyph unicode="&#x2002;" horiz-adv-x="919" />
<glyph unicode="&#x2003;" horiz-adv-x="1839" />
<glyph unicode="&#x2004;" horiz-adv-x="613" />
<glyph unicode="&#x2005;" horiz-adv-x="459" />
<glyph unicode="&#x2006;" horiz-adv-x="306" />
<glyph unicode="&#x2007;" horiz-adv-x="306" />
<glyph unicode="&#x2008;" horiz-adv-x="229" />
<glyph unicode="&#x2009;" horiz-adv-x="367" />
<glyph unicode="&#x200a;" horiz-adv-x="102" />
<glyph unicode="&#x2010;" d="M35 272l82 271h590l-82 -271h-590z" />
<glyph unicode="&#x2011;" d="M35 272l82 271h590l-82 -271h-590z" />
<glyph unicode="&#x2012;" d="M35 272l82 271h590l-82 -271h-590z" />
<glyph unicode="&#x2013;" horiz-adv-x="1024" d="M84 420v184h1049v-184h-1049z" />
<glyph unicode="&#x2014;" horiz-adv-x="2048" d="M84 420v184h2073v-184h-2073z" />
<glyph unicode="&#x2018;" horiz-adv-x="704" d="M315 936q0 170 139.5 308t362.5 140l-31 -98q-158 -14 -243.5 -95t-85.5 -144q0 -25 16 -25q51 0 88 -15.5t54.5 -34t27.5 -44t11 -37.5t1 -23q0 -66 -45 -109.5t-108 -43.5q-70 0 -128.5 59.5t-58.5 161.5z" />
<glyph unicode="&#x2019;" horiz-adv-x="704" d="M252 715l31 98q158 14 243.5 95t85.5 145q0 25 -16 24q-51 0 -88 15.5t-54.5 34t-27.5 44t-11 38t-1 22.5q0 66 45 109.5t108 43.5q70 0 128.5 -59t58.5 -162q0 -170 -139.5 -308t-362.5 -140z" />
<glyph unicode="&#x201a;" horiz-adv-x="704" d="M-4 -395l31 98q158 14 243.5 95t85.5 145q0 25 -16 24q-51 0 -88 15.5t-54.5 34t-27.5 44t-11 38t-1 22.5q0 66 45 109.5t108 43.5q70 0 128.5 -59t58.5 -162q0 -170 -139.5 -308t-362.5 -140z" />
<glyph unicode="&#x201c;" horiz-adv-x="1216" d="M360 936q0 170 139.5 308t362.5 140l-31 -98q-158 -14 -243.5 -95t-85.5 -144q0 -25 16 -25q51 0 88 -15.5t54.5 -34t27.5 -44t11 -37.5t1 -23q0 -66 -45 -109.5t-108 -43.5q-70 0 -128.5 59.5t-58.5 161.5zM889 936q0 170 139.5 308t362.5 140l-31 -98 q-158 -14 -244 -95t-86 -144q0 -25 17 -25q51 0 87.5 -15.5t54 -34t28 -44t11.5 -37.5t1 -23q0 -66 -45 -109.5t-109 -43.5q-70 0 -128 59.5t-58 161.5z" />
<glyph unicode="&#x201d;" horiz-adv-x="1216" d="M221 715l31 98q158 14 244 95t86 145q0 25 -17 24q-51 0 -88 15.5t-54 34t-27.5 44t-11.5 38t-1 22.5q0 66 45 109.5t109 43.5q70 0 128 -59t58 -162q0 -170 -139.5 -308t-362.5 -140zM750 715l30 98q158 14 244 95t86 145q0 25 -16 24q-51 0 -88 15.5t-54.5 34t-28 44 t-11.5 38t-1 22.5q0 66 45 109.5t109 43.5q70 0 128 -59t58 -162q0 -170 -139 -308t-362 -140z" />
<glyph unicode="&#x201e;" horiz-adv-x="1216" d="M-12 -395l30 98q158 14 244 95t86 145q0 25 -16 24q-51 0 -88 15.5t-54.5 34t-27.5 44t-11 38t-1 22.5q0 66 45 109.5t108 43.5q70 0 128 -59t58 -162q0 -170 -139 -308t-362 -140zM516 -395l31 98q158 14 244 95t86 145q0 25 -17 24q-51 0 -88 15.5t-54.5 34t-27.5 44 t-11 38t-1 22.5q0 66 45 109.5t108 43.5q70 0 128.5 -59t58.5 -162q0 -170 -139.5 -308t-362.5 -140z" />
<glyph unicode="&#x2022;" horiz-adv-x="724" d="M172 674q0 121 84 202.5t203 81.5q117 0 200.5 -81.5t83.5 -202.5q0 -119 -82.5 -203t-201.5 -84t-203 84t-84 203z" />
<glyph unicode="&#x2026;" horiz-adv-x="2048" d="M162 145q0 74 53 127.5t129 53.5q74 0 127 -53.5t53 -127.5q0 -76 -53 -129t-127 -53q-76 0 -129 53.5t-53 128.5zM844 145q0 74 52 127.5t128 53.5t129 -53.5t53 -127.5q0 -76 -53 -129t-129 -53t-128 53.5t-52 128.5zM1526 145q0 74 53 127.5t129 53.5t128 -53.5 t52 -127.5q0 -76 -52 -129t-128 -53t-129 53.5t-53 128.5z" />
<glyph unicode="&#x202f;" horiz-adv-x="367" />
<glyph unicode="&#x2039;" horiz-adv-x="618" d="M92 442l410 439h121l-240 -467l33 -414h-113z" />
<glyph unicode="&#x203a;" horiz-adv-x="618" d="M61 0l240 467l-33 414h113l211 -443l-410 -438h-121z" />
<glyph unicode="&#x205f;" horiz-adv-x="459" />
<glyph unicode="&#x2122;" horiz-adv-x="2048" d="M94 1130v226h776v-226h-34q-8 174 -195 175h-37v-588q0 -43 2 -60.5t11.5 -39t31 -27.5t58.5 -6v-35h-455v35q72 4 87 23.5t15 113.5v584h-32q-49 0 -86 -12.5t-56.5 -29t-32 -42t-16.5 -45t-6 -46.5h-31zM981 549v35q74 2 91.5 24.5t17.5 110.5v467q0 80 -17.5 107.5 t-91.5 25.5v37h367l231 -496l229 496h346v-37q-68 0 -84 -26.5t-16 -108.5v-471q0 -49 4 -70.5t25.5 -39t70.5 -19.5v-35h-460v35q74 2 94 23.5t20 105.5v506h-4l-315 -670h-25l-313 670h-4v-504q0 -55 4 -78t29.5 -38t81.5 -15v-35h-281z" />
<glyph unicode="&#xe000;" horiz-adv-x="849" d="M0 0v850h850v-850h-850z" />
<glyph unicode="&#xfb01;" horiz-adv-x="1323" d="M-393 -348q0 55 43 94t102 39q121 0 135 -125q6 -61 52 -61q25 0 43 20.5t24 34.5q35 69 94 321l183 734h-144l33 110h137q2 2 6 23q39 135 71 204.5t97 149.5q164 188 418 188q135 0 221 -54t86 -132q0 -47 -34.5 -82t-81.5 -35q-92 0 -170 119q-20 31 -29.5 42 t-31 27.5t-46.5 16.5q-35 0 -60.5 -18.5t-45 -61.5t-27.5 -73.5t-25 -94.5l-55 -219h375q131 0 213 19h84l-187 -611q-16 -57 -16 -69q0 -35 31 -35q57 0 104 104h90q-35 -111 -122 -184.5t-209 -73.5q-78 0 -136.5 32t-58.5 101q0 39 25 125l137 482h-363l-108 -430 q-35 -141 -71 -249t-89 -212.5t-116.5 -172t-153.5 -108.5t-199 -41q-113 0 -169 46t-56 110z" />
<glyph unicode="&#xfb02;" horiz-adv-x="1323" d="M-393 -352.5q0 61.5 43 99.5t102 38q121 0 135 -125q6 -59 50 -59q72 0 120 198l45 181q0 2 2 9t4.5 17t4.5 17q6 25 12 45l158 641h-146l35 110h137q47 205 148 344q68 94 183.5 157.5t252.5 63.5q57 0 129 -16q6 -2 29.5 -10t25.5 -8q106 0 260 34h90l-344 -1181 q-2 -2 -2 -6q-2 -6 -2 -9l-8 -32q0 -31 31 -31q8 0 20.5 3t40 30.5t45.5 77.5h92q-41 -127 -136 -198t-203 -71q-70 0 -130.5 32t-60.5 101q0 39 23 121l139 488h-361l-110 -433q-23 -90 -39 -149t-48 -149.5t-63.5 -149.5t-81 -128t-105.5 -109t-132 -67.5t-164 -27.5 q-111 0 -166 45t-55 106.5zM602 819h363l82 266q-72 31 -132 123q-53 78 -104 78q-90 0 -143 -201z" />
</font>
</defs>
</svg>
